M48
; DRILL file {KiCad 9.0.6} date 2026-02-27T17:21:45+0300
; FORMAT={-:-/ absolute / metric / decimal}
; #@! TF.CreationDate,2026-02-27T17:21:45+03:00
; #@! TF.GenerationSoftware,Kicad,Pcbnew,9.0.6
; #@! TF.FileFunction,Plated,1,4,PTH
FMAT,2
METRIC
; #@! TA.AperFunction,Plated,PTH,ViaDrill
T1C0.300
; #@! TA.AperFunction,Plated,PTH,ComponentDrill
T2C0.600
; #@! TA.AperFunction,Plated,PTH,ComponentDrill
T3C1.000
%
G90
G05
T1
X120.8Y-78.2
X121.0Y-74.3
X121.052Y-90.25
X121.363Y-63.737
X121.9Y-85.0
X122.6Y-75.6
X124.6Y-99.2
X125.0Y-88.4
X126.263Y-63.737
X138.2Y-71.1
T3
X132.5Y-77.42
X132.5Y-79.96
X132.5Y-82.5
X132.5Y-85.04
X132.5Y-87.58
X132.5Y-90.12
X132.5Y-92.66
X132.5Y-95.2
X132.5Y-97.74
X132.5Y-100.28
X132.5Y-102.82
X132.5Y-105.36
X132.5Y-107.9
X132.5Y-110.44
X132.5Y-112.98
X157.9Y-77.42
X157.9Y-79.96
X157.9Y-82.5
X157.9Y-85.04
X157.9Y-87.58
X157.9Y-90.12
X157.9Y-92.66
X157.9Y-95.2
X157.9Y-97.74
X157.9Y-100.28
X157.9Y-102.82
X157.9Y-105.36
X157.9Y-107.9
X157.9Y-110.44
X157.9Y-112.98
T2
G00X119.493Y-64.102
M15
G01X119.493Y-65.202
M16
G05
G00X119.493Y-68.532
M15
G01X119.493Y-69.132
M16
G05
G00X128.133Y-64.102
M15
G01X128.133Y-65.202
M16
G05
G00X128.133Y-68.532
M15
G01X128.133Y-69.132
M16
G05
M30
