%TF.GenerationSoftware,KiCad,Pcbnew,9.0.6*%
%TF.CreationDate,2026-02-27T17:21:49+03:00*%
%TF.ProjectId,blabla,626c6162-6c61-42e6-9b69-6361645f7063,rev?*%
%TF.SameCoordinates,Original*%
%TF.FileFunction,Copper,L4,Bot*%
%TF.FilePolarity,Positive*%
%FSLAX46Y46*%
G04 Gerber Fmt 4.6, Leading zero omitted, Abs format (unit mm)*
G04 Created by KiCad (PCBNEW 9.0.6) date 2026-02-27 17:21:49*
%MOMM*%
%LPD*%
G01*
G04 APERTURE LIST*
%TA.AperFunction,ComponentPad*%
%ADD10R,1.700000X1.700000*%
%TD*%
%TA.AperFunction,ComponentPad*%
%ADD11C,1.700000*%
%TD*%
%TA.AperFunction,HeatsinkPad*%
%ADD12O,1.000000X2.100000*%
%TD*%
%TA.AperFunction,HeatsinkPad*%
%ADD13O,1.000000X1.600000*%
%TD*%
%TA.AperFunction,ViaPad*%
%ADD14C,0.700000*%
%TD*%
%TA.AperFunction,Conductor*%
%ADD15C,0.400000*%
%TD*%
%TA.AperFunction,Conductor*%
%ADD16C,0.200000*%
%TD*%
G04 APERTURE END LIST*
D10*
%TO.P,J1,1,Pin_1*%
%TO.N,Net-(J1-Pin_1)*%
X132500000Y-77420000D03*
D11*
%TO.P,J1,2,Pin_2*%
%TO.N,GND*%
X132500000Y-79960000D03*
%TO.P,J1,3,Pin_3*%
%TO.N,unconnected-(J1-Pin_3-Pad3)*%
X132500000Y-82500000D03*
%TO.P,J1,4,Pin_4*%
%TO.N,unconnected-(J1-Pin_4-Pad4)*%
X132500000Y-85040000D03*
%TO.P,J1,5,Pin_5*%
%TO.N,unconnected-(J1-Pin_5-Pad5)*%
X132500000Y-87580000D03*
%TO.P,J1,6,Pin_6*%
%TO.N,unconnected-(J1-Pin_6-Pad6)*%
X132500000Y-90120000D03*
%TO.P,J1,7,Pin_7*%
%TO.N,unconnected-(J1-Pin_7-Pad7)*%
X132500000Y-92660000D03*
%TO.P,J1,8,Pin_8*%
%TO.N,unconnected-(J1-Pin_8-Pad8)*%
X132500000Y-95200000D03*
%TO.P,J1,9,Pin_9*%
%TO.N,unconnected-(J1-Pin_9-Pad9)*%
X132500000Y-97740000D03*
%TO.P,J1,10,Pin_10*%
%TO.N,unconnected-(J1-Pin_10-Pad10)*%
X132500000Y-100280000D03*
%TO.P,J1,11,Pin_11*%
%TO.N,Net-(J1-Pin_11)*%
X132500000Y-102820000D03*
%TO.P,J1,12,Pin_12*%
%TO.N,unconnected-(J1-Pin_12-Pad12)*%
X132500000Y-105360000D03*
%TO.P,J1,13,Pin_13*%
%TO.N,unconnected-(J1-Pin_13-Pad13)*%
X132500000Y-107900000D03*
%TO.P,J1,14,Pin_14*%
%TO.N,Net-(J1-Pin_14)*%
X132500000Y-110440000D03*
%TO.P,J1,15,Pin_15*%
%TO.N,unconnected-(J1-Pin_15-Pad15)*%
X132500000Y-112980000D03*
%TD*%
D12*
%TO.P,J3,S1,SHIELD*%
%TO.N,unconnected-(J3-SHIELD-PadS1)_2*%
X119492501Y-64651650D03*
D13*
%TO.N,unconnected-(J3-SHIELD-PadS1)_3*%
X119492501Y-68831650D03*
D12*
%TO.N,unconnected-(J3-SHIELD-PadS1)*%
X128132501Y-64651650D03*
D13*
%TO.N,unconnected-(J3-SHIELD-PadS1)_1*%
X128132501Y-68831650D03*
%TD*%
D10*
%TO.P,J2,1,Pin_1*%
%TO.N,unconnected-(J2-Pin_1-Pad1)*%
X157900000Y-77420000D03*
D11*
%TO.P,J2,2,Pin_2*%
%TO.N,GND*%
X157900000Y-79960000D03*
%TO.P,J2,3,Pin_3*%
%TO.N,unconnected-(J2-Pin_3-Pad3)*%
X157900000Y-82500000D03*
%TO.P,J2,4,Pin_4*%
%TO.N,unconnected-(J2-Pin_4-Pad4)*%
X157900000Y-85040000D03*
%TO.P,J2,5,Pin_5*%
%TO.N,unconnected-(J2-Pin_5-Pad5)*%
X157900000Y-87580000D03*
%TO.P,J2,6,Pin_6*%
%TO.N,unconnected-(J2-Pin_6-Pad6)*%
X157900000Y-90120000D03*
%TO.P,J2,7,Pin_7*%
%TO.N,unconnected-(J2-Pin_7-Pad7)*%
X157900000Y-92660000D03*
%TO.P,J2,8,Pin_8*%
%TO.N,unconnected-(J2-Pin_8-Pad8)*%
X157900000Y-95200000D03*
%TO.P,J2,9,Pin_9*%
%TO.N,unconnected-(J2-Pin_9-Pad9)*%
X157900000Y-97740000D03*
%TO.P,J2,10,Pin_10*%
%TO.N,unconnected-(J2-Pin_10-Pad10)*%
X157900000Y-100280000D03*
%TO.P,J2,11,Pin_11*%
%TO.N,unconnected-(J2-Pin_11-Pad11)*%
X157900000Y-102820000D03*
%TO.P,J2,12,Pin_12*%
%TO.N,unconnected-(J2-Pin_12-Pad12)*%
X157900000Y-105360000D03*
%TO.P,J2,13,Pin_13*%
%TO.N,unconnected-(J2-Pin_13-Pad13)*%
X157900000Y-107900000D03*
%TO.P,J2,14,Pin_14*%
%TO.N,unconnected-(J2-Pin_14-Pad14)*%
X157900000Y-110440000D03*
%TO.P,J2,15,Pin_15*%
%TO.N,unconnected-(J2-Pin_15-Pad15)*%
X157900000Y-112980000D03*
%TD*%
D14*
%TO.N,Net-(C1-Pad1)*%
X121362501Y-63736650D03*
X120800000Y-78200000D03*
X126262501Y-63736650D03*
X121000000Y-74300000D03*
%TO.N,Net-(U1-VI)*%
X121900000Y-85000000D03*
X121051949Y-90250000D03*
%TO.N,Net-(J1-Pin_1)*%
X125000000Y-88400000D03*
X124600000Y-99200000D03*
%TO.N,Net-(D1-K)*%
X138200000Y-71100000D03*
X122600000Y-75600000D03*
%TD*%
D15*
%TO.N,Net-(C1-Pad1)*%
X121000000Y-74300000D02*
X121000000Y-78000000D01*
D16*
X126262501Y-63736650D02*
X121362501Y-63736650D01*
D15*
X121000000Y-78000000D02*
X120800000Y-78200000D01*
D16*
%TO.N,Net-(U1-VI)*%
X121051949Y-90250000D02*
X121051949Y-85848051D01*
X121051949Y-85848051D02*
X121900000Y-85000000D01*
%TO.N,Net-(J1-Pin_1)*%
X125000000Y-88400000D02*
X125000000Y-98800000D01*
X125000000Y-98800000D02*
X124600000Y-99200000D01*
%TO.N,Net-(D1-K)*%
X138200000Y-71100000D02*
X127100000Y-71100000D01*
X127100000Y-71100000D02*
X122600000Y-75600000D01*
%TD*%
%TA.AperFunction,Conductor*%
%TO.N,GND*%
G36*
X129442539Y-61520185D02*
G01*
X129488294Y-61572989D01*
X129499500Y-61624500D01*
X129499500Y-65065891D01*
X129533608Y-65193187D01*
X129566554Y-65250250D01*
X129599500Y-65307314D01*
X129692686Y-65400500D01*
X129806814Y-65466392D01*
X129934108Y-65500500D01*
X130065892Y-65500500D01*
X160375500Y-65500500D01*
X160442539Y-65520185D01*
X160488294Y-65572989D01*
X160499500Y-65624500D01*
X160499500Y-116375500D01*
X160479815Y-116442539D01*
X160427011Y-116488294D01*
X160375500Y-116499500D01*
X118624500Y-116499500D01*
X118557461Y-116479815D01*
X118511706Y-116427011D01*
X118500500Y-116375500D01*
X118500500Y-99116228D01*
X123749500Y-99116228D01*
X123749500Y-99283771D01*
X123782182Y-99448074D01*
X123782184Y-99448082D01*
X123846295Y-99602860D01*
X123939373Y-99742162D01*
X124057837Y-99860626D01*
X124150494Y-99922537D01*
X124197137Y-99953703D01*
X124197138Y-99953703D01*
X124197139Y-99953704D01*
X124232201Y-99968227D01*
X124351918Y-100017816D01*
X124516228Y-100050499D01*
X124516232Y-100050500D01*
X124516233Y-100050500D01*
X124683768Y-100050500D01*
X124683769Y-100050499D01*
X124848082Y-100017816D01*
X125002863Y-99953703D01*
X125142162Y-99860626D01*
X125260626Y-99742162D01*
X125353703Y-99602863D01*
X125417816Y-99448082D01*
X125450500Y-99283767D01*
X125450500Y-99249930D01*
X125470185Y-99182891D01*
X125476128Y-99174438D01*
X125480512Y-99168723D01*
X125480520Y-99168716D01*
X125559577Y-99031784D01*
X125589534Y-98919981D01*
X125600500Y-98879058D01*
X125600500Y-98720943D01*
X125600500Y-89053650D01*
X125620185Y-88986611D01*
X125636815Y-88965972D01*
X125660626Y-88942162D01*
X125753703Y-88802863D01*
X125817816Y-88648082D01*
X125850500Y-88483767D01*
X125850500Y-88316233D01*
X125817816Y-88151918D01*
X125753703Y-87997137D01*
X125686285Y-87896239D01*
X125660626Y-87857837D01*
X125542162Y-87739373D01*
X125402860Y-87646295D01*
X125248082Y-87582184D01*
X125248074Y-87582182D01*
X125083771Y-87549500D01*
X125083767Y-87549500D01*
X124916233Y-87549500D01*
X124916228Y-87549500D01*
X124751925Y-87582182D01*
X124751917Y-87582184D01*
X124597139Y-87646295D01*
X124457837Y-87739373D01*
X124339373Y-87857837D01*
X124246295Y-87997139D01*
X124182184Y-88151917D01*
X124182182Y-88151925D01*
X124149500Y-88316228D01*
X124149500Y-88483771D01*
X124182182Y-88648074D01*
X124182184Y-88648082D01*
X124246295Y-88802860D01*
X124339372Y-88942160D01*
X124339373Y-88942161D01*
X124339374Y-88942162D01*
X124363181Y-88965969D01*
X124396666Y-89027290D01*
X124399500Y-89053650D01*
X124399500Y-98279620D01*
X124379815Y-98346659D01*
X124327011Y-98392414D01*
X124322954Y-98394181D01*
X124197137Y-98446296D01*
X124057837Y-98539373D01*
X123939373Y-98657837D01*
X123846295Y-98797139D01*
X123782184Y-98951917D01*
X123782182Y-98951925D01*
X123749500Y-99116228D01*
X118500500Y-99116228D01*
X118500500Y-90166228D01*
X120201449Y-90166228D01*
X120201449Y-90333771D01*
X120234131Y-90498074D01*
X120234133Y-90498082D01*
X120298244Y-90652860D01*
X120391322Y-90792162D01*
X120509786Y-90910626D01*
X120602443Y-90972537D01*
X120649086Y-91003703D01*
X120803867Y-91067816D01*
X120968177Y-91100499D01*
X120968181Y-91100500D01*
X120968182Y-91100500D01*
X121135717Y-91100500D01*
X121135718Y-91100499D01*
X121300031Y-91067816D01*
X121454812Y-91003703D01*
X121594111Y-90910626D01*
X121712575Y-90792162D01*
X121805652Y-90652863D01*
X121869765Y-90498082D01*
X121902449Y-90333767D01*
X121902449Y-90166233D01*
X121869765Y-90001918D01*
X121805652Y-89847137D01*
X121774486Y-89800494D01*
X121712575Y-89707837D01*
X121688768Y-89684030D01*
X121655283Y-89622707D01*
X121652449Y-89596349D01*
X121652449Y-86148148D01*
X121661093Y-86118707D01*
X121667617Y-86088721D01*
X121671371Y-86083705D01*
X121672134Y-86081109D01*
X121688768Y-86060467D01*
X121862416Y-85886819D01*
X121923739Y-85853334D01*
X121950097Y-85850500D01*
X121983768Y-85850500D01*
X121983769Y-85850499D01*
X122148082Y-85817816D01*
X122302863Y-85753703D01*
X122442162Y-85660626D01*
X122560626Y-85542162D01*
X122653703Y-85402863D01*
X122717816Y-85248082D01*
X122750500Y-85083767D01*
X122750500Y-84916233D01*
X122717816Y-84751918D01*
X122653703Y-84597137D01*
X122603221Y-84521585D01*
X122560626Y-84457837D01*
X122442162Y-84339373D01*
X122302860Y-84246295D01*
X122148082Y-84182184D01*
X122148074Y-84182182D01*
X121983771Y-84149500D01*
X121983767Y-84149500D01*
X121816233Y-84149500D01*
X121816228Y-84149500D01*
X121651925Y-84182182D01*
X121651917Y-84182184D01*
X121497139Y-84246295D01*
X121357837Y-84339373D01*
X121239373Y-84457837D01*
X121146295Y-84597139D01*
X121082184Y-84751917D01*
X121082182Y-84751925D01*
X121049500Y-84916228D01*
X121049500Y-84949902D01*
X121029815Y-85016941D01*
X121013181Y-85037583D01*
X120571430Y-85479333D01*
X120571429Y-85479335D01*
X120535156Y-85542162D01*
X120492372Y-85616266D01*
X120451448Y-85768994D01*
X120451448Y-85768996D01*
X120451448Y-85937097D01*
X120451449Y-85937110D01*
X120451449Y-89596349D01*
X120431764Y-89663388D01*
X120415130Y-89684030D01*
X120391325Y-89707834D01*
X120391322Y-89707837D01*
X120298244Y-89847139D01*
X120234133Y-90001917D01*
X120234131Y-90001925D01*
X120201449Y-90166228D01*
X118500500Y-90166228D01*
X118500500Y-78116228D01*
X119949500Y-78116228D01*
X119949500Y-78283771D01*
X119982182Y-78448074D01*
X119982184Y-78448082D01*
X120046295Y-78602860D01*
X120139373Y-78742162D01*
X120257837Y-78860626D01*
X120350494Y-78922537D01*
X120397137Y-78953703D01*
X120551918Y-79017816D01*
X120716228Y-79050499D01*
X120716232Y-79050500D01*
X120716233Y-79050500D01*
X120883768Y-79050500D01*
X120883769Y-79050499D01*
X121048082Y-79017816D01*
X121202863Y-78953703D01*
X121342162Y-78860626D01*
X121460626Y-78742162D01*
X121553703Y-78602863D01*
X121617816Y-78448082D01*
X121650500Y-78283767D01*
X121650500Y-78283760D01*
X121651097Y-78277706D01*
X121651878Y-78277782D01*
X121659939Y-78237260D01*
X121673580Y-78204328D01*
X121682389Y-78160040D01*
X121700500Y-78068996D01*
X121700500Y-76522135D01*
X131149500Y-76522135D01*
X131149500Y-78317870D01*
X131149501Y-78317876D01*
X131155908Y-78377483D01*
X131206202Y-78512328D01*
X131206206Y-78512335D01*
X131292452Y-78627544D01*
X131292455Y-78627547D01*
X131407664Y-78713793D01*
X131407671Y-78713797D01*
X131452618Y-78730561D01*
X131542517Y-78764091D01*
X131602127Y-78770500D01*
X131612685Y-78770499D01*
X131679723Y-78790179D01*
X131700372Y-78806818D01*
X132370591Y-79477037D01*
X132307007Y-79494075D01*
X132192993Y-79559901D01*
X132099901Y-79652993D01*
X132034075Y-79767007D01*
X132017037Y-79830591D01*
X131384728Y-79198282D01*
X131384727Y-79198282D01*
X131345380Y-79252439D01*
X131248904Y-79441782D01*
X131183242Y-79643869D01*
X131183242Y-79643872D01*
X131150000Y-79853753D01*
X131150000Y-80066246D01*
X131183242Y-80276127D01*
X131183242Y-80276130D01*
X131248904Y-80478217D01*
X131345375Y-80667550D01*
X131384728Y-80721716D01*
X132017037Y-80089408D01*
X132034075Y-80152993D01*
X132099901Y-80267007D01*
X132192993Y-80360099D01*
X132307007Y-80425925D01*
X132370590Y-80442962D01*
X131738282Y-81075269D01*
X131738282Y-81075270D01*
X131792452Y-81114626D01*
X131792451Y-81114626D01*
X131801495Y-81119234D01*
X131852292Y-81167208D01*
X131869087Y-81235029D01*
X131846550Y-81301164D01*
X131801499Y-81340202D01*
X131792182Y-81344949D01*
X131620213Y-81469890D01*
X131469890Y-81620213D01*
X131344951Y-81792179D01*
X131248444Y-81981585D01*
X131182753Y-82183760D01*
X131149500Y-82393713D01*
X131149500Y-82606286D01*
X131182753Y-82816239D01*
X131248444Y-83018414D01*
X131344951Y-83207820D01*
X131469890Y-83379786D01*
X131620213Y-83530109D01*
X131792182Y-83655050D01*
X131800946Y-83659516D01*
X131851742Y-83707491D01*
X131868536Y-83775312D01*
X131845998Y-83841447D01*
X131800946Y-83880484D01*
X131792182Y-83884949D01*
X131620213Y-84009890D01*
X131469890Y-84160213D01*
X131344951Y-84332179D01*
X131248444Y-84521585D01*
X131182753Y-84723760D01*
X131149500Y-84933713D01*
X131149500Y-85146286D01*
X131165621Y-85248074D01*
X131182754Y-85356243D01*
X131243163Y-85542163D01*
X131248444Y-85558414D01*
X131344951Y-85747820D01*
X131469890Y-85919786D01*
X131620213Y-86070109D01*
X131792182Y-86195050D01*
X131800946Y-86199516D01*
X131851742Y-86247491D01*
X131868536Y-86315312D01*
X131845998Y-86381447D01*
X131800946Y-86420484D01*
X131792182Y-86424949D01*
X131620213Y-86549890D01*
X131469890Y-86700213D01*
X131344951Y-86872179D01*
X131248444Y-87061585D01*
X131182753Y-87263760D01*
X131149500Y-87473713D01*
X131149500Y-87686287D01*
X131182754Y-87896243D01*
X131215537Y-87997139D01*
X131248444Y-88098414D01*
X131344951Y-88287820D01*
X131469890Y-88459786D01*
X131620213Y-88610109D01*
X131792182Y-88735050D01*
X131800946Y-88739516D01*
X131851742Y-88787491D01*
X131868536Y-88855312D01*
X131845998Y-88921447D01*
X131800946Y-88960484D01*
X131792182Y-88964949D01*
X131620213Y-89089890D01*
X131469890Y-89240213D01*
X131344951Y-89412179D01*
X131248444Y-89601585D01*
X131182753Y-89803760D01*
X131175883Y-89847137D01*
X131149500Y-90013713D01*
X131149500Y-90226287D01*
X131182754Y-90436243D01*
X131202844Y-90498074D01*
X131248444Y-90638414D01*
X131344951Y-90827820D01*
X131469890Y-90999786D01*
X131620213Y-91150109D01*
X131792182Y-91275050D01*
X131800946Y-91279516D01*
X131851742Y-91327491D01*
X131868536Y-91395312D01*
X131845998Y-91461447D01*
X131800946Y-91500484D01*
X131792182Y-91504949D01*
X131620213Y-91629890D01*
X131469890Y-91780213D01*
X131344951Y-91952179D01*
X131248444Y-92141585D01*
X131182753Y-92343760D01*
X131149500Y-92553713D01*
X131149500Y-92766286D01*
X131182753Y-92976239D01*
X131248444Y-93178414D01*
X131344951Y-93367820D01*
X131469890Y-93539786D01*
X131620213Y-93690109D01*
X131792182Y-93815050D01*
X131800946Y-93819516D01*
X131851742Y-93867491D01*
X131868536Y-93935312D01*
X131845998Y-94001447D01*
X131800946Y-94040484D01*
X131792182Y-94044949D01*
X131620213Y-94169890D01*
X131469890Y-94320213D01*
X131344951Y-94492179D01*
X131248444Y-94681585D01*
X131182753Y-94883760D01*
X131149500Y-95093713D01*
X131149500Y-95306286D01*
X131182753Y-95516239D01*
X131248444Y-95718414D01*
X131344951Y-95907820D01*
X131469890Y-96079786D01*
X131620213Y-96230109D01*
X131792182Y-96355050D01*
X131800946Y-96359516D01*
X131851742Y-96407491D01*
X131868536Y-96475312D01*
X131845998Y-96541447D01*
X131800946Y-96580484D01*
X131792182Y-96584949D01*
X131620213Y-96709890D01*
X131469890Y-96860213D01*
X131344951Y-97032179D01*
X131248444Y-97221585D01*
X131182753Y-97423760D01*
X131149500Y-97633713D01*
X131149500Y-97846286D01*
X131182753Y-98056239D01*
X131248444Y-98258414D01*
X131344951Y-98447820D01*
X131469890Y-98619786D01*
X131620213Y-98770109D01*
X131792182Y-98895050D01*
X131800946Y-98899516D01*
X131851742Y-98947491D01*
X131868536Y-99015312D01*
X131845998Y-99081447D01*
X131800946Y-99120484D01*
X131792182Y-99124949D01*
X131620213Y-99249890D01*
X131469890Y-99400213D01*
X131344951Y-99572179D01*
X131248444Y-99761585D01*
X131182753Y-99963760D01*
X131149500Y-100173713D01*
X131149500Y-100386286D01*
X131182753Y-100596239D01*
X131248444Y-100798414D01*
X131344951Y-100987820D01*
X131469890Y-101159786D01*
X131620213Y-101310109D01*
X131792182Y-101435050D01*
X131800946Y-101439516D01*
X131851742Y-101487491D01*
X131868536Y-101555312D01*
X131845998Y-101621447D01*
X131800946Y-101660484D01*
X131792182Y-101664949D01*
X131620213Y-101789890D01*
X131469890Y-101940213D01*
X131344951Y-102112179D01*
X131248444Y-102301585D01*
X131182753Y-102503760D01*
X131149500Y-102713713D01*
X131149500Y-102926286D01*
X131182753Y-103136239D01*
X131248444Y-103338414D01*
X131344951Y-103527820D01*
X131469890Y-103699786D01*
X131620213Y-103850109D01*
X131792182Y-103975050D01*
X131800946Y-103979516D01*
X131851742Y-104027491D01*
X131868536Y-104095312D01*
X131845998Y-104161447D01*
X131800946Y-104200484D01*
X131792182Y-104204949D01*
X131620213Y-104329890D01*
X131469890Y-104480213D01*
X131344951Y-104652179D01*
X131248444Y-104841585D01*
X131182753Y-105043760D01*
X131149500Y-105253713D01*
X131149500Y-105466286D01*
X131182753Y-105676239D01*
X131248444Y-105878414D01*
X131344951Y-106067820D01*
X131469890Y-106239786D01*
X131620213Y-106390109D01*
X131792182Y-106515050D01*
X131800946Y-106519516D01*
X131851742Y-106567491D01*
X131868536Y-106635312D01*
X131845998Y-106701447D01*
X131800946Y-106740484D01*
X131792182Y-106744949D01*
X131620213Y-106869890D01*
X131469890Y-107020213D01*
X131344951Y-107192179D01*
X131248444Y-107381585D01*
X131182753Y-107583760D01*
X131149500Y-107793713D01*
X131149500Y-108006286D01*
X131182753Y-108216239D01*
X131248444Y-108418414D01*
X131344951Y-108607820D01*
X131469890Y-108779786D01*
X131620213Y-108930109D01*
X131792182Y-109055050D01*
X131800946Y-109059516D01*
X131851742Y-109107491D01*
X131868536Y-109175312D01*
X131845998Y-109241447D01*
X131800946Y-109280484D01*
X131792182Y-109284949D01*
X131620213Y-109409890D01*
X131469890Y-109560213D01*
X131344951Y-109732179D01*
X131248444Y-109921585D01*
X131182753Y-110123760D01*
X131149500Y-110333713D01*
X131149500Y-110546286D01*
X131182753Y-110756239D01*
X131248444Y-110958414D01*
X131344951Y-111147820D01*
X131469890Y-111319786D01*
X131620213Y-111470109D01*
X131792182Y-111595050D01*
X131800946Y-111599516D01*
X131851742Y-111647491D01*
X131868536Y-111715312D01*
X131845998Y-111781447D01*
X131800946Y-111820484D01*
X131792182Y-111824949D01*
X131620213Y-111949890D01*
X131469890Y-112100213D01*
X131344951Y-112272179D01*
X131248444Y-112461585D01*
X131182753Y-112663760D01*
X131149500Y-112873713D01*
X131149500Y-113086286D01*
X131182753Y-113296239D01*
X131248444Y-113498414D01*
X131344951Y-113687820D01*
X131469890Y-113859786D01*
X131620213Y-114010109D01*
X131792179Y-114135048D01*
X131792181Y-114135049D01*
X131792184Y-114135051D01*
X131981588Y-114231557D01*
X132183757Y-114297246D01*
X132393713Y-114330500D01*
X132393714Y-114330500D01*
X132606286Y-114330500D01*
X132606287Y-114330500D01*
X132816243Y-114297246D01*
X133018412Y-114231557D01*
X133207816Y-114135051D01*
X133229789Y-114119086D01*
X133379786Y-114010109D01*
X133379788Y-114010106D01*
X133379792Y-114010104D01*
X133530104Y-113859792D01*
X133530106Y-113859788D01*
X133530109Y-113859786D01*
X133655048Y-113687820D01*
X133655047Y-113687820D01*
X133655051Y-113687816D01*
X133751557Y-113498412D01*
X133817246Y-113296243D01*
X133850500Y-113086287D01*
X133850500Y-112873713D01*
X133817246Y-112663757D01*
X133751557Y-112461588D01*
X133655051Y-112272184D01*
X133655049Y-112272181D01*
X133655048Y-112272179D01*
X133530109Y-112100213D01*
X133379786Y-111949890D01*
X133207820Y-111824951D01*
X133207115Y-111824591D01*
X133199054Y-111820485D01*
X133148259Y-111772512D01*
X133131463Y-111704692D01*
X133153999Y-111638556D01*
X133199054Y-111599515D01*
X133207816Y-111595051D01*
X133229789Y-111579086D01*
X133379786Y-111470109D01*
X133379788Y-111470106D01*
X133379792Y-111470104D01*
X133530104Y-111319792D01*
X133530106Y-111319788D01*
X133530109Y-111319786D01*
X133655048Y-111147820D01*
X133655047Y-111147820D01*
X133655051Y-111147816D01*
X133751557Y-110958412D01*
X133817246Y-110756243D01*
X133850500Y-110546287D01*
X133850500Y-110333713D01*
X133817246Y-110123757D01*
X133751557Y-109921588D01*
X133655051Y-109732184D01*
X133655049Y-109732181D01*
X133655048Y-109732179D01*
X133530109Y-109560213D01*
X133379786Y-109409890D01*
X133207820Y-109284951D01*
X133207115Y-109284591D01*
X133199054Y-109280485D01*
X133148259Y-109232512D01*
X133131463Y-109164692D01*
X133153999Y-109098556D01*
X133199054Y-109059515D01*
X133207816Y-109055051D01*
X133229789Y-109039086D01*
X133379786Y-108930109D01*
X133379788Y-108930106D01*
X133379792Y-108930104D01*
X133530104Y-108779792D01*
X133530106Y-108779788D01*
X133530109Y-108779786D01*
X133655048Y-108607820D01*
X133655047Y-108607820D01*
X133655051Y-108607816D01*
X133751557Y-108418412D01*
X133817246Y-108216243D01*
X133850500Y-108006287D01*
X133850500Y-107793713D01*
X133817246Y-107583757D01*
X133751557Y-107381588D01*
X133655051Y-107192184D01*
X133655049Y-107192181D01*
X133655048Y-107192179D01*
X133530109Y-107020213D01*
X133379786Y-106869890D01*
X133207820Y-106744951D01*
X133207115Y-106744591D01*
X133199054Y-106740485D01*
X133148259Y-106692512D01*
X133131463Y-106624692D01*
X133153999Y-106558556D01*
X133199054Y-106519515D01*
X133207816Y-106515051D01*
X133229789Y-106499086D01*
X133379786Y-106390109D01*
X133379788Y-106390106D01*
X133379792Y-106390104D01*
X133530104Y-106239792D01*
X133530106Y-106239788D01*
X133530109Y-106239786D01*
X133655048Y-106067820D01*
X133655047Y-106067820D01*
X133655051Y-106067816D01*
X133751557Y-105878412D01*
X133817246Y-105676243D01*
X133850500Y-105466287D01*
X133850500Y-105253713D01*
X133817246Y-105043757D01*
X133751557Y-104841588D01*
X133655051Y-104652184D01*
X133655049Y-104652181D01*
X133655048Y-104652179D01*
X133530109Y-104480213D01*
X133379786Y-104329890D01*
X133207820Y-104204951D01*
X133207115Y-104204591D01*
X133199054Y-104200485D01*
X133148259Y-104152512D01*
X133131463Y-104084692D01*
X133153999Y-104018556D01*
X133199054Y-103979515D01*
X133207816Y-103975051D01*
X133229789Y-103959086D01*
X133379786Y-103850109D01*
X133379788Y-103850106D01*
X133379792Y-103850104D01*
X133530104Y-103699792D01*
X133530106Y-103699788D01*
X133530109Y-103699786D01*
X133655048Y-103527820D01*
X133655047Y-103527820D01*
X133655051Y-103527816D01*
X133751557Y-103338412D01*
X133817246Y-103136243D01*
X133850500Y-102926287D01*
X133850500Y-102713713D01*
X133817246Y-102503757D01*
X133751557Y-102301588D01*
X133655051Y-102112184D01*
X133655049Y-102112181D01*
X133655048Y-102112179D01*
X133530109Y-101940213D01*
X133379786Y-101789890D01*
X133207820Y-101664951D01*
X133207115Y-101664591D01*
X133199054Y-101660485D01*
X133148259Y-101612512D01*
X133131463Y-101544692D01*
X133153999Y-101478556D01*
X133199054Y-101439515D01*
X133207816Y-101435051D01*
X133229789Y-101419086D01*
X133379786Y-101310109D01*
X133379788Y-101310106D01*
X133379792Y-101310104D01*
X133530104Y-101159792D01*
X133530106Y-101159788D01*
X133530109Y-101159786D01*
X133655048Y-100987820D01*
X133655047Y-100987820D01*
X133655051Y-100987816D01*
X133751557Y-100798412D01*
X133817246Y-100596243D01*
X133850500Y-100386287D01*
X133850500Y-100173713D01*
X133817246Y-99963757D01*
X133751557Y-99761588D01*
X133655051Y-99572184D01*
X133655049Y-99572181D01*
X133655048Y-99572179D01*
X133530109Y-99400213D01*
X133379786Y-99249890D01*
X133207820Y-99124951D01*
X133207115Y-99124591D01*
X133199054Y-99120485D01*
X133148259Y-99072512D01*
X133131463Y-99004692D01*
X133153999Y-98938556D01*
X133199054Y-98899515D01*
X133207816Y-98895051D01*
X133229833Y-98879055D01*
X133379786Y-98770109D01*
X133379788Y-98770106D01*
X133379792Y-98770104D01*
X133530104Y-98619792D01*
X133530106Y-98619788D01*
X133530109Y-98619786D01*
X133655048Y-98447820D01*
X133655047Y-98447820D01*
X133655051Y-98447816D01*
X133751557Y-98258412D01*
X133817246Y-98056243D01*
X133850500Y-97846287D01*
X133850500Y-97633713D01*
X133817246Y-97423757D01*
X133751557Y-97221588D01*
X133655051Y-97032184D01*
X133655049Y-97032181D01*
X133655048Y-97032179D01*
X133530109Y-96860213D01*
X133379786Y-96709890D01*
X133207820Y-96584951D01*
X133207115Y-96584591D01*
X133199054Y-96580485D01*
X133148259Y-96532512D01*
X133131463Y-96464692D01*
X133153999Y-96398556D01*
X133199054Y-96359515D01*
X133207816Y-96355051D01*
X133229789Y-96339086D01*
X133379786Y-96230109D01*
X133379788Y-96230106D01*
X133379792Y-96230104D01*
X133530104Y-96079792D01*
X133530106Y-96079788D01*
X133530109Y-96079786D01*
X133655048Y-95907820D01*
X133655047Y-95907820D01*
X133655051Y-95907816D01*
X133751557Y-95718412D01*
X133817246Y-95516243D01*
X133850500Y-95306287D01*
X133850500Y-95093713D01*
X133817246Y-94883757D01*
X133751557Y-94681588D01*
X133655051Y-94492184D01*
X133655049Y-94492181D01*
X133655048Y-94492179D01*
X133530109Y-94320213D01*
X133379786Y-94169890D01*
X133207820Y-94044951D01*
X133207115Y-94044591D01*
X133199054Y-94040485D01*
X133148259Y-93992512D01*
X133131463Y-93924692D01*
X133153999Y-93858556D01*
X133199054Y-93819515D01*
X133207816Y-93815051D01*
X133229789Y-93799086D01*
X133379786Y-93690109D01*
X133379788Y-93690106D01*
X133379792Y-93690104D01*
X133530104Y-93539792D01*
X133530106Y-93539788D01*
X133530109Y-93539786D01*
X133655048Y-93367820D01*
X133655047Y-93367820D01*
X133655051Y-93367816D01*
X133751557Y-93178412D01*
X133817246Y-92976243D01*
X133850500Y-92766287D01*
X133850500Y-92553713D01*
X133817246Y-92343757D01*
X133751557Y-92141588D01*
X133655051Y-91952184D01*
X133655049Y-91952181D01*
X133655048Y-91952179D01*
X133530109Y-91780213D01*
X133379786Y-91629890D01*
X133207820Y-91504951D01*
X133207115Y-91504591D01*
X133199054Y-91500485D01*
X133148259Y-91452512D01*
X133131463Y-91384692D01*
X133153999Y-91318556D01*
X133199054Y-91279515D01*
X133207816Y-91275051D01*
X133229789Y-91259086D01*
X133379786Y-91150109D01*
X133379788Y-91150106D01*
X133379792Y-91150104D01*
X133530104Y-90999792D01*
X133530106Y-90999788D01*
X133530109Y-90999786D01*
X133655048Y-90827820D01*
X133655047Y-90827820D01*
X133655051Y-90827816D01*
X133751557Y-90638412D01*
X133817246Y-90436243D01*
X133850500Y-90226287D01*
X133850500Y-90013713D01*
X133817246Y-89803757D01*
X133751557Y-89601588D01*
X133655051Y-89412184D01*
X133655049Y-89412181D01*
X133655048Y-89412179D01*
X133530109Y-89240213D01*
X133379786Y-89089890D01*
X133207820Y-88964951D01*
X133207115Y-88964591D01*
X133199054Y-88960485D01*
X133148259Y-88912512D01*
X133131463Y-88844692D01*
X133153999Y-88778556D01*
X133199054Y-88739515D01*
X133207816Y-88735051D01*
X133229789Y-88719086D01*
X133379786Y-88610109D01*
X133379788Y-88610106D01*
X133379792Y-88610104D01*
X133530104Y-88459792D01*
X133530106Y-88459788D01*
X133530109Y-88459786D01*
X133655048Y-88287820D01*
X133655047Y-88287820D01*
X133655051Y-88287816D01*
X133751557Y-88098412D01*
X133817246Y-87896243D01*
X133850500Y-87686287D01*
X133850500Y-87473713D01*
X133817246Y-87263757D01*
X133751557Y-87061588D01*
X133655051Y-86872184D01*
X133655049Y-86872181D01*
X133655048Y-86872179D01*
X133530109Y-86700213D01*
X133379786Y-86549890D01*
X133207820Y-86424951D01*
X133207115Y-86424591D01*
X133199054Y-86420485D01*
X133148259Y-86372512D01*
X133131463Y-86304692D01*
X133153999Y-86238556D01*
X133199054Y-86199515D01*
X133207816Y-86195051D01*
X133272373Y-86148148D01*
X133379786Y-86070109D01*
X133379788Y-86070106D01*
X133379792Y-86070104D01*
X133530104Y-85919792D01*
X133530106Y-85919788D01*
X133530109Y-85919786D01*
X133655048Y-85747820D01*
X133655047Y-85747820D01*
X133655051Y-85747816D01*
X133751557Y-85558412D01*
X133817246Y-85356243D01*
X133850500Y-85146287D01*
X133850500Y-84933713D01*
X133817246Y-84723757D01*
X133751557Y-84521588D01*
X133655051Y-84332184D01*
X133655049Y-84332181D01*
X133655048Y-84332179D01*
X133530109Y-84160213D01*
X133379786Y-84009890D01*
X133207820Y-83884951D01*
X133207115Y-83884591D01*
X133199054Y-83880485D01*
X133148259Y-83832512D01*
X133131463Y-83764692D01*
X133153999Y-83698556D01*
X133199054Y-83659515D01*
X133207816Y-83655051D01*
X133229789Y-83639086D01*
X133379786Y-83530109D01*
X133379788Y-83530106D01*
X133379792Y-83530104D01*
X133530104Y-83379792D01*
X133530106Y-83379788D01*
X133530109Y-83379786D01*
X133655048Y-83207820D01*
X133655047Y-83207820D01*
X133655051Y-83207816D01*
X133751557Y-83018412D01*
X133817246Y-82816243D01*
X133850500Y-82606287D01*
X133850500Y-82393713D01*
X133817246Y-82183757D01*
X133751557Y-81981588D01*
X133655051Y-81792184D01*
X133655049Y-81792181D01*
X133655048Y-81792179D01*
X133530109Y-81620213D01*
X133379786Y-81469890D01*
X133207817Y-81344949D01*
X133198504Y-81340204D01*
X133147707Y-81292230D01*
X133130912Y-81224409D01*
X133153449Y-81158274D01*
X133198507Y-81119232D01*
X133207555Y-81114622D01*
X133261716Y-81075270D01*
X133261717Y-81075270D01*
X132629408Y-80442962D01*
X132692993Y-80425925D01*
X132807007Y-80360099D01*
X132900099Y-80267007D01*
X132965925Y-80152993D01*
X132982962Y-80089409D01*
X133615270Y-80721717D01*
X133615270Y-80721716D01*
X133654622Y-80667554D01*
X133751095Y-80478217D01*
X133816757Y-80276130D01*
X133816757Y-80276127D01*
X133850000Y-80066246D01*
X133850000Y-79853753D01*
X133816757Y-79643872D01*
X133816757Y-79643869D01*
X133751095Y-79441782D01*
X133654624Y-79252449D01*
X133615270Y-79198282D01*
X133615269Y-79198282D01*
X132982962Y-79830590D01*
X132965925Y-79767007D01*
X132900099Y-79652993D01*
X132807007Y-79559901D01*
X132692993Y-79494075D01*
X132629409Y-79477037D01*
X133299627Y-78806818D01*
X133360950Y-78773333D01*
X133387307Y-78770499D01*
X133397872Y-78770499D01*
X133457483Y-78764091D01*
X133592331Y-78713796D01*
X133707546Y-78627546D01*
X133793796Y-78512331D01*
X133844091Y-78377483D01*
X133850500Y-78317873D01*
X133850499Y-76522135D01*
X156549500Y-76522135D01*
X156549500Y-78317870D01*
X156549501Y-78317876D01*
X156555908Y-78377483D01*
X156606202Y-78512328D01*
X156606206Y-78512335D01*
X156692452Y-78627544D01*
X156692455Y-78627547D01*
X156807664Y-78713793D01*
X156807671Y-78713797D01*
X156852618Y-78730561D01*
X156942517Y-78764091D01*
X157002127Y-78770500D01*
X157012685Y-78770499D01*
X157079723Y-78790179D01*
X157100372Y-78806818D01*
X157770591Y-79477037D01*
X157707007Y-79494075D01*
X157592993Y-79559901D01*
X157499901Y-79652993D01*
X157434075Y-79767007D01*
X157417037Y-79830591D01*
X156784728Y-79198282D01*
X156784727Y-79198282D01*
X156745380Y-79252439D01*
X156648904Y-79441782D01*
X156583242Y-79643869D01*
X156583242Y-79643872D01*
X156550000Y-79853753D01*
X156550000Y-80066246D01*
X156583242Y-80276127D01*
X156583242Y-80276130D01*
X156648904Y-80478217D01*
X156745375Y-80667550D01*
X156784728Y-80721716D01*
X157417037Y-80089408D01*
X157434075Y-80152993D01*
X157499901Y-80267007D01*
X157592993Y-80360099D01*
X157707007Y-80425925D01*
X157770590Y-80442962D01*
X157138282Y-81075269D01*
X157138282Y-81075270D01*
X157192452Y-81114626D01*
X157192451Y-81114626D01*
X157201495Y-81119234D01*
X157252292Y-81167208D01*
X157269087Y-81235029D01*
X157246550Y-81301164D01*
X157201499Y-81340202D01*
X157192182Y-81344949D01*
X157020213Y-81469890D01*
X156869890Y-81620213D01*
X156744951Y-81792179D01*
X156648444Y-81981585D01*
X156582753Y-82183760D01*
X156549500Y-82393713D01*
X156549500Y-82606286D01*
X156582753Y-82816239D01*
X156648444Y-83018414D01*
X156744951Y-83207820D01*
X156869890Y-83379786D01*
X157020213Y-83530109D01*
X157192182Y-83655050D01*
X157200946Y-83659516D01*
X157251742Y-83707491D01*
X157268536Y-83775312D01*
X157245998Y-83841447D01*
X157200946Y-83880484D01*
X157192182Y-83884949D01*
X157020213Y-84009890D01*
X156869890Y-84160213D01*
X156744951Y-84332179D01*
X156648444Y-84521585D01*
X156582753Y-84723760D01*
X156549500Y-84933713D01*
X156549500Y-85146286D01*
X156565621Y-85248074D01*
X156582754Y-85356243D01*
X156643163Y-85542163D01*
X156648444Y-85558414D01*
X156744951Y-85747820D01*
X156869890Y-85919786D01*
X157020213Y-86070109D01*
X157192182Y-86195050D01*
X157200946Y-86199516D01*
X157251742Y-86247491D01*
X157268536Y-86315312D01*
X157245998Y-86381447D01*
X157200946Y-86420484D01*
X157192182Y-86424949D01*
X157020213Y-86549890D01*
X156869890Y-86700213D01*
X156744951Y-86872179D01*
X156648444Y-87061585D01*
X156582753Y-87263760D01*
X156549500Y-87473713D01*
X156549500Y-87686287D01*
X156582754Y-87896243D01*
X156615537Y-87997139D01*
X156648444Y-88098414D01*
X156744951Y-88287820D01*
X156869890Y-88459786D01*
X157020213Y-88610109D01*
X157192182Y-88735050D01*
X157200946Y-88739516D01*
X157251742Y-88787491D01*
X157268536Y-88855312D01*
X157245998Y-88921447D01*
X157200946Y-88960484D01*
X157192182Y-88964949D01*
X157020213Y-89089890D01*
X156869890Y-89240213D01*
X156744951Y-89412179D01*
X156648444Y-89601585D01*
X156582753Y-89803760D01*
X156575883Y-89847137D01*
X156549500Y-90013713D01*
X156549500Y-90226287D01*
X156582754Y-90436243D01*
X156602844Y-90498074D01*
X156648444Y-90638414D01*
X156744951Y-90827820D01*
X156869890Y-90999786D01*
X157020213Y-91150109D01*
X157192182Y-91275050D01*
X157200946Y-91279516D01*
X157251742Y-91327491D01*
X157268536Y-91395312D01*
X157245998Y-91461447D01*
X157200946Y-91500484D01*
X157192182Y-91504949D01*
X157020213Y-91629890D01*
X156869890Y-91780213D01*
X156744951Y-91952179D01*
X156648444Y-92141585D01*
X156582753Y-92343760D01*
X156549500Y-92553713D01*
X156549500Y-92766286D01*
X156582753Y-92976239D01*
X156648444Y-93178414D01*
X156744951Y-93367820D01*
X156869890Y-93539786D01*
X157020213Y-93690109D01*
X157192182Y-93815050D01*
X157200946Y-93819516D01*
X157251742Y-93867491D01*
X157268536Y-93935312D01*
X157245998Y-94001447D01*
X157200946Y-94040484D01*
X157192182Y-94044949D01*
X157020213Y-94169890D01*
X156869890Y-94320213D01*
X156744951Y-94492179D01*
X156648444Y-94681585D01*
X156582753Y-94883760D01*
X156549500Y-95093713D01*
X156549500Y-95306286D01*
X156582753Y-95516239D01*
X156648444Y-95718414D01*
X156744951Y-95907820D01*
X156869890Y-96079786D01*
X157020213Y-96230109D01*
X157192182Y-96355050D01*
X157200946Y-96359516D01*
X157251742Y-96407491D01*
X157268536Y-96475312D01*
X157245998Y-96541447D01*
X157200946Y-96580484D01*
X157192182Y-96584949D01*
X157020213Y-96709890D01*
X156869890Y-96860213D01*
X156744951Y-97032179D01*
X156648444Y-97221585D01*
X156582753Y-97423760D01*
X156549500Y-97633713D01*
X156549500Y-97846286D01*
X156582753Y-98056239D01*
X156648444Y-98258414D01*
X156744951Y-98447820D01*
X156869890Y-98619786D01*
X157020213Y-98770109D01*
X157192182Y-98895050D01*
X157200946Y-98899516D01*
X157251742Y-98947491D01*
X157268536Y-99015312D01*
X157245998Y-99081447D01*
X157200946Y-99120484D01*
X157192182Y-99124949D01*
X157020213Y-99249890D01*
X156869890Y-99400213D01*
X156744951Y-99572179D01*
X156648444Y-99761585D01*
X156582753Y-99963760D01*
X156549500Y-100173713D01*
X156549500Y-100386286D01*
X156582753Y-100596239D01*
X156648444Y-100798414D01*
X156744951Y-100987820D01*
X156869890Y-101159786D01*
X157020213Y-101310109D01*
X157192182Y-101435050D01*
X157200946Y-101439516D01*
X157251742Y-101487491D01*
X157268536Y-101555312D01*
X157245998Y-101621447D01*
X157200946Y-101660484D01*
X157192182Y-101664949D01*
X157020213Y-101789890D01*
X156869890Y-101940213D01*
X156744951Y-102112179D01*
X156648444Y-102301585D01*
X156582753Y-102503760D01*
X156549500Y-102713713D01*
X156549500Y-102926286D01*
X156582753Y-103136239D01*
X156648444Y-103338414D01*
X156744951Y-103527820D01*
X156869890Y-103699786D01*
X157020213Y-103850109D01*
X157192182Y-103975050D01*
X157200946Y-103979516D01*
X157251742Y-104027491D01*
X157268536Y-104095312D01*
X157245998Y-104161447D01*
X157200946Y-104200484D01*
X157192182Y-104204949D01*
X157020213Y-104329890D01*
X156869890Y-104480213D01*
X156744951Y-104652179D01*
X156648444Y-104841585D01*
X156582753Y-105043760D01*
X156549500Y-105253713D01*
X156549500Y-105466286D01*
X156582753Y-105676239D01*
X156648444Y-105878414D01*
X156744951Y-106067820D01*
X156869890Y-106239786D01*
X157020213Y-106390109D01*
X157192182Y-106515050D01*
X157200946Y-106519516D01*
X157251742Y-106567491D01*
X157268536Y-106635312D01*
X157245998Y-106701447D01*
X157200946Y-106740484D01*
X157192182Y-106744949D01*
X157020213Y-106869890D01*
X156869890Y-107020213D01*
X156744951Y-107192179D01*
X156648444Y-107381585D01*
X156582753Y-107583760D01*
X156549500Y-107793713D01*
X156549500Y-108006286D01*
X156582753Y-108216239D01*
X156648444Y-108418414D01*
X156744951Y-108607820D01*
X156869890Y-108779786D01*
X157020213Y-108930109D01*
X157192182Y-109055050D01*
X157200946Y-109059516D01*
X157251742Y-109107491D01*
X157268536Y-109175312D01*
X157245998Y-109241447D01*
X157200946Y-109280484D01*
X157192182Y-109284949D01*
X157020213Y-109409890D01*
X156869890Y-109560213D01*
X156744951Y-109732179D01*
X156648444Y-109921585D01*
X156582753Y-110123760D01*
X156549500Y-110333713D01*
X156549500Y-110546286D01*
X156582753Y-110756239D01*
X156648444Y-110958414D01*
X156744951Y-111147820D01*
X156869890Y-111319786D01*
X157020213Y-111470109D01*
X157192182Y-111595050D01*
X157200946Y-111599516D01*
X157251742Y-111647491D01*
X157268536Y-111715312D01*
X157245998Y-111781447D01*
X157200946Y-111820484D01*
X157192182Y-111824949D01*
X157020213Y-111949890D01*
X156869890Y-112100213D01*
X156744951Y-112272179D01*
X156648444Y-112461585D01*
X156582753Y-112663760D01*
X156549500Y-112873713D01*
X156549500Y-113086286D01*
X156582753Y-113296239D01*
X156648444Y-113498414D01*
X156744951Y-113687820D01*
X156869890Y-113859786D01*
X157020213Y-114010109D01*
X157192179Y-114135048D01*
X157192181Y-114135049D01*
X157192184Y-114135051D01*
X157381588Y-114231557D01*
X157583757Y-114297246D01*
X157793713Y-114330500D01*
X157793714Y-114330500D01*
X158006286Y-114330500D01*
X158006287Y-114330500D01*
X158216243Y-114297246D01*
X158418412Y-114231557D01*
X158607816Y-114135051D01*
X158629789Y-114119086D01*
X158779786Y-114010109D01*
X158779788Y-114010106D01*
X158779792Y-114010104D01*
X158930104Y-113859792D01*
X158930106Y-113859788D01*
X158930109Y-113859786D01*
X159055048Y-113687820D01*
X159055047Y-113687820D01*
X159055051Y-113687816D01*
X159151557Y-113498412D01*
X159217246Y-113296243D01*
X159250500Y-113086287D01*
X159250500Y-112873713D01*
X159217246Y-112663757D01*
X159151557Y-112461588D01*
X159055051Y-112272184D01*
X159055049Y-112272181D01*
X159055048Y-112272179D01*
X158930109Y-112100213D01*
X158779786Y-111949890D01*
X158607820Y-111824951D01*
X158607115Y-111824591D01*
X158599054Y-111820485D01*
X158548259Y-111772512D01*
X158531463Y-111704692D01*
X158553999Y-111638556D01*
X158599054Y-111599515D01*
X158607816Y-111595051D01*
X158629789Y-111579086D01*
X158779786Y-111470109D01*
X158779788Y-111470106D01*
X158779792Y-111470104D01*
X158930104Y-111319792D01*
X158930106Y-111319788D01*
X158930109Y-111319786D01*
X159055048Y-111147820D01*
X159055047Y-111147820D01*
X159055051Y-111147816D01*
X159151557Y-110958412D01*
X159217246Y-110756243D01*
X159250500Y-110546287D01*
X159250500Y-110333713D01*
X159217246Y-110123757D01*
X159151557Y-109921588D01*
X159055051Y-109732184D01*
X159055049Y-109732181D01*
X159055048Y-109732179D01*
X158930109Y-109560213D01*
X158779786Y-109409890D01*
X158607820Y-109284951D01*
X158607115Y-109284591D01*
X158599054Y-109280485D01*
X158548259Y-109232512D01*
X158531463Y-109164692D01*
X158553999Y-109098556D01*
X158599054Y-109059515D01*
X158607816Y-109055051D01*
X158629789Y-109039086D01*
X158779786Y-108930109D01*
X158779788Y-108930106D01*
X158779792Y-108930104D01*
X158930104Y-108779792D01*
X158930106Y-108779788D01*
X158930109Y-108779786D01*
X159055048Y-108607820D01*
X159055047Y-108607820D01*
X159055051Y-108607816D01*
X159151557Y-108418412D01*
X159217246Y-108216243D01*
X159250500Y-108006287D01*
X159250500Y-107793713D01*
X159217246Y-107583757D01*
X159151557Y-107381588D01*
X159055051Y-107192184D01*
X159055049Y-107192181D01*
X159055048Y-107192179D01*
X158930109Y-107020213D01*
X158779786Y-106869890D01*
X158607820Y-106744951D01*
X158607115Y-106744591D01*
X158599054Y-106740485D01*
X158548259Y-106692512D01*
X158531463Y-106624692D01*
X158553999Y-106558556D01*
X158599054Y-106519515D01*
X158607816Y-106515051D01*
X158629789Y-106499086D01*
X158779786Y-106390109D01*
X158779788Y-106390106D01*
X158779792Y-106390104D01*
X158930104Y-106239792D01*
X158930106Y-106239788D01*
X158930109Y-106239786D01*
X159055048Y-106067820D01*
X159055047Y-106067820D01*
X159055051Y-106067816D01*
X159151557Y-105878412D01*
X159217246Y-105676243D01*
X159250500Y-105466287D01*
X159250500Y-105253713D01*
X159217246Y-105043757D01*
X159151557Y-104841588D01*
X159055051Y-104652184D01*
X159055049Y-104652181D01*
X159055048Y-104652179D01*
X158930109Y-104480213D01*
X158779786Y-104329890D01*
X158607820Y-104204951D01*
X158607115Y-104204591D01*
X158599054Y-104200485D01*
X158548259Y-104152512D01*
X158531463Y-104084692D01*
X158553999Y-104018556D01*
X158599054Y-103979515D01*
X158607816Y-103975051D01*
X158629789Y-103959086D01*
X158779786Y-103850109D01*
X158779788Y-103850106D01*
X158779792Y-103850104D01*
X158930104Y-103699792D01*
X158930106Y-103699788D01*
X158930109Y-103699786D01*
X159055048Y-103527820D01*
X159055047Y-103527820D01*
X159055051Y-103527816D01*
X159151557Y-103338412D01*
X159217246Y-103136243D01*
X159250500Y-102926287D01*
X159250500Y-102713713D01*
X159217246Y-102503757D01*
X159151557Y-102301588D01*
X159055051Y-102112184D01*
X159055049Y-102112181D01*
X159055048Y-102112179D01*
X158930109Y-101940213D01*
X158779786Y-101789890D01*
X158607820Y-101664951D01*
X158607115Y-101664591D01*
X158599054Y-101660485D01*
X158548259Y-101612512D01*
X158531463Y-101544692D01*
X158553999Y-101478556D01*
X158599054Y-101439515D01*
X158607816Y-101435051D01*
X158629789Y-101419086D01*
X158779786Y-101310109D01*
X158779788Y-101310106D01*
X158779792Y-101310104D01*
X158930104Y-101159792D01*
X158930106Y-101159788D01*
X158930109Y-101159786D01*
X159055048Y-100987820D01*
X159055047Y-100987820D01*
X159055051Y-100987816D01*
X159151557Y-100798412D01*
X159217246Y-100596243D01*
X159250500Y-100386287D01*
X159250500Y-100173713D01*
X159217246Y-99963757D01*
X159151557Y-99761588D01*
X159055051Y-99572184D01*
X159055049Y-99572181D01*
X159055048Y-99572179D01*
X158930109Y-99400213D01*
X158779786Y-99249890D01*
X158607820Y-99124951D01*
X158607115Y-99124591D01*
X158599054Y-99120485D01*
X158548259Y-99072512D01*
X158531463Y-99004692D01*
X158553999Y-98938556D01*
X158599054Y-98899515D01*
X158607816Y-98895051D01*
X158629833Y-98879055D01*
X158779786Y-98770109D01*
X158779788Y-98770106D01*
X158779792Y-98770104D01*
X158930104Y-98619792D01*
X158930106Y-98619788D01*
X158930109Y-98619786D01*
X159055048Y-98447820D01*
X159055047Y-98447820D01*
X159055051Y-98447816D01*
X159151557Y-98258412D01*
X159217246Y-98056243D01*
X159250500Y-97846287D01*
X159250500Y-97633713D01*
X159217246Y-97423757D01*
X159151557Y-97221588D01*
X159055051Y-97032184D01*
X159055049Y-97032181D01*
X159055048Y-97032179D01*
X158930109Y-96860213D01*
X158779786Y-96709890D01*
X158607820Y-96584951D01*
X158607115Y-96584591D01*
X158599054Y-96580485D01*
X158548259Y-96532512D01*
X158531463Y-96464692D01*
X158553999Y-96398556D01*
X158599054Y-96359515D01*
X158607816Y-96355051D01*
X158629789Y-96339086D01*
X158779786Y-96230109D01*
X158779788Y-96230106D01*
X158779792Y-96230104D01*
X158930104Y-96079792D01*
X158930106Y-96079788D01*
X158930109Y-96079786D01*
X159055048Y-95907820D01*
X159055047Y-95907820D01*
X159055051Y-95907816D01*
X159151557Y-95718412D01*
X159217246Y-95516243D01*
X159250500Y-95306287D01*
X159250500Y-95093713D01*
X159217246Y-94883757D01*
X159151557Y-94681588D01*
X159055051Y-94492184D01*
X159055049Y-94492181D01*
X159055048Y-94492179D01*
X158930109Y-94320213D01*
X158779786Y-94169890D01*
X158607820Y-94044951D01*
X158607115Y-94044591D01*
X158599054Y-94040485D01*
X158548259Y-93992512D01*
X158531463Y-93924692D01*
X158553999Y-93858556D01*
X158599054Y-93819515D01*
X158607816Y-93815051D01*
X158629789Y-93799086D01*
X158779786Y-93690109D01*
X158779788Y-93690106D01*
X158779792Y-93690104D01*
X158930104Y-93539792D01*
X158930106Y-93539788D01*
X158930109Y-93539786D01*
X159055048Y-93367820D01*
X159055047Y-93367820D01*
X159055051Y-93367816D01*
X159151557Y-93178412D01*
X159217246Y-92976243D01*
X159250500Y-92766287D01*
X159250500Y-92553713D01*
X159217246Y-92343757D01*
X159151557Y-92141588D01*
X159055051Y-91952184D01*
X159055049Y-91952181D01*
X159055048Y-91952179D01*
X158930109Y-91780213D01*
X158779786Y-91629890D01*
X158607820Y-91504951D01*
X158607115Y-91504591D01*
X158599054Y-91500485D01*
X158548259Y-91452512D01*
X158531463Y-91384692D01*
X158553999Y-91318556D01*
X158599054Y-91279515D01*
X158607816Y-91275051D01*
X158629789Y-91259086D01*
X158779786Y-91150109D01*
X158779788Y-91150106D01*
X158779792Y-91150104D01*
X158930104Y-90999792D01*
X158930106Y-90999788D01*
X158930109Y-90999786D01*
X159055048Y-90827820D01*
X159055047Y-90827820D01*
X159055051Y-90827816D01*
X159151557Y-90638412D01*
X159217246Y-90436243D01*
X159250500Y-90226287D01*
X159250500Y-90013713D01*
X159217246Y-89803757D01*
X159151557Y-89601588D01*
X159055051Y-89412184D01*
X159055049Y-89412181D01*
X159055048Y-89412179D01*
X158930109Y-89240213D01*
X158779786Y-89089890D01*
X158607820Y-88964951D01*
X158607115Y-88964591D01*
X158599054Y-88960485D01*
X158548259Y-88912512D01*
X158531463Y-88844692D01*
X158553999Y-88778556D01*
X158599054Y-88739515D01*
X158607816Y-88735051D01*
X158629789Y-88719086D01*
X158779786Y-88610109D01*
X158779788Y-88610106D01*
X158779792Y-88610104D01*
X158930104Y-88459792D01*
X158930106Y-88459788D01*
X158930109Y-88459786D01*
X159055048Y-88287820D01*
X159055047Y-88287820D01*
X159055051Y-88287816D01*
X159151557Y-88098412D01*
X159217246Y-87896243D01*
X159250500Y-87686287D01*
X159250500Y-87473713D01*
X159217246Y-87263757D01*
X159151557Y-87061588D01*
X159055051Y-86872184D01*
X159055049Y-86872181D01*
X159055048Y-86872179D01*
X158930109Y-86700213D01*
X158779786Y-86549890D01*
X158607820Y-86424951D01*
X158607115Y-86424591D01*
X158599054Y-86420485D01*
X158548259Y-86372512D01*
X158531463Y-86304692D01*
X158553999Y-86238556D01*
X158599054Y-86199515D01*
X158607816Y-86195051D01*
X158672373Y-86148148D01*
X158779786Y-86070109D01*
X158779788Y-86070106D01*
X158779792Y-86070104D01*
X158930104Y-85919792D01*
X158930106Y-85919788D01*
X158930109Y-85919786D01*
X159055048Y-85747820D01*
X159055047Y-85747820D01*
X159055051Y-85747816D01*
X159151557Y-85558412D01*
X159217246Y-85356243D01*
X159250500Y-85146287D01*
X159250500Y-84933713D01*
X159217246Y-84723757D01*
X159151557Y-84521588D01*
X159055051Y-84332184D01*
X159055049Y-84332181D01*
X159055048Y-84332179D01*
X158930109Y-84160213D01*
X158779786Y-84009890D01*
X158607820Y-83884951D01*
X158607115Y-83884591D01*
X158599054Y-83880485D01*
X158548259Y-83832512D01*
X158531463Y-83764692D01*
X158553999Y-83698556D01*
X158599054Y-83659515D01*
X158607816Y-83655051D01*
X158629789Y-83639086D01*
X158779786Y-83530109D01*
X158779788Y-83530106D01*
X158779792Y-83530104D01*
X158930104Y-83379792D01*
X158930106Y-83379788D01*
X158930109Y-83379786D01*
X159055048Y-83207820D01*
X159055047Y-83207820D01*
X159055051Y-83207816D01*
X159151557Y-83018412D01*
X159217246Y-82816243D01*
X159250500Y-82606287D01*
X159250500Y-82393713D01*
X159217246Y-82183757D01*
X159151557Y-81981588D01*
X159055051Y-81792184D01*
X159055049Y-81792181D01*
X159055048Y-81792179D01*
X158930109Y-81620213D01*
X158779786Y-81469890D01*
X158607817Y-81344949D01*
X158598504Y-81340204D01*
X158547707Y-81292230D01*
X158530912Y-81224409D01*
X158553449Y-81158274D01*
X158598507Y-81119232D01*
X158607555Y-81114622D01*
X158661716Y-81075270D01*
X158661717Y-81075270D01*
X158029408Y-80442962D01*
X158092993Y-80425925D01*
X158207007Y-80360099D01*
X158300099Y-80267007D01*
X158365925Y-80152993D01*
X158382962Y-80089408D01*
X159015270Y-80721717D01*
X159015270Y-80721716D01*
X159054622Y-80667554D01*
X159151095Y-80478217D01*
X159216757Y-80276130D01*
X159216757Y-80276127D01*
X159250000Y-80066246D01*
X159250000Y-79853753D01*
X159216757Y-79643872D01*
X159216757Y-79643869D01*
X159151095Y-79441782D01*
X159054624Y-79252449D01*
X159015270Y-79198282D01*
X159015269Y-79198282D01*
X158382962Y-79830590D01*
X158365925Y-79767007D01*
X158300099Y-79652993D01*
X158207007Y-79559901D01*
X158092993Y-79494075D01*
X158029409Y-79477037D01*
X158699627Y-78806818D01*
X158760950Y-78773333D01*
X158787307Y-78770499D01*
X158797872Y-78770499D01*
X158857483Y-78764091D01*
X158992331Y-78713796D01*
X159107546Y-78627546D01*
X159193796Y-78512331D01*
X159244091Y-78377483D01*
X159250500Y-78317873D01*
X159250499Y-76522128D01*
X159244091Y-76462517D01*
X159227418Y-76417815D01*
X159193797Y-76327671D01*
X159193793Y-76327664D01*
X159107547Y-76212455D01*
X159107544Y-76212452D01*
X158992335Y-76126206D01*
X158992328Y-76126202D01*
X158857482Y-76075908D01*
X158857483Y-76075908D01*
X158797883Y-76069501D01*
X158797881Y-76069500D01*
X158797873Y-76069500D01*
X158797864Y-76069500D01*
X157002129Y-76069500D01*
X157002123Y-76069501D01*
X156942516Y-76075908D01*
X156807671Y-76126202D01*
X156807664Y-76126206D01*
X156692455Y-76212452D01*
X156692452Y-76212455D01*
X156606206Y-76327664D01*
X156606202Y-76327671D01*
X156555908Y-76462517D01*
X156549501Y-76522116D01*
X156549501Y-76522123D01*
X156549500Y-76522135D01*
X133850499Y-76522135D01*
X133850499Y-76522128D01*
X133844091Y-76462517D01*
X133827418Y-76417815D01*
X133793797Y-76327671D01*
X133793793Y-76327664D01*
X133707547Y-76212455D01*
X133707544Y-76212452D01*
X133592335Y-76126206D01*
X133592328Y-76126202D01*
X133457482Y-76075908D01*
X133457483Y-76075908D01*
X133397883Y-76069501D01*
X133397881Y-76069500D01*
X133397873Y-76069500D01*
X133397864Y-76069500D01*
X131602129Y-76069500D01*
X131602123Y-76069501D01*
X131542516Y-76075908D01*
X131407671Y-76126202D01*
X131407664Y-76126206D01*
X131292455Y-76212452D01*
X131292452Y-76212455D01*
X131206206Y-76327664D01*
X131206202Y-76327671D01*
X131155908Y-76462517D01*
X131149501Y-76522116D01*
X131149501Y-76522123D01*
X131149500Y-76522135D01*
X121700500Y-76522135D01*
X121700500Y-76193435D01*
X121720185Y-76126396D01*
X121772989Y-76080641D01*
X121842147Y-76070697D01*
X121905703Y-76099722D01*
X121927601Y-76124543D01*
X121933619Y-76133549D01*
X121939375Y-76142164D01*
X122057837Y-76260626D01*
X122150494Y-76322537D01*
X122197137Y-76353703D01*
X122351918Y-76417816D01*
X122516228Y-76450499D01*
X122516232Y-76450500D01*
X122516233Y-76450500D01*
X122683768Y-76450500D01*
X122683769Y-76450499D01*
X122848082Y-76417816D01*
X123002863Y-76353703D01*
X123142162Y-76260626D01*
X123260626Y-76142162D01*
X123353703Y-76002863D01*
X123417816Y-75848082D01*
X123450500Y-75683767D01*
X123450500Y-75650097D01*
X123470185Y-75583058D01*
X123486819Y-75562416D01*
X127312416Y-71736819D01*
X127373739Y-71703334D01*
X127400097Y-71700500D01*
X137546349Y-71700500D01*
X137613388Y-71720185D01*
X137634030Y-71736819D01*
X137657837Y-71760626D01*
X137750494Y-71822537D01*
X137797137Y-71853703D01*
X137951918Y-71917816D01*
X138116228Y-71950499D01*
X138116232Y-71950500D01*
X138116233Y-71950500D01*
X138283768Y-71950500D01*
X138283769Y-71950499D01*
X138448082Y-71917816D01*
X138602863Y-71853703D01*
X138742162Y-71760626D01*
X138860626Y-71642162D01*
X138953703Y-71502863D01*
X139017816Y-71348082D01*
X139050500Y-71183767D01*
X139050500Y-71016233D01*
X139017816Y-70851918D01*
X138953703Y-70697137D01*
X138860627Y-70557839D01*
X138860626Y-70557837D01*
X138742162Y-70439373D01*
X138602860Y-70346295D01*
X138448082Y-70282184D01*
X138448074Y-70282182D01*
X138283771Y-70249500D01*
X138283767Y-70249500D01*
X138116233Y-70249500D01*
X138116228Y-70249500D01*
X137951925Y-70282182D01*
X137951917Y-70282184D01*
X137797139Y-70346295D01*
X137657837Y-70439373D01*
X137657834Y-70439376D01*
X137634030Y-70463181D01*
X137572707Y-70496666D01*
X137546349Y-70499500D01*
X127186669Y-70499500D01*
X127186653Y-70499499D01*
X127179057Y-70499499D01*
X127020943Y-70499499D01*
X126941010Y-70520917D01*
X126868216Y-70540422D01*
X126838050Y-70557839D01*
X126838049Y-70557838D01*
X126731287Y-70619477D01*
X126731282Y-70619481D01*
X126619478Y-70731286D01*
X122637584Y-74713181D01*
X122576261Y-74746666D01*
X122549903Y-74749500D01*
X122516228Y-74749500D01*
X122351925Y-74782182D01*
X122351917Y-74782184D01*
X122197139Y-74846295D01*
X122057837Y-74939373D01*
X121939376Y-75057834D01*
X121939371Y-75057840D01*
X121927601Y-75075456D01*
X121901590Y-75097192D01*
X121876011Y-75119358D01*
X121874872Y-75119521D01*
X121873989Y-75120260D01*
X121840384Y-75124480D01*
X121806853Y-75129302D01*
X121805805Y-75128823D01*
X121804664Y-75128967D01*
X121774109Y-75114348D01*
X121743297Y-75100277D01*
X121742674Y-75099309D01*
X121741636Y-75098812D01*
X121723833Y-75069991D01*
X121705523Y-75041499D01*
X121705307Y-75039998D01*
X121704918Y-75039368D01*
X121700500Y-75006564D01*
X121700500Y-74820101D01*
X121720185Y-74753062D01*
X121721398Y-74751210D01*
X121724434Y-74746666D01*
X121753703Y-74702863D01*
X121817816Y-74548082D01*
X121850500Y-74383767D01*
X121850500Y-74216233D01*
X121817816Y-74051918D01*
X121753703Y-73897137D01*
X121722537Y-73850494D01*
X121660626Y-73757837D01*
X121542162Y-73639373D01*
X121402860Y-73546295D01*
X121248082Y-73482184D01*
X121248074Y-73482182D01*
X121083771Y-73449500D01*
X121083767Y-73449500D01*
X120916233Y-73449500D01*
X120916228Y-73449500D01*
X120751925Y-73482182D01*
X120751917Y-73482184D01*
X120597139Y-73546295D01*
X120457837Y-73639373D01*
X120339373Y-73757837D01*
X120246295Y-73897139D01*
X120182184Y-74051917D01*
X120182182Y-74051925D01*
X120149500Y-74216228D01*
X120149500Y-74383771D01*
X120182182Y-74548074D01*
X120182184Y-74548082D01*
X120246295Y-74702860D01*
X120278602Y-74751210D01*
X120299480Y-74817887D01*
X120299500Y-74820101D01*
X120299500Y-77446534D01*
X120279815Y-77513573D01*
X120261375Y-77534296D01*
X120262145Y-77535066D01*
X120139376Y-77657834D01*
X120139373Y-77657837D01*
X120046295Y-77797139D01*
X119982184Y-77951917D01*
X119982182Y-77951925D01*
X119949500Y-78116228D01*
X118500500Y-78116228D01*
X118500500Y-69853933D01*
X118520185Y-69786894D01*
X118572989Y-69741139D01*
X118642147Y-69731195D01*
X118705703Y-69760220D01*
X118712181Y-69766252D01*
X118854715Y-69908786D01*
X118854719Y-69908789D01*
X119018580Y-70018278D01*
X119018593Y-70018285D01*
X119200661Y-70093699D01*
X119200666Y-70093701D01*
X119200670Y-70093701D01*
X119200671Y-70093702D01*
X119393957Y-70132150D01*
X119393960Y-70132150D01*
X119591044Y-70132150D01*
X119721083Y-70106282D01*
X119784336Y-70093701D01*
X119966415Y-70018282D01*
X120130283Y-69908789D01*
X120269640Y-69769432D01*
X120379133Y-69605564D01*
X120454552Y-69423485D01*
X120493001Y-69230193D01*
X127132000Y-69230193D01*
X127170448Y-69423479D01*
X127170451Y-69423489D01*
X127245865Y-69605557D01*
X127245872Y-69605570D01*
X127355361Y-69769431D01*
X127355364Y-69769435D01*
X127494715Y-69908786D01*
X127494719Y-69908789D01*
X127658580Y-70018278D01*
X127658593Y-70018285D01*
X127840661Y-70093699D01*
X127840666Y-70093701D01*
X127840670Y-70093701D01*
X127840671Y-70093702D01*
X128033957Y-70132150D01*
X128033960Y-70132150D01*
X128231044Y-70132150D01*
X128361083Y-70106282D01*
X128424336Y-70093701D01*
X128606415Y-70018282D01*
X128770283Y-69908789D01*
X128909640Y-69769432D01*
X129019133Y-69605564D01*
X129094552Y-69423485D01*
X129133001Y-69230191D01*
X129133001Y-68433109D01*
X129133001Y-68433106D01*
X129094553Y-68239820D01*
X129094552Y-68239819D01*
X129094552Y-68239815D01*
X129094550Y-68239810D01*
X129019136Y-68057742D01*
X129019129Y-68057729D01*
X128909640Y-67893868D01*
X128909637Y-67893864D01*
X128770286Y-67754513D01*
X128770282Y-67754510D01*
X128606421Y-67645021D01*
X128606408Y-67645014D01*
X128424340Y-67569600D01*
X128424330Y-67569597D01*
X128231044Y-67531150D01*
X128231042Y-67531150D01*
X128033960Y-67531150D01*
X128033958Y-67531150D01*
X127840671Y-67569597D01*
X127840661Y-67569600D01*
X127658593Y-67645014D01*
X127658580Y-67645021D01*
X127494719Y-67754510D01*
X127494715Y-67754513D01*
X127355364Y-67893864D01*
X127355361Y-67893868D01*
X127245872Y-68057729D01*
X127245865Y-68057742D01*
X127170451Y-68239810D01*
X127170448Y-68239820D01*
X127132001Y-68433106D01*
X127132001Y-68433109D01*
X127132001Y-69230191D01*
X127132001Y-69230193D01*
X127132000Y-69230193D01*
X120493001Y-69230193D01*
X120493001Y-69230191D01*
X120493001Y-68433109D01*
X120493001Y-68433106D01*
X120454553Y-68239820D01*
X120454552Y-68239819D01*
X120454552Y-68239815D01*
X120454550Y-68239810D01*
X120379136Y-68057742D01*
X120379129Y-68057729D01*
X120269640Y-67893868D01*
X120269637Y-67893864D01*
X120130286Y-67754513D01*
X120130282Y-67754510D01*
X119966421Y-67645021D01*
X119966408Y-67645014D01*
X119784340Y-67569600D01*
X119784330Y-67569597D01*
X119591044Y-67531150D01*
X119591042Y-67531150D01*
X119393960Y-67531150D01*
X119393958Y-67531150D01*
X119200671Y-67569597D01*
X119200661Y-67569600D01*
X119018593Y-67645014D01*
X119018580Y-67645021D01*
X118854719Y-67754510D01*
X118854715Y-67754513D01*
X118712181Y-67897048D01*
X118650858Y-67930533D01*
X118581166Y-67925549D01*
X118525233Y-67883677D01*
X118500816Y-67818213D01*
X118500500Y-67809367D01*
X118500500Y-65923933D01*
X118520185Y-65856894D01*
X118572989Y-65811139D01*
X118642147Y-65801195D01*
X118705703Y-65830220D01*
X118712181Y-65836252D01*
X118854715Y-65978786D01*
X118854719Y-65978789D01*
X119018580Y-66088278D01*
X119018593Y-66088285D01*
X119200661Y-66163699D01*
X119200666Y-66163701D01*
X119200670Y-66163701D01*
X119200671Y-66163702D01*
X119393957Y-66202150D01*
X119393960Y-66202150D01*
X119591044Y-66202150D01*
X119721083Y-66176282D01*
X119784336Y-66163701D01*
X119966415Y-66088282D01*
X120130283Y-65978789D01*
X120269640Y-65839432D01*
X120379133Y-65675564D01*
X120379132Y-65675564D01*
X120382518Y-65670498D01*
X120383975Y-65671471D01*
X120427096Y-65627553D01*
X120495230Y-65612076D01*
X120560915Y-65635892D01*
X120563003Y-65637459D01*
X120569133Y-65642162D01*
X120569136Y-65642165D01*
X120700366Y-65717931D01*
X120846735Y-65757150D01*
X120846737Y-65757150D01*
X120998265Y-65757150D01*
X120998267Y-65757150D01*
X121144636Y-65717931D01*
X121275866Y-65642165D01*
X121383016Y-65535015D01*
X121458782Y-65403785D01*
X121498001Y-65257416D01*
X121498001Y-65105884D01*
X121458782Y-64959515D01*
X121383016Y-64828285D01*
X121353562Y-64798831D01*
X121320077Y-64737508D01*
X121325061Y-64667816D01*
X121366933Y-64611883D01*
X121432397Y-64587466D01*
X121441243Y-64587150D01*
X121446269Y-64587150D01*
X121446270Y-64587149D01*
X121610583Y-64554466D01*
X121765364Y-64490353D01*
X121904663Y-64397276D01*
X121904666Y-64397273D01*
X121928471Y-64373469D01*
X121989794Y-64339984D01*
X122016152Y-64337150D01*
X125608850Y-64337150D01*
X125675889Y-64356835D01*
X125696531Y-64373469D01*
X125720338Y-64397276D01*
X125812995Y-64459187D01*
X125859638Y-64490353D01*
X125859639Y-64490353D01*
X125859640Y-64490354D01*
X125894702Y-64504877D01*
X126014419Y-64554466D01*
X126178729Y-64587149D01*
X126178733Y-64587150D01*
X126183759Y-64587150D01*
X126250798Y-64606835D01*
X126296553Y-64659639D01*
X126306497Y-64728797D01*
X126277472Y-64792353D01*
X126271440Y-64798831D01*
X126241988Y-64828282D01*
X126241986Y-64828285D01*
X126166220Y-64959513D01*
X126137717Y-65065891D01*
X126127001Y-65105884D01*
X126127001Y-65257416D01*
X126138463Y-65300193D01*
X126166220Y-65403786D01*
X126202366Y-65466391D01*
X126241986Y-65535015D01*
X126349136Y-65642165D01*
X126480366Y-65717931D01*
X126626735Y-65757150D01*
X126626737Y-65757150D01*
X126778265Y-65757150D01*
X126778267Y-65757150D01*
X126924636Y-65717931D01*
X127055866Y-65642165D01*
X127055875Y-65642155D01*
X127061989Y-65637465D01*
X127127157Y-65612267D01*
X127195602Y-65626300D01*
X127241526Y-65671138D01*
X127242484Y-65670499D01*
X127245510Y-65675028D01*
X127245595Y-65675111D01*
X127245729Y-65675356D01*
X127355361Y-65839431D01*
X127355364Y-65839435D01*
X127494715Y-65978786D01*
X127494719Y-65978789D01*
X127658580Y-66088278D01*
X127658593Y-66088285D01*
X127840661Y-66163699D01*
X127840666Y-66163701D01*
X127840670Y-66163701D01*
X127840671Y-66163702D01*
X128033957Y-66202150D01*
X128033960Y-66202150D01*
X128231044Y-66202150D01*
X128361083Y-66176282D01*
X128424336Y-66163701D01*
X128606415Y-66088282D01*
X128770283Y-65978789D01*
X128909640Y-65839432D01*
X129019133Y-65675564D01*
X129094552Y-65493485D01*
X129107133Y-65430232D01*
X129133001Y-65300193D01*
X129133001Y-64003106D01*
X129094553Y-63809820D01*
X129094552Y-63809819D01*
X129094552Y-63809815D01*
X129094550Y-63809810D01*
X129019136Y-63627742D01*
X129019129Y-63627729D01*
X128909640Y-63463868D01*
X128909637Y-63463864D01*
X128770286Y-63324513D01*
X128770282Y-63324510D01*
X128606421Y-63215021D01*
X128606408Y-63215014D01*
X128424340Y-63139600D01*
X128424330Y-63139597D01*
X128231044Y-63101150D01*
X128231042Y-63101150D01*
X128033960Y-63101150D01*
X128033958Y-63101150D01*
X127840671Y-63139597D01*
X127840661Y-63139600D01*
X127658593Y-63215014D01*
X127658580Y-63215021D01*
X127494719Y-63324510D01*
X127494715Y-63324513D01*
X127355364Y-63463864D01*
X127355361Y-63463868D01*
X127305943Y-63537827D01*
X127252330Y-63582632D01*
X127183005Y-63591339D01*
X127119978Y-63561184D01*
X127083259Y-63501741D01*
X127081223Y-63493123D01*
X127080318Y-63488575D01*
X127080317Y-63488568D01*
X127016204Y-63333787D01*
X126936845Y-63215018D01*
X126923127Y-63194487D01*
X126804663Y-63076023D01*
X126665361Y-62982945D01*
X126510583Y-62918834D01*
X126510575Y-62918832D01*
X126346272Y-62886150D01*
X126346268Y-62886150D01*
X126178734Y-62886150D01*
X126178729Y-62886150D01*
X126014426Y-62918832D01*
X126014418Y-62918834D01*
X125859640Y-62982945D01*
X125720338Y-63076023D01*
X125720335Y-63076026D01*
X125696531Y-63099831D01*
X125635208Y-63133316D01*
X125608850Y-63136150D01*
X122016152Y-63136150D01*
X121949113Y-63116465D01*
X121928471Y-63099831D01*
X121904663Y-63076023D01*
X121765361Y-62982945D01*
X121610583Y-62918834D01*
X121610575Y-62918832D01*
X121446272Y-62886150D01*
X121446268Y-62886150D01*
X121278734Y-62886150D01*
X121278729Y-62886150D01*
X121114426Y-62918832D01*
X121114418Y-62918834D01*
X120959640Y-62982945D01*
X120820338Y-63076023D01*
X120701874Y-63194487D01*
X120608796Y-63333789D01*
X120544685Y-63488567D01*
X120544683Y-63488575D01*
X120543776Y-63493134D01*
X120511387Y-63555044D01*
X120450669Y-63589614D01*
X120380900Y-63585870D01*
X120324231Y-63545001D01*
X120319058Y-63537827D01*
X120269640Y-63463867D01*
X120130286Y-63324513D01*
X120130282Y-63324510D01*
X119966421Y-63215021D01*
X119966408Y-63215014D01*
X119784340Y-63139600D01*
X119784330Y-63139597D01*
X119591044Y-63101150D01*
X119591042Y-63101150D01*
X119393960Y-63101150D01*
X119393958Y-63101150D01*
X119200671Y-63139597D01*
X119200661Y-63139600D01*
X119018593Y-63215014D01*
X119018580Y-63215021D01*
X118854719Y-63324510D01*
X118854715Y-63324513D01*
X118712181Y-63467048D01*
X118650858Y-63500533D01*
X118581166Y-63495549D01*
X118525233Y-63453677D01*
X118500816Y-63388213D01*
X118500500Y-63379367D01*
X118500500Y-61624500D01*
X118520185Y-61557461D01*
X118572989Y-61511706D01*
X118624500Y-61500500D01*
X129375500Y-61500500D01*
X129442539Y-61520185D01*
G37*
%TD.AperFunction*%
%TD*%
M02*
