%TF.GenerationSoftware,KiCad,Pcbnew,9.0.6*%
%TF.CreationDate,2026-02-27T17:21:49+03:00*%
%TF.ProjectId,blabla,626c6162-6c61-42e6-9b69-6361645f7063,rev?*%
%TF.SameCoordinates,Original*%
%TF.FileFunction,Copper,L3,Inr*%
%TF.FilePolarity,Positive*%
%FSLAX46Y46*%
G04 Gerber Fmt 4.6, Leading zero omitted, Abs format (unit mm)*
G04 Created by KiCad (PCBNEW 9.0.6) date 2026-02-27 17:21:49*
%MOMM*%
%LPD*%
G01*
G04 APERTURE LIST*
%TA.AperFunction,ComponentPad*%
%ADD10R,1.700000X1.700000*%
%TD*%
%TA.AperFunction,ComponentPad*%
%ADD11C,1.700000*%
%TD*%
%TA.AperFunction,HeatsinkPad*%
%ADD12O,1.000000X2.100000*%
%TD*%
%TA.AperFunction,HeatsinkPad*%
%ADD13O,1.000000X1.600000*%
%TD*%
%TA.AperFunction,ViaPad*%
%ADD14C,0.700000*%
%TD*%
G04 APERTURE END LIST*
D10*
%TO.N,Net-(J1-Pin_1)*%
%TO.C,J1*%
X132500000Y-77420000D03*
D11*
%TO.N,GND*%
X132500000Y-79960000D03*
%TO.N,unconnected-(J1-Pin_3-Pad3)*%
X132500000Y-82500000D03*
%TO.N,unconnected-(J1-Pin_4-Pad4)*%
X132500000Y-85040000D03*
%TO.N,unconnected-(J1-Pin_5-Pad5)*%
X132500000Y-87580000D03*
%TO.N,unconnected-(J1-Pin_6-Pad6)*%
X132500000Y-90120000D03*
%TO.N,unconnected-(J1-Pin_7-Pad7)*%
X132500000Y-92660000D03*
%TO.N,unconnected-(J1-Pin_8-Pad8)*%
X132500000Y-95200000D03*
%TO.N,unconnected-(J1-Pin_9-Pad9)*%
X132500000Y-97740000D03*
%TO.N,unconnected-(J1-Pin_10-Pad10)*%
X132500000Y-100280000D03*
%TO.N,Net-(J1-Pin_11)*%
X132500000Y-102820000D03*
%TO.N,unconnected-(J1-Pin_12-Pad12)*%
X132500000Y-105360000D03*
%TO.N,unconnected-(J1-Pin_13-Pad13)*%
X132500000Y-107900000D03*
%TO.N,Net-(J1-Pin_14)*%
X132500000Y-110440000D03*
%TO.N,unconnected-(J1-Pin_15-Pad15)*%
X132500000Y-112980000D03*
%TD*%
D12*
%TO.N,unconnected-(J3-SHIELD-PadS1)_2*%
%TO.C,J3*%
X119492501Y-64651650D03*
D13*
%TO.N,unconnected-(J3-SHIELD-PadS1)_3*%
X119492501Y-68831650D03*
D12*
%TO.N,unconnected-(J3-SHIELD-PadS1)*%
X128132501Y-64651650D03*
D13*
%TO.N,unconnected-(J3-SHIELD-PadS1)_1*%
X128132501Y-68831650D03*
%TD*%
D10*
%TO.N,unconnected-(J2-Pin_1-Pad1)*%
%TO.C,J2*%
X157900000Y-77420000D03*
D11*
%TO.N,GND*%
X157900000Y-79960000D03*
%TO.N,unconnected-(J2-Pin_3-Pad3)*%
X157900000Y-82500000D03*
%TO.N,unconnected-(J2-Pin_4-Pad4)*%
X157900000Y-85040000D03*
%TO.N,unconnected-(J2-Pin_5-Pad5)*%
X157900000Y-87580000D03*
%TO.N,unconnected-(J2-Pin_6-Pad6)*%
X157900000Y-90120000D03*
%TO.N,unconnected-(J2-Pin_7-Pad7)*%
X157900000Y-92660000D03*
%TO.N,unconnected-(J2-Pin_8-Pad8)*%
X157900000Y-95200000D03*
%TO.N,unconnected-(J2-Pin_9-Pad9)*%
X157900000Y-97740000D03*
%TO.N,unconnected-(J2-Pin_10-Pad10)*%
X157900000Y-100280000D03*
%TO.N,unconnected-(J2-Pin_11-Pad11)*%
X157900000Y-102820000D03*
%TO.N,unconnected-(J2-Pin_12-Pad12)*%
X157900000Y-105360000D03*
%TO.N,unconnected-(J2-Pin_13-Pad13)*%
X157900000Y-107900000D03*
%TO.N,unconnected-(J2-Pin_14-Pad14)*%
X157900000Y-110440000D03*
%TO.N,unconnected-(J2-Pin_15-Pad15)*%
X157900000Y-112980000D03*
%TD*%
D14*
%TO.N,Net-(C1-Pad1)*%
X121362501Y-63736650D03*
X120800000Y-78200000D03*
X126262501Y-63736650D03*
X121000000Y-74300000D03*
%TO.N,Net-(U1-VI)*%
X121900000Y-85000000D03*
X121051949Y-90250000D03*
%TO.N,Net-(J1-Pin_1)*%
X125000000Y-88400000D03*
X124600000Y-99200000D03*
%TO.N,Net-(D1-K)*%
X138200000Y-71100000D03*
X122600000Y-75600000D03*
%TD*%
M02*
