%TF.GenerationSoftware,KiCad,Pcbnew,9.0.6*%
%TF.CreationDate,2026-02-27T17:21:49+03:00*%
%TF.ProjectId,blabla,626c6162-6c61-42e6-9b69-6361645f7063,rev?*%
%TF.SameCoordinates,Original*%
%TF.FileFunction,Legend,Top*%
%TF.FilePolarity,Positive*%
%FSLAX46Y46*%
G04 Gerber Fmt 4.6, Leading zero omitted, Abs format (unit mm)*
G04 Created by KiCad (PCBNEW 9.0.6) date 2026-02-27 17:21:49*
%MOMM*%
%LPD*%
G01*
G04 APERTURE LIST*
%ADD10C,0.150000*%
%ADD11C,0.120000*%
%ADD12C,0.100000*%
G04 APERTURE END LIST*
D10*
X148319047Y-68499337D02*
X148585713Y-68499337D01*
X148699999Y-68918385D02*
X148319047Y-68918385D01*
X148319047Y-68918385D02*
X148319047Y-68118385D01*
X148319047Y-68118385D02*
X148699999Y-68118385D01*
X149042857Y-68385051D02*
X149042857Y-68918385D01*
X149042857Y-68461242D02*
X149080952Y-68423147D01*
X149080952Y-68423147D02*
X149157142Y-68385051D01*
X149157142Y-68385051D02*
X149271428Y-68385051D01*
X149271428Y-68385051D02*
X149347619Y-68423147D01*
X149347619Y-68423147D02*
X149385714Y-68499337D01*
X149385714Y-68499337D02*
X149385714Y-68918385D01*
X149690476Y-68385051D02*
X149880952Y-68918385D01*
X149880952Y-68918385D02*
X150071429Y-68385051D01*
X150376191Y-68918385D02*
X150376191Y-68385051D01*
X150376191Y-68118385D02*
X150338095Y-68156480D01*
X150338095Y-68156480D02*
X150376191Y-68194575D01*
X150376191Y-68194575D02*
X150414286Y-68156480D01*
X150414286Y-68156480D02*
X150376191Y-68118385D01*
X150376191Y-68118385D02*
X150376191Y-68194575D01*
X150757143Y-68918385D02*
X150757143Y-68385051D01*
X150757143Y-68537432D02*
X150795238Y-68461242D01*
X150795238Y-68461242D02*
X150833333Y-68423147D01*
X150833333Y-68423147D02*
X150909524Y-68385051D01*
X150909524Y-68385051D02*
X150985714Y-68385051D01*
X151366666Y-68918385D02*
X151290476Y-68880290D01*
X151290476Y-68880290D02*
X151252381Y-68842194D01*
X151252381Y-68842194D02*
X151214285Y-68766004D01*
X151214285Y-68766004D02*
X151214285Y-68537432D01*
X151214285Y-68537432D02*
X151252381Y-68461242D01*
X151252381Y-68461242D02*
X151290476Y-68423147D01*
X151290476Y-68423147D02*
X151366666Y-68385051D01*
X151366666Y-68385051D02*
X151480952Y-68385051D01*
X151480952Y-68385051D02*
X151557143Y-68423147D01*
X151557143Y-68423147D02*
X151595238Y-68461242D01*
X151595238Y-68461242D02*
X151633333Y-68537432D01*
X151633333Y-68537432D02*
X151633333Y-68766004D01*
X151633333Y-68766004D02*
X151595238Y-68842194D01*
X151595238Y-68842194D02*
X151557143Y-68880290D01*
X151557143Y-68880290D02*
X151480952Y-68918385D01*
X151480952Y-68918385D02*
X151366666Y-68918385D01*
X151976191Y-68918385D02*
X151976191Y-68118385D01*
X151976191Y-68118385D02*
X152433334Y-68918385D01*
X152433334Y-68918385D02*
X152433334Y-68118385D01*
X152928571Y-68918385D02*
X152852381Y-68880290D01*
X152852381Y-68880290D02*
X152814286Y-68842194D01*
X152814286Y-68842194D02*
X152776190Y-68766004D01*
X152776190Y-68766004D02*
X152776190Y-68537432D01*
X152776190Y-68537432D02*
X152814286Y-68461242D01*
X152814286Y-68461242D02*
X152852381Y-68423147D01*
X152852381Y-68423147D02*
X152928571Y-68385051D01*
X152928571Y-68385051D02*
X153042857Y-68385051D01*
X153042857Y-68385051D02*
X153119048Y-68423147D01*
X153119048Y-68423147D02*
X153157143Y-68461242D01*
X153157143Y-68461242D02*
X153195238Y-68537432D01*
X153195238Y-68537432D02*
X153195238Y-68766004D01*
X153195238Y-68766004D02*
X153157143Y-68842194D01*
X153157143Y-68842194D02*
X153119048Y-68880290D01*
X153119048Y-68880290D02*
X153042857Y-68918385D01*
X153042857Y-68918385D02*
X152928571Y-68918385D01*
X153880953Y-68918385D02*
X153880953Y-68118385D01*
X153880953Y-68880290D02*
X153804762Y-68918385D01*
X153804762Y-68918385D02*
X153652381Y-68918385D01*
X153652381Y-68918385D02*
X153576191Y-68880290D01*
X153576191Y-68880290D02*
X153538096Y-68842194D01*
X153538096Y-68842194D02*
X153500000Y-68766004D01*
X153500000Y-68766004D02*
X153500000Y-68537432D01*
X153500000Y-68537432D02*
X153538096Y-68461242D01*
X153538096Y-68461242D02*
X153576191Y-68423147D01*
X153576191Y-68423147D02*
X153652381Y-68385051D01*
X153652381Y-68385051D02*
X153804762Y-68385051D01*
X153804762Y-68385051D02*
X153880953Y-68423147D01*
X154566668Y-68880290D02*
X154490477Y-68918385D01*
X154490477Y-68918385D02*
X154338096Y-68918385D01*
X154338096Y-68918385D02*
X154261906Y-68880290D01*
X154261906Y-68880290D02*
X154223810Y-68804099D01*
X154223810Y-68804099D02*
X154223810Y-68499337D01*
X154223810Y-68499337D02*
X154261906Y-68423147D01*
X154261906Y-68423147D02*
X154338096Y-68385051D01*
X154338096Y-68385051D02*
X154490477Y-68385051D01*
X154490477Y-68385051D02*
X154566668Y-68423147D01*
X154566668Y-68423147D02*
X154604763Y-68499337D01*
X154604763Y-68499337D02*
X154604763Y-68575528D01*
X154604763Y-68575528D02*
X154223810Y-68651718D01*
X154947620Y-68613623D02*
X155557144Y-68613623D01*
X155861905Y-68118385D02*
X156357143Y-68118385D01*
X156357143Y-68118385D02*
X156090477Y-68423147D01*
X156090477Y-68423147D02*
X156204762Y-68423147D01*
X156204762Y-68423147D02*
X156280953Y-68461242D01*
X156280953Y-68461242D02*
X156319048Y-68499337D01*
X156319048Y-68499337D02*
X156357143Y-68575528D01*
X156357143Y-68575528D02*
X156357143Y-68766004D01*
X156357143Y-68766004D02*
X156319048Y-68842194D01*
X156319048Y-68842194D02*
X156280953Y-68880290D01*
X156280953Y-68880290D02*
X156204762Y-68918385D01*
X156204762Y-68918385D02*
X155976191Y-68918385D01*
X155976191Y-68918385D02*
X155900000Y-68880290D01*
X155900000Y-68880290D02*
X155861905Y-68842194D01*
X156661905Y-68194575D02*
X156700001Y-68156480D01*
X156700001Y-68156480D02*
X156776191Y-68118385D01*
X156776191Y-68118385D02*
X156966667Y-68118385D01*
X156966667Y-68118385D02*
X157042858Y-68156480D01*
X157042858Y-68156480D02*
X157080953Y-68194575D01*
X157080953Y-68194575D02*
X157119048Y-68270766D01*
X157119048Y-68270766D02*
X157119048Y-68346956D01*
X157119048Y-68346956D02*
X157080953Y-68461242D01*
X157080953Y-68461242D02*
X156623810Y-68918385D01*
X156623810Y-68918385D02*
X157119048Y-68918385D01*
X151652381Y-70206340D02*
X151385714Y-69825387D01*
X151195238Y-70206340D02*
X151195238Y-69406340D01*
X151195238Y-69406340D02*
X151500000Y-69406340D01*
X151500000Y-69406340D02*
X151576190Y-69444435D01*
X151576190Y-69444435D02*
X151614285Y-69482530D01*
X151614285Y-69482530D02*
X151652381Y-69558721D01*
X151652381Y-69558721D02*
X151652381Y-69673006D01*
X151652381Y-69673006D02*
X151614285Y-69749197D01*
X151614285Y-69749197D02*
X151576190Y-69787292D01*
X151576190Y-69787292D02*
X151500000Y-69825387D01*
X151500000Y-69825387D02*
X151195238Y-69825387D01*
X152300000Y-70168245D02*
X152223809Y-70206340D01*
X152223809Y-70206340D02*
X152071428Y-70206340D01*
X152071428Y-70206340D02*
X151995238Y-70168245D01*
X151995238Y-70168245D02*
X151957142Y-70092054D01*
X151957142Y-70092054D02*
X151957142Y-69787292D01*
X151957142Y-69787292D02*
X151995238Y-69711102D01*
X151995238Y-69711102D02*
X152071428Y-69673006D01*
X152071428Y-69673006D02*
X152223809Y-69673006D01*
X152223809Y-69673006D02*
X152300000Y-69711102D01*
X152300000Y-69711102D02*
X152338095Y-69787292D01*
X152338095Y-69787292D02*
X152338095Y-69863483D01*
X152338095Y-69863483D02*
X151957142Y-69939673D01*
X152604761Y-69673006D02*
X152795237Y-70206340D01*
X152795237Y-70206340D02*
X152985714Y-69673006D01*
X154319047Y-70206340D02*
X153861904Y-70206340D01*
X154090476Y-70206340D02*
X154090476Y-69406340D01*
X154090476Y-69406340D02*
X154014285Y-69520625D01*
X154014285Y-69520625D02*
X153938095Y-69596816D01*
X153938095Y-69596816D02*
X153861904Y-69634911D01*
X154661905Y-70130149D02*
X154700000Y-70168245D01*
X154700000Y-70168245D02*
X154661905Y-70206340D01*
X154661905Y-70206340D02*
X154623809Y-70168245D01*
X154623809Y-70168245D02*
X154661905Y-70130149D01*
X154661905Y-70130149D02*
X154661905Y-70206340D01*
X155195238Y-69406340D02*
X155271428Y-69406340D01*
X155271428Y-69406340D02*
X155347619Y-69444435D01*
X155347619Y-69444435D02*
X155385714Y-69482530D01*
X155385714Y-69482530D02*
X155423809Y-69558721D01*
X155423809Y-69558721D02*
X155461904Y-69711102D01*
X155461904Y-69711102D02*
X155461904Y-69901578D01*
X155461904Y-69901578D02*
X155423809Y-70053959D01*
X155423809Y-70053959D02*
X155385714Y-70130149D01*
X155385714Y-70130149D02*
X155347619Y-70168245D01*
X155347619Y-70168245D02*
X155271428Y-70206340D01*
X155271428Y-70206340D02*
X155195238Y-70206340D01*
X155195238Y-70206340D02*
X155119047Y-70168245D01*
X155119047Y-70168245D02*
X155080952Y-70130149D01*
X155080952Y-70130149D02*
X155042857Y-70053959D01*
X155042857Y-70053959D02*
X155004761Y-69901578D01*
X155004761Y-69901578D02*
X155004761Y-69711102D01*
X155004761Y-69711102D02*
X155042857Y-69558721D01*
X155042857Y-69558721D02*
X155080952Y-69482530D01*
X155080952Y-69482530D02*
X155119047Y-69444435D01*
X155119047Y-69444435D02*
X155195238Y-69406340D01*
X152242856Y-70770485D02*
X152280952Y-70732390D01*
X152280952Y-70732390D02*
X152357142Y-70694295D01*
X152357142Y-70694295D02*
X152547618Y-70694295D01*
X152547618Y-70694295D02*
X152623809Y-70732390D01*
X152623809Y-70732390D02*
X152661904Y-70770485D01*
X152661904Y-70770485D02*
X152699999Y-70846676D01*
X152699999Y-70846676D02*
X152699999Y-70922866D01*
X152699999Y-70922866D02*
X152661904Y-71037152D01*
X152661904Y-71037152D02*
X152204761Y-71494295D01*
X152204761Y-71494295D02*
X152699999Y-71494295D01*
X153195238Y-70694295D02*
X153271428Y-70694295D01*
X153271428Y-70694295D02*
X153347619Y-70732390D01*
X153347619Y-70732390D02*
X153385714Y-70770485D01*
X153385714Y-70770485D02*
X153423809Y-70846676D01*
X153423809Y-70846676D02*
X153461904Y-70999057D01*
X153461904Y-70999057D02*
X153461904Y-71189533D01*
X153461904Y-71189533D02*
X153423809Y-71341914D01*
X153423809Y-71341914D02*
X153385714Y-71418104D01*
X153385714Y-71418104D02*
X153347619Y-71456200D01*
X153347619Y-71456200D02*
X153271428Y-71494295D01*
X153271428Y-71494295D02*
X153195238Y-71494295D01*
X153195238Y-71494295D02*
X153119047Y-71456200D01*
X153119047Y-71456200D02*
X153080952Y-71418104D01*
X153080952Y-71418104D02*
X153042857Y-71341914D01*
X153042857Y-71341914D02*
X153004761Y-71189533D01*
X153004761Y-71189533D02*
X153004761Y-70999057D01*
X153004761Y-70999057D02*
X153042857Y-70846676D01*
X153042857Y-70846676D02*
X153080952Y-70770485D01*
X153080952Y-70770485D02*
X153119047Y-70732390D01*
X153119047Y-70732390D02*
X153195238Y-70694295D01*
X153766666Y-70770485D02*
X153804762Y-70732390D01*
X153804762Y-70732390D02*
X153880952Y-70694295D01*
X153880952Y-70694295D02*
X154071428Y-70694295D01*
X154071428Y-70694295D02*
X154147619Y-70732390D01*
X154147619Y-70732390D02*
X154185714Y-70770485D01*
X154185714Y-70770485D02*
X154223809Y-70846676D01*
X154223809Y-70846676D02*
X154223809Y-70922866D01*
X154223809Y-70922866D02*
X154185714Y-71037152D01*
X154185714Y-71037152D02*
X153728571Y-71494295D01*
X153728571Y-71494295D02*
X154223809Y-71494295D01*
X154909524Y-70694295D02*
X154757143Y-70694295D01*
X154757143Y-70694295D02*
X154680952Y-70732390D01*
X154680952Y-70732390D02*
X154642857Y-70770485D01*
X154642857Y-70770485D02*
X154566667Y-70884771D01*
X154566667Y-70884771D02*
X154528571Y-71037152D01*
X154528571Y-71037152D02*
X154528571Y-71341914D01*
X154528571Y-71341914D02*
X154566667Y-71418104D01*
X154566667Y-71418104D02*
X154604762Y-71456200D01*
X154604762Y-71456200D02*
X154680952Y-71494295D01*
X154680952Y-71494295D02*
X154833333Y-71494295D01*
X154833333Y-71494295D02*
X154909524Y-71456200D01*
X154909524Y-71456200D02*
X154947619Y-71418104D01*
X154947619Y-71418104D02*
X154985714Y-71341914D01*
X154985714Y-71341914D02*
X154985714Y-71151438D01*
X154985714Y-71151438D02*
X154947619Y-71075247D01*
X154947619Y-71075247D02*
X154909524Y-71037152D01*
X154909524Y-71037152D02*
X154833333Y-70999057D01*
X154833333Y-70999057D02*
X154680952Y-70999057D01*
X154680952Y-70999057D02*
X154604762Y-71037152D01*
X154604762Y-71037152D02*
X154566667Y-71075247D01*
X154566667Y-71075247D02*
X154528571Y-71151438D01*
X120789160Y-111806340D02*
X120789160Y-111006340D01*
X120789160Y-111006340D02*
X120979636Y-111006340D01*
X120979636Y-111006340D02*
X121093922Y-111044435D01*
X121093922Y-111044435D02*
X121170112Y-111120625D01*
X121170112Y-111120625D02*
X121208207Y-111196816D01*
X121208207Y-111196816D02*
X121246303Y-111349197D01*
X121246303Y-111349197D02*
X121246303Y-111463483D01*
X121246303Y-111463483D02*
X121208207Y-111615864D01*
X121208207Y-111615864D02*
X121170112Y-111692054D01*
X121170112Y-111692054D02*
X121093922Y-111768245D01*
X121093922Y-111768245D02*
X120979636Y-111806340D01*
X120979636Y-111806340D02*
X120789160Y-111806340D01*
X121893922Y-111768245D02*
X121817731Y-111806340D01*
X121817731Y-111806340D02*
X121665350Y-111806340D01*
X121665350Y-111806340D02*
X121589160Y-111768245D01*
X121589160Y-111768245D02*
X121551064Y-111692054D01*
X121551064Y-111692054D02*
X121551064Y-111387292D01*
X121551064Y-111387292D02*
X121589160Y-111311102D01*
X121589160Y-111311102D02*
X121665350Y-111273006D01*
X121665350Y-111273006D02*
X121817731Y-111273006D01*
X121817731Y-111273006D02*
X121893922Y-111311102D01*
X121893922Y-111311102D02*
X121932017Y-111387292D01*
X121932017Y-111387292D02*
X121932017Y-111463483D01*
X121932017Y-111463483D02*
X121551064Y-111539673D01*
X122236778Y-111768245D02*
X122312969Y-111806340D01*
X122312969Y-111806340D02*
X122465350Y-111806340D01*
X122465350Y-111806340D02*
X122541540Y-111768245D01*
X122541540Y-111768245D02*
X122579636Y-111692054D01*
X122579636Y-111692054D02*
X122579636Y-111653959D01*
X122579636Y-111653959D02*
X122541540Y-111577768D01*
X122541540Y-111577768D02*
X122465350Y-111539673D01*
X122465350Y-111539673D02*
X122351064Y-111539673D01*
X122351064Y-111539673D02*
X122274874Y-111501578D01*
X122274874Y-111501578D02*
X122236778Y-111425387D01*
X122236778Y-111425387D02*
X122236778Y-111387292D01*
X122236778Y-111387292D02*
X122274874Y-111311102D01*
X122274874Y-111311102D02*
X122351064Y-111273006D01*
X122351064Y-111273006D02*
X122465350Y-111273006D01*
X122465350Y-111273006D02*
X122541540Y-111311102D01*
X122922493Y-111806340D02*
X122922493Y-111273006D01*
X122922493Y-111006340D02*
X122884397Y-111044435D01*
X122884397Y-111044435D02*
X122922493Y-111082530D01*
X122922493Y-111082530D02*
X122960588Y-111044435D01*
X122960588Y-111044435D02*
X122922493Y-111006340D01*
X122922493Y-111006340D02*
X122922493Y-111082530D01*
X123646302Y-111273006D02*
X123646302Y-111920625D01*
X123646302Y-111920625D02*
X123608207Y-111996816D01*
X123608207Y-111996816D02*
X123570111Y-112034911D01*
X123570111Y-112034911D02*
X123493921Y-112073006D01*
X123493921Y-112073006D02*
X123379635Y-112073006D01*
X123379635Y-112073006D02*
X123303445Y-112034911D01*
X123646302Y-111768245D02*
X123570111Y-111806340D01*
X123570111Y-111806340D02*
X123417730Y-111806340D01*
X123417730Y-111806340D02*
X123341540Y-111768245D01*
X123341540Y-111768245D02*
X123303445Y-111730149D01*
X123303445Y-111730149D02*
X123265349Y-111653959D01*
X123265349Y-111653959D02*
X123265349Y-111425387D01*
X123265349Y-111425387D02*
X123303445Y-111349197D01*
X123303445Y-111349197D02*
X123341540Y-111311102D01*
X123341540Y-111311102D02*
X123417730Y-111273006D01*
X123417730Y-111273006D02*
X123570111Y-111273006D01*
X123570111Y-111273006D02*
X123646302Y-111311102D01*
X124027255Y-111273006D02*
X124027255Y-111806340D01*
X124027255Y-111349197D02*
X124065350Y-111311102D01*
X124065350Y-111311102D02*
X124141540Y-111273006D01*
X124141540Y-111273006D02*
X124255826Y-111273006D01*
X124255826Y-111273006D02*
X124332017Y-111311102D01*
X124332017Y-111311102D02*
X124370112Y-111387292D01*
X124370112Y-111387292D02*
X124370112Y-111806340D01*
X125055827Y-111768245D02*
X124979636Y-111806340D01*
X124979636Y-111806340D02*
X124827255Y-111806340D01*
X124827255Y-111806340D02*
X124751065Y-111768245D01*
X124751065Y-111768245D02*
X124712969Y-111692054D01*
X124712969Y-111692054D02*
X124712969Y-111387292D01*
X124712969Y-111387292D02*
X124751065Y-111311102D01*
X124751065Y-111311102D02*
X124827255Y-111273006D01*
X124827255Y-111273006D02*
X124979636Y-111273006D01*
X124979636Y-111273006D02*
X125055827Y-111311102D01*
X125055827Y-111311102D02*
X125093922Y-111387292D01*
X125093922Y-111387292D02*
X125093922Y-111463483D01*
X125093922Y-111463483D02*
X124712969Y-111539673D01*
X125779636Y-111806340D02*
X125779636Y-111006340D01*
X125779636Y-111768245D02*
X125703445Y-111806340D01*
X125703445Y-111806340D02*
X125551064Y-111806340D01*
X125551064Y-111806340D02*
X125474874Y-111768245D01*
X125474874Y-111768245D02*
X125436779Y-111730149D01*
X125436779Y-111730149D02*
X125398683Y-111653959D01*
X125398683Y-111653959D02*
X125398683Y-111425387D01*
X125398683Y-111425387D02*
X125436779Y-111349197D01*
X125436779Y-111349197D02*
X125474874Y-111311102D01*
X125474874Y-111311102D02*
X125551064Y-111273006D01*
X125551064Y-111273006D02*
X125703445Y-111273006D01*
X125703445Y-111273006D02*
X125779636Y-111311102D01*
X126770113Y-111806340D02*
X126770113Y-111006340D01*
X126770113Y-111311102D02*
X126846303Y-111273006D01*
X126846303Y-111273006D02*
X126998684Y-111273006D01*
X126998684Y-111273006D02*
X127074875Y-111311102D01*
X127074875Y-111311102D02*
X127112970Y-111349197D01*
X127112970Y-111349197D02*
X127151065Y-111425387D01*
X127151065Y-111425387D02*
X127151065Y-111653959D01*
X127151065Y-111653959D02*
X127112970Y-111730149D01*
X127112970Y-111730149D02*
X127074875Y-111768245D01*
X127074875Y-111768245D02*
X126998684Y-111806340D01*
X126998684Y-111806340D02*
X126846303Y-111806340D01*
X126846303Y-111806340D02*
X126770113Y-111768245D01*
X127417732Y-111273006D02*
X127608208Y-111806340D01*
X127798685Y-111273006D02*
X127608208Y-111806340D01*
X127608208Y-111806340D02*
X127532018Y-111996816D01*
X127532018Y-111996816D02*
X127493923Y-112034911D01*
X127493923Y-112034911D02*
X127417732Y-112073006D01*
X121055826Y-112675247D02*
X121170112Y-112713342D01*
X121170112Y-112713342D02*
X121208207Y-112751438D01*
X121208207Y-112751438D02*
X121246303Y-112827628D01*
X121246303Y-112827628D02*
X121246303Y-112941914D01*
X121246303Y-112941914D02*
X121208207Y-113018104D01*
X121208207Y-113018104D02*
X121170112Y-113056200D01*
X121170112Y-113056200D02*
X121093922Y-113094295D01*
X121093922Y-113094295D02*
X120789160Y-113094295D01*
X120789160Y-113094295D02*
X120789160Y-112294295D01*
X120789160Y-112294295D02*
X121055826Y-112294295D01*
X121055826Y-112294295D02*
X121132017Y-112332390D01*
X121132017Y-112332390D02*
X121170112Y-112370485D01*
X121170112Y-112370485D02*
X121208207Y-112446676D01*
X121208207Y-112446676D02*
X121208207Y-112522866D01*
X121208207Y-112522866D02*
X121170112Y-112599057D01*
X121170112Y-112599057D02*
X121132017Y-112637152D01*
X121132017Y-112637152D02*
X121055826Y-112675247D01*
X121055826Y-112675247D02*
X120789160Y-112675247D01*
X121589160Y-113018104D02*
X121627255Y-113056200D01*
X121627255Y-113056200D02*
X121589160Y-113094295D01*
X121589160Y-113094295D02*
X121551064Y-113056200D01*
X121551064Y-113056200D02*
X121589160Y-113018104D01*
X121589160Y-113018104D02*
X121589160Y-113094295D01*
X122122493Y-112713342D02*
X122122493Y-113094295D01*
X121855826Y-112294295D02*
X122122493Y-112713342D01*
X122122493Y-112713342D02*
X122389159Y-112294295D01*
X122655826Y-113018104D02*
X122693921Y-113056200D01*
X122693921Y-113056200D02*
X122655826Y-113094295D01*
X122655826Y-113094295D02*
X122617730Y-113056200D01*
X122617730Y-113056200D02*
X122655826Y-113018104D01*
X122655826Y-113018104D02*
X122655826Y-113094295D01*
X122998682Y-113056200D02*
X123112968Y-113094295D01*
X123112968Y-113094295D02*
X123303444Y-113094295D01*
X123303444Y-113094295D02*
X123379635Y-113056200D01*
X123379635Y-113056200D02*
X123417730Y-113018104D01*
X123417730Y-113018104D02*
X123455825Y-112941914D01*
X123455825Y-112941914D02*
X123455825Y-112865723D01*
X123455825Y-112865723D02*
X123417730Y-112789533D01*
X123417730Y-112789533D02*
X123379635Y-112751438D01*
X123379635Y-112751438D02*
X123303444Y-112713342D01*
X123303444Y-112713342D02*
X123151063Y-112675247D01*
X123151063Y-112675247D02*
X123074873Y-112637152D01*
X123074873Y-112637152D02*
X123036778Y-112599057D01*
X123036778Y-112599057D02*
X122998682Y-112522866D01*
X122998682Y-112522866D02*
X122998682Y-112446676D01*
X122998682Y-112446676D02*
X123036778Y-112370485D01*
X123036778Y-112370485D02*
X123074873Y-112332390D01*
X123074873Y-112332390D02*
X123151063Y-112294295D01*
X123151063Y-112294295D02*
X123341540Y-112294295D01*
X123341540Y-112294295D02*
X123455825Y-112332390D01*
X124103445Y-113056200D02*
X124027254Y-113094295D01*
X124027254Y-113094295D02*
X123874873Y-113094295D01*
X123874873Y-113094295D02*
X123798683Y-113056200D01*
X123798683Y-113056200D02*
X123760587Y-112980009D01*
X123760587Y-112980009D02*
X123760587Y-112675247D01*
X123760587Y-112675247D02*
X123798683Y-112599057D01*
X123798683Y-112599057D02*
X123874873Y-112560961D01*
X123874873Y-112560961D02*
X124027254Y-112560961D01*
X124027254Y-112560961D02*
X124103445Y-112599057D01*
X124103445Y-112599057D02*
X124141540Y-112675247D01*
X124141540Y-112675247D02*
X124141540Y-112751438D01*
X124141540Y-112751438D02*
X123760587Y-112827628D01*
X124484397Y-112560961D02*
X124484397Y-113094295D01*
X124484397Y-112637152D02*
X124522492Y-112599057D01*
X124522492Y-112599057D02*
X124598682Y-112560961D01*
X124598682Y-112560961D02*
X124712968Y-112560961D01*
X124712968Y-112560961D02*
X124789159Y-112599057D01*
X124789159Y-112599057D02*
X124827254Y-112675247D01*
X124827254Y-112675247D02*
X124827254Y-113094295D01*
X125322492Y-113094295D02*
X125246302Y-113056200D01*
X125246302Y-113056200D02*
X125208207Y-113018104D01*
X125208207Y-113018104D02*
X125170111Y-112941914D01*
X125170111Y-112941914D02*
X125170111Y-112713342D01*
X125170111Y-112713342D02*
X125208207Y-112637152D01*
X125208207Y-112637152D02*
X125246302Y-112599057D01*
X125246302Y-112599057D02*
X125322492Y-112560961D01*
X125322492Y-112560961D02*
X125436778Y-112560961D01*
X125436778Y-112560961D02*
X125512969Y-112599057D01*
X125512969Y-112599057D02*
X125551064Y-112637152D01*
X125551064Y-112637152D02*
X125589159Y-112713342D01*
X125589159Y-112713342D02*
X125589159Y-112941914D01*
X125589159Y-112941914D02*
X125551064Y-113018104D01*
X125551064Y-113018104D02*
X125512969Y-113056200D01*
X125512969Y-113056200D02*
X125436778Y-113094295D01*
X125436778Y-113094295D02*
X125322492Y-113094295D01*
X126274874Y-112560961D02*
X126274874Y-113208580D01*
X126274874Y-113208580D02*
X126236779Y-113284771D01*
X126236779Y-113284771D02*
X126198683Y-113322866D01*
X126198683Y-113322866D02*
X126122493Y-113360961D01*
X126122493Y-113360961D02*
X126008207Y-113360961D01*
X126008207Y-113360961D02*
X125932017Y-113322866D01*
X126274874Y-113056200D02*
X126198683Y-113094295D01*
X126198683Y-113094295D02*
X126046302Y-113094295D01*
X126046302Y-113094295D02*
X125970112Y-113056200D01*
X125970112Y-113056200D02*
X125932017Y-113018104D01*
X125932017Y-113018104D02*
X125893921Y-112941914D01*
X125893921Y-112941914D02*
X125893921Y-112713342D01*
X125893921Y-112713342D02*
X125932017Y-112637152D01*
X125932017Y-112637152D02*
X125970112Y-112599057D01*
X125970112Y-112599057D02*
X126046302Y-112560961D01*
X126046302Y-112560961D02*
X126198683Y-112560961D01*
X126198683Y-112560961D02*
X126274874Y-112599057D01*
X126770112Y-113094295D02*
X126693922Y-113056200D01*
X126693922Y-113056200D02*
X126655827Y-112980009D01*
X126655827Y-112980009D02*
X126655827Y-112294295D01*
X127417732Y-112560961D02*
X127417732Y-113094295D01*
X127074875Y-112560961D02*
X127074875Y-112980009D01*
X127074875Y-112980009D02*
X127112970Y-113056200D01*
X127112970Y-113056200D02*
X127189160Y-113094295D01*
X127189160Y-113094295D02*
X127303446Y-113094295D01*
X127303446Y-113094295D02*
X127379637Y-113056200D01*
X127379637Y-113056200D02*
X127417732Y-113018104D01*
X142998684Y-88887292D02*
X143265350Y-88887292D01*
X143379636Y-89306340D02*
X142998684Y-89306340D01*
X142998684Y-89306340D02*
X142998684Y-88506340D01*
X142998684Y-88506340D02*
X143379636Y-88506340D01*
X143684398Y-89268245D02*
X143798684Y-89306340D01*
X143798684Y-89306340D02*
X143989160Y-89306340D01*
X143989160Y-89306340D02*
X144065351Y-89268245D01*
X144065351Y-89268245D02*
X144103446Y-89230149D01*
X144103446Y-89230149D02*
X144141541Y-89153959D01*
X144141541Y-89153959D02*
X144141541Y-89077768D01*
X144141541Y-89077768D02*
X144103446Y-89001578D01*
X144103446Y-89001578D02*
X144065351Y-88963483D01*
X144065351Y-88963483D02*
X143989160Y-88925387D01*
X143989160Y-88925387D02*
X143836779Y-88887292D01*
X143836779Y-88887292D02*
X143760589Y-88849197D01*
X143760589Y-88849197D02*
X143722494Y-88811102D01*
X143722494Y-88811102D02*
X143684398Y-88734911D01*
X143684398Y-88734911D02*
X143684398Y-88658721D01*
X143684398Y-88658721D02*
X143722494Y-88582530D01*
X143722494Y-88582530D02*
X143760589Y-88544435D01*
X143760589Y-88544435D02*
X143836779Y-88506340D01*
X143836779Y-88506340D02*
X144027256Y-88506340D01*
X144027256Y-88506340D02*
X144141541Y-88544435D01*
X144484399Y-89306340D02*
X144484399Y-88506340D01*
X144484399Y-88506340D02*
X144789161Y-88506340D01*
X144789161Y-88506340D02*
X144865351Y-88544435D01*
X144865351Y-88544435D02*
X144903446Y-88582530D01*
X144903446Y-88582530D02*
X144941542Y-88658721D01*
X144941542Y-88658721D02*
X144941542Y-88773006D01*
X144941542Y-88773006D02*
X144903446Y-88849197D01*
X144903446Y-88849197D02*
X144865351Y-88887292D01*
X144865351Y-88887292D02*
X144789161Y-88925387D01*
X144789161Y-88925387D02*
X144484399Y-88925387D01*
X145208208Y-88506340D02*
X145703446Y-88506340D01*
X145703446Y-88506340D02*
X145436780Y-88811102D01*
X145436780Y-88811102D02*
X145551065Y-88811102D01*
X145551065Y-88811102D02*
X145627256Y-88849197D01*
X145627256Y-88849197D02*
X145665351Y-88887292D01*
X145665351Y-88887292D02*
X145703446Y-88963483D01*
X145703446Y-88963483D02*
X145703446Y-89153959D01*
X145703446Y-89153959D02*
X145665351Y-89230149D01*
X145665351Y-89230149D02*
X145627256Y-89268245D01*
X145627256Y-89268245D02*
X145551065Y-89306340D01*
X145551065Y-89306340D02*
X145322494Y-89306340D01*
X145322494Y-89306340D02*
X145246303Y-89268245D01*
X145246303Y-89268245D02*
X145208208Y-89230149D01*
X146008208Y-88582530D02*
X146046304Y-88544435D01*
X146046304Y-88544435D02*
X146122494Y-88506340D01*
X146122494Y-88506340D02*
X146312970Y-88506340D01*
X146312970Y-88506340D02*
X146389161Y-88544435D01*
X146389161Y-88544435D02*
X146427256Y-88582530D01*
X146427256Y-88582530D02*
X146465351Y-88658721D01*
X146465351Y-88658721D02*
X146465351Y-88734911D01*
X146465351Y-88734911D02*
X146427256Y-88849197D01*
X146427256Y-88849197D02*
X145970113Y-89306340D01*
X145970113Y-89306340D02*
X146465351Y-89306340D01*
X142351064Y-90556200D02*
X142465350Y-90594295D01*
X142465350Y-90594295D02*
X142655826Y-90594295D01*
X142655826Y-90594295D02*
X142732017Y-90556200D01*
X142732017Y-90556200D02*
X142770112Y-90518104D01*
X142770112Y-90518104D02*
X142808207Y-90441914D01*
X142808207Y-90441914D02*
X142808207Y-90365723D01*
X142808207Y-90365723D02*
X142770112Y-90289533D01*
X142770112Y-90289533D02*
X142732017Y-90251438D01*
X142732017Y-90251438D02*
X142655826Y-90213342D01*
X142655826Y-90213342D02*
X142503445Y-90175247D01*
X142503445Y-90175247D02*
X142427255Y-90137152D01*
X142427255Y-90137152D02*
X142389160Y-90099057D01*
X142389160Y-90099057D02*
X142351064Y-90022866D01*
X142351064Y-90022866D02*
X142351064Y-89946676D01*
X142351064Y-89946676D02*
X142389160Y-89870485D01*
X142389160Y-89870485D02*
X142427255Y-89832390D01*
X142427255Y-89832390D02*
X142503445Y-89794295D01*
X142503445Y-89794295D02*
X142693922Y-89794295D01*
X142693922Y-89794295D02*
X142808207Y-89832390D01*
X143074874Y-89794295D02*
X143570112Y-89794295D01*
X143570112Y-89794295D02*
X143303446Y-90099057D01*
X143303446Y-90099057D02*
X143417731Y-90099057D01*
X143417731Y-90099057D02*
X143493922Y-90137152D01*
X143493922Y-90137152D02*
X143532017Y-90175247D01*
X143532017Y-90175247D02*
X143570112Y-90251438D01*
X143570112Y-90251438D02*
X143570112Y-90441914D01*
X143570112Y-90441914D02*
X143532017Y-90518104D01*
X143532017Y-90518104D02*
X143493922Y-90556200D01*
X143493922Y-90556200D02*
X143417731Y-90594295D01*
X143417731Y-90594295D02*
X143189160Y-90594295D01*
X143189160Y-90594295D02*
X143112969Y-90556200D01*
X143112969Y-90556200D02*
X143074874Y-90518104D01*
X144522494Y-90594295D02*
X144522494Y-89794295D01*
X144522494Y-89794295D02*
X144979637Y-90594295D01*
X144979637Y-90594295D02*
X144979637Y-89794295D01*
X145779636Y-90594295D02*
X145322493Y-90594295D01*
X145551065Y-90594295D02*
X145551065Y-89794295D01*
X145551065Y-89794295D02*
X145474874Y-89908580D01*
X145474874Y-89908580D02*
X145398684Y-89984771D01*
X145398684Y-89984771D02*
X145322493Y-90022866D01*
X146465351Y-89794295D02*
X146312970Y-89794295D01*
X146312970Y-89794295D02*
X146236779Y-89832390D01*
X146236779Y-89832390D02*
X146198684Y-89870485D01*
X146198684Y-89870485D02*
X146122494Y-89984771D01*
X146122494Y-89984771D02*
X146084398Y-90137152D01*
X146084398Y-90137152D02*
X146084398Y-90441914D01*
X146084398Y-90441914D02*
X146122494Y-90518104D01*
X146122494Y-90518104D02*
X146160589Y-90556200D01*
X146160589Y-90556200D02*
X146236779Y-90594295D01*
X146236779Y-90594295D02*
X146389160Y-90594295D01*
X146389160Y-90594295D02*
X146465351Y-90556200D01*
X146465351Y-90556200D02*
X146503446Y-90518104D01*
X146503446Y-90518104D02*
X146541541Y-90441914D01*
X146541541Y-90441914D02*
X146541541Y-90251438D01*
X146541541Y-90251438D02*
X146503446Y-90175247D01*
X146503446Y-90175247D02*
X146465351Y-90137152D01*
X146465351Y-90137152D02*
X146389160Y-90099057D01*
X146389160Y-90099057D02*
X146236779Y-90099057D01*
X146236779Y-90099057D02*
X146160589Y-90137152D01*
X146160589Y-90137152D02*
X146122494Y-90175247D01*
X146122494Y-90175247D02*
X146084398Y-90251438D01*
X147341542Y-90594295D02*
X147074875Y-90213342D01*
X146884399Y-90594295D02*
X146884399Y-89794295D01*
X146884399Y-89794295D02*
X147189161Y-89794295D01*
X147189161Y-89794295D02*
X147265351Y-89832390D01*
X147265351Y-89832390D02*
X147303446Y-89870485D01*
X147303446Y-89870485D02*
X147341542Y-89946676D01*
X147341542Y-89946676D02*
X147341542Y-90060961D01*
X147341542Y-90060961D02*
X147303446Y-90137152D01*
X147303446Y-90137152D02*
X147265351Y-90175247D01*
X147265351Y-90175247D02*
X147189161Y-90213342D01*
X147189161Y-90213342D02*
X146884399Y-90213342D01*
X147798684Y-90137152D02*
X147722494Y-90099057D01*
X147722494Y-90099057D02*
X147684399Y-90060961D01*
X147684399Y-90060961D02*
X147646303Y-89984771D01*
X147646303Y-89984771D02*
X147646303Y-89946676D01*
X147646303Y-89946676D02*
X147684399Y-89870485D01*
X147684399Y-89870485D02*
X147722494Y-89832390D01*
X147722494Y-89832390D02*
X147798684Y-89794295D01*
X147798684Y-89794295D02*
X147951065Y-89794295D01*
X147951065Y-89794295D02*
X148027256Y-89832390D01*
X148027256Y-89832390D02*
X148065351Y-89870485D01*
X148065351Y-89870485D02*
X148103446Y-89946676D01*
X148103446Y-89946676D02*
X148103446Y-89984771D01*
X148103446Y-89984771D02*
X148065351Y-90060961D01*
X148065351Y-90060961D02*
X148027256Y-90099057D01*
X148027256Y-90099057D02*
X147951065Y-90137152D01*
X147951065Y-90137152D02*
X147798684Y-90137152D01*
X147798684Y-90137152D02*
X147722494Y-90175247D01*
X147722494Y-90175247D02*
X147684399Y-90213342D01*
X147684399Y-90213342D02*
X147646303Y-90289533D01*
X147646303Y-90289533D02*
X147646303Y-90441914D01*
X147646303Y-90441914D02*
X147684399Y-90518104D01*
X147684399Y-90518104D02*
X147722494Y-90556200D01*
X147722494Y-90556200D02*
X147798684Y-90594295D01*
X147798684Y-90594295D02*
X147951065Y-90594295D01*
X147951065Y-90594295D02*
X148027256Y-90556200D01*
X148027256Y-90556200D02*
X148065351Y-90518104D01*
X148065351Y-90518104D02*
X148103446Y-90441914D01*
X148103446Y-90441914D02*
X148103446Y-90289533D01*
X148103446Y-90289533D02*
X148065351Y-90213342D01*
X148065351Y-90213342D02*
X148027256Y-90175247D01*
X148027256Y-90175247D02*
X147951065Y-90137152D01*
X132166666Y-74104819D02*
X132166666Y-74819104D01*
X132166666Y-74819104D02*
X132119047Y-74961961D01*
X132119047Y-74961961D02*
X132023809Y-75057200D01*
X132023809Y-75057200D02*
X131880952Y-75104819D01*
X131880952Y-75104819D02*
X131785714Y-75104819D01*
X133166666Y-75104819D02*
X132595238Y-75104819D01*
X132880952Y-75104819D02*
X132880952Y-74104819D01*
X132880952Y-74104819D02*
X132785714Y-74247676D01*
X132785714Y-74247676D02*
X132690476Y-74342914D01*
X132690476Y-74342914D02*
X132595238Y-74390533D01*
X137836017Y-70072313D02*
X137502684Y-69596122D01*
X137264589Y-70072313D02*
X137264589Y-69072313D01*
X137264589Y-69072313D02*
X137645541Y-69072313D01*
X137645541Y-69072313D02*
X137740779Y-69119932D01*
X137740779Y-69119932D02*
X137788398Y-69167551D01*
X137788398Y-69167551D02*
X137836017Y-69262789D01*
X137836017Y-69262789D02*
X137836017Y-69405646D01*
X137836017Y-69405646D02*
X137788398Y-69500884D01*
X137788398Y-69500884D02*
X137740779Y-69548503D01*
X137740779Y-69548503D02*
X137645541Y-69596122D01*
X137645541Y-69596122D02*
X137264589Y-69596122D01*
X138788398Y-70072313D02*
X138216970Y-70072313D01*
X138502684Y-70072313D02*
X138502684Y-69072313D01*
X138502684Y-69072313D02*
X138407446Y-69215170D01*
X138407446Y-69215170D02*
X138312208Y-69310408D01*
X138312208Y-69310408D02*
X138216970Y-69358027D01*
X120578779Y-75599521D02*
X120578779Y-74599521D01*
X120578779Y-74599521D02*
X120816874Y-74599521D01*
X120816874Y-74599521D02*
X120959731Y-74647140D01*
X120959731Y-74647140D02*
X121054969Y-74742378D01*
X121054969Y-74742378D02*
X121102588Y-74837616D01*
X121102588Y-74837616D02*
X121150207Y-75028092D01*
X121150207Y-75028092D02*
X121150207Y-75170949D01*
X121150207Y-75170949D02*
X121102588Y-75361425D01*
X121102588Y-75361425D02*
X121054969Y-75456663D01*
X121054969Y-75456663D02*
X120959731Y-75551902D01*
X120959731Y-75551902D02*
X120816874Y-75599521D01*
X120816874Y-75599521D02*
X120578779Y-75599521D01*
X122102588Y-75599521D02*
X121531160Y-75599521D01*
X121816874Y-75599521D02*
X121816874Y-74599521D01*
X121816874Y-74599521D02*
X121721636Y-74742378D01*
X121721636Y-74742378D02*
X121626398Y-74837616D01*
X121626398Y-74837616D02*
X121531160Y-74885235D01*
X142836017Y-67227074D02*
X142788398Y-67274694D01*
X142788398Y-67274694D02*
X142645541Y-67322313D01*
X142645541Y-67322313D02*
X142550303Y-67322313D01*
X142550303Y-67322313D02*
X142407446Y-67274694D01*
X142407446Y-67274694D02*
X142312208Y-67179455D01*
X142312208Y-67179455D02*
X142264589Y-67084217D01*
X142264589Y-67084217D02*
X142216970Y-66893741D01*
X142216970Y-66893741D02*
X142216970Y-66750884D01*
X142216970Y-66750884D02*
X142264589Y-66560408D01*
X142264589Y-66560408D02*
X142312208Y-66465170D01*
X142312208Y-66465170D02*
X142407446Y-66369932D01*
X142407446Y-66369932D02*
X142550303Y-66322313D01*
X142550303Y-66322313D02*
X142645541Y-66322313D01*
X142645541Y-66322313D02*
X142788398Y-66369932D01*
X142788398Y-66369932D02*
X142836017Y-66417551D01*
X143169351Y-66322313D02*
X143788398Y-66322313D01*
X143788398Y-66322313D02*
X143455065Y-66703265D01*
X143455065Y-66703265D02*
X143597922Y-66703265D01*
X143597922Y-66703265D02*
X143693160Y-66750884D01*
X143693160Y-66750884D02*
X143740779Y-66798503D01*
X143740779Y-66798503D02*
X143788398Y-66893741D01*
X143788398Y-66893741D02*
X143788398Y-67131836D01*
X143788398Y-67131836D02*
X143740779Y-67227074D01*
X143740779Y-67227074D02*
X143693160Y-67274694D01*
X143693160Y-67274694D02*
X143597922Y-67322313D01*
X143597922Y-67322313D02*
X143312208Y-67322313D01*
X143312208Y-67322313D02*
X143216970Y-67274694D01*
X143216970Y-67274694D02*
X143169351Y-67227074D01*
X120773333Y-82579580D02*
X120725714Y-82627200D01*
X120725714Y-82627200D02*
X120582857Y-82674819D01*
X120582857Y-82674819D02*
X120487619Y-82674819D01*
X120487619Y-82674819D02*
X120344762Y-82627200D01*
X120344762Y-82627200D02*
X120249524Y-82531961D01*
X120249524Y-82531961D02*
X120201905Y-82436723D01*
X120201905Y-82436723D02*
X120154286Y-82246247D01*
X120154286Y-82246247D02*
X120154286Y-82103390D01*
X120154286Y-82103390D02*
X120201905Y-81912914D01*
X120201905Y-81912914D02*
X120249524Y-81817676D01*
X120249524Y-81817676D02*
X120344762Y-81722438D01*
X120344762Y-81722438D02*
X120487619Y-81674819D01*
X120487619Y-81674819D02*
X120582857Y-81674819D01*
X120582857Y-81674819D02*
X120725714Y-81722438D01*
X120725714Y-81722438D02*
X120773333Y-81770057D01*
X121725714Y-82674819D02*
X121154286Y-82674819D01*
X121440000Y-82674819D02*
X121440000Y-81674819D01*
X121440000Y-81674819D02*
X121344762Y-81817676D01*
X121344762Y-81817676D02*
X121249524Y-81912914D01*
X121249524Y-81912914D02*
X121154286Y-81960533D01*
X142836017Y-69727074D02*
X142788398Y-69774694D01*
X142788398Y-69774694D02*
X142645541Y-69822313D01*
X142645541Y-69822313D02*
X142550303Y-69822313D01*
X142550303Y-69822313D02*
X142407446Y-69774694D01*
X142407446Y-69774694D02*
X142312208Y-69679455D01*
X142312208Y-69679455D02*
X142264589Y-69584217D01*
X142264589Y-69584217D02*
X142216970Y-69393741D01*
X142216970Y-69393741D02*
X142216970Y-69250884D01*
X142216970Y-69250884D02*
X142264589Y-69060408D01*
X142264589Y-69060408D02*
X142312208Y-68965170D01*
X142312208Y-68965170D02*
X142407446Y-68869932D01*
X142407446Y-68869932D02*
X142550303Y-68822313D01*
X142550303Y-68822313D02*
X142645541Y-68822313D01*
X142645541Y-68822313D02*
X142788398Y-68869932D01*
X142788398Y-68869932D02*
X142836017Y-68917551D01*
X143693160Y-69155646D02*
X143693160Y-69822313D01*
X143455065Y-68774694D02*
X143216970Y-69488979D01*
X143216970Y-69488979D02*
X143836017Y-69488979D01*
X123238095Y-83954819D02*
X123238095Y-84764342D01*
X123238095Y-84764342D02*
X123285714Y-84859580D01*
X123285714Y-84859580D02*
X123333333Y-84907200D01*
X123333333Y-84907200D02*
X123428571Y-84954819D01*
X123428571Y-84954819D02*
X123619047Y-84954819D01*
X123619047Y-84954819D02*
X123714285Y-84907200D01*
X123714285Y-84907200D02*
X123761904Y-84859580D01*
X123761904Y-84859580D02*
X123809523Y-84764342D01*
X123809523Y-84764342D02*
X123809523Y-83954819D01*
X124809523Y-84954819D02*
X124238095Y-84954819D01*
X124523809Y-84954819D02*
X124523809Y-83954819D01*
X124523809Y-83954819D02*
X124428571Y-84097676D01*
X124428571Y-84097676D02*
X124333333Y-84192914D01*
X124333333Y-84192914D02*
X124238095Y-84240533D01*
X123479167Y-61591469D02*
X123479167Y-62305754D01*
X123479167Y-62305754D02*
X123431548Y-62448611D01*
X123431548Y-62448611D02*
X123336310Y-62543850D01*
X123336310Y-62543850D02*
X123193453Y-62591469D01*
X123193453Y-62591469D02*
X123098215Y-62591469D01*
X123860120Y-61591469D02*
X124479167Y-61591469D01*
X124479167Y-61591469D02*
X124145834Y-61972421D01*
X124145834Y-61972421D02*
X124288691Y-61972421D01*
X124288691Y-61972421D02*
X124383929Y-62020040D01*
X124383929Y-62020040D02*
X124431548Y-62067659D01*
X124431548Y-62067659D02*
X124479167Y-62162897D01*
X124479167Y-62162897D02*
X124479167Y-62400992D01*
X124479167Y-62400992D02*
X124431548Y-62496230D01*
X124431548Y-62496230D02*
X124383929Y-62543850D01*
X124383929Y-62543850D02*
X124288691Y-62591469D01*
X124288691Y-62591469D02*
X124002977Y-62591469D01*
X124002977Y-62591469D02*
X123907739Y-62543850D01*
X123907739Y-62543850D02*
X123860120Y-62496230D01*
X157566666Y-74104819D02*
X157566666Y-74819104D01*
X157566666Y-74819104D02*
X157519047Y-74961961D01*
X157519047Y-74961961D02*
X157423809Y-75057200D01*
X157423809Y-75057200D02*
X157280952Y-75104819D01*
X157280952Y-75104819D02*
X157185714Y-75104819D01*
X157995238Y-74200057D02*
X158042857Y-74152438D01*
X158042857Y-74152438D02*
X158138095Y-74104819D01*
X158138095Y-74104819D02*
X158376190Y-74104819D01*
X158376190Y-74104819D02*
X158471428Y-74152438D01*
X158471428Y-74152438D02*
X158519047Y-74200057D01*
X158519047Y-74200057D02*
X158566666Y-74295295D01*
X158566666Y-74295295D02*
X158566666Y-74390533D01*
X158566666Y-74390533D02*
X158519047Y-74533390D01*
X158519047Y-74533390D02*
X157947619Y-75104819D01*
X157947619Y-75104819D02*
X158566666Y-75104819D01*
X124223333Y-82579580D02*
X124175714Y-82627200D01*
X124175714Y-82627200D02*
X124032857Y-82674819D01*
X124032857Y-82674819D02*
X123937619Y-82674819D01*
X123937619Y-82674819D02*
X123794762Y-82627200D01*
X123794762Y-82627200D02*
X123699524Y-82531961D01*
X123699524Y-82531961D02*
X123651905Y-82436723D01*
X123651905Y-82436723D02*
X123604286Y-82246247D01*
X123604286Y-82246247D02*
X123604286Y-82103390D01*
X123604286Y-82103390D02*
X123651905Y-81912914D01*
X123651905Y-81912914D02*
X123699524Y-81817676D01*
X123699524Y-81817676D02*
X123794762Y-81722438D01*
X123794762Y-81722438D02*
X123937619Y-81674819D01*
X123937619Y-81674819D02*
X124032857Y-81674819D01*
X124032857Y-81674819D02*
X124175714Y-81722438D01*
X124175714Y-81722438D02*
X124223333Y-81770057D01*
X124604286Y-81770057D02*
X124651905Y-81722438D01*
X124651905Y-81722438D02*
X124747143Y-81674819D01*
X124747143Y-81674819D02*
X124985238Y-81674819D01*
X124985238Y-81674819D02*
X125080476Y-81722438D01*
X125080476Y-81722438D02*
X125128095Y-81770057D01*
X125128095Y-81770057D02*
X125175714Y-81865295D01*
X125175714Y-81865295D02*
X125175714Y-81960533D01*
X125175714Y-81960533D02*
X125128095Y-82103390D01*
X125128095Y-82103390D02*
X124556667Y-82674819D01*
X124556667Y-82674819D02*
X125175714Y-82674819D01*
X126569819Y-102176904D02*
X127379342Y-102176904D01*
X127379342Y-102176904D02*
X127474580Y-102129285D01*
X127474580Y-102129285D02*
X127522200Y-102081666D01*
X127522200Y-102081666D02*
X127569819Y-101986428D01*
X127569819Y-101986428D02*
X127569819Y-101795952D01*
X127569819Y-101795952D02*
X127522200Y-101700714D01*
X127522200Y-101700714D02*
X127474580Y-101653095D01*
X127474580Y-101653095D02*
X127379342Y-101605476D01*
X127379342Y-101605476D02*
X126569819Y-101605476D01*
X126665057Y-101176904D02*
X126617438Y-101129285D01*
X126617438Y-101129285D02*
X126569819Y-101034047D01*
X126569819Y-101034047D02*
X126569819Y-100795952D01*
X126569819Y-100795952D02*
X126617438Y-100700714D01*
X126617438Y-100700714D02*
X126665057Y-100653095D01*
X126665057Y-100653095D02*
X126760295Y-100605476D01*
X126760295Y-100605476D02*
X126855533Y-100605476D01*
X126855533Y-100605476D02*
X126998390Y-100653095D01*
X126998390Y-100653095D02*
X127569819Y-101224523D01*
X127569819Y-101224523D02*
X127569819Y-100605476D01*
D11*
%TO.C,J1*%
X131170000Y-78690000D02*
X131170000Y-114310000D01*
X131170000Y-78690000D02*
X133830000Y-78690000D01*
X131170000Y-114310000D02*
X133830000Y-114310000D01*
X132500000Y-76090000D02*
X133830000Y-76090000D01*
X133830000Y-76090000D02*
X133830000Y-77420000D01*
X133830000Y-78690000D02*
X133830000Y-114310000D01*
%TO.C,R1*%
X137765426Y-70524994D02*
X138239942Y-70524994D01*
X137765426Y-71569994D02*
X138239942Y-71569994D01*
%TO.C,D1*%
X119831874Y-75839702D02*
X119831874Y-77309702D01*
X119831874Y-77309702D02*
X122116874Y-77309702D01*
X122116874Y-75839702D02*
X119831874Y-75839702D01*
%TO.C,C3*%
X142741432Y-67812494D02*
X143263936Y-67812494D01*
X142741432Y-69282494D02*
X143263936Y-69282494D01*
%TO.C,C1*%
X120678748Y-83165000D02*
X121201252Y-83165000D01*
X120678748Y-84635000D02*
X121201252Y-84635000D01*
%TO.C,C4*%
X142741432Y-70312494D02*
X143263936Y-70312494D01*
X142741432Y-71782494D02*
X143263936Y-71782494D01*
%TO.C,U1*%
X122150000Y-85590000D02*
X125910000Y-85590000D01*
X122150000Y-92410000D02*
X125910000Y-92410000D01*
X125910000Y-85590000D02*
X125910000Y-86850000D01*
X125910000Y-92410000D02*
X125910000Y-91150000D01*
X120870000Y-85690000D02*
X120630000Y-85360000D01*
X121110000Y-85360000D01*
X120870000Y-85690000D01*
G36*
X120870000Y-85690000D02*
G01*
X120630000Y-85360000D01*
X121110000Y-85360000D01*
X120870000Y-85690000D01*
G37*
%TO.C,J3*%
X119112501Y-65881650D02*
X119112501Y-67881650D01*
X119112501Y-69781650D02*
X119112501Y-71681650D01*
X119112501Y-71681650D02*
X128512501Y-71681650D01*
X128512501Y-65881650D02*
X128512501Y-67881650D01*
X128512501Y-69781650D02*
X128512501Y-71681650D01*
%TO.C,J2*%
X156570000Y-78690000D02*
X156570000Y-114310000D01*
X156570000Y-78690000D02*
X159230000Y-78690000D01*
X156570000Y-114310000D02*
X159230000Y-114310000D01*
X157900000Y-76090000D02*
X159230000Y-76090000D01*
X159230000Y-76090000D02*
X159230000Y-77420000D01*
X159230000Y-78690000D02*
X159230000Y-114310000D01*
%TO.C,C2*%
X124128748Y-83165000D02*
X124651252Y-83165000D01*
X124128748Y-84635000D02*
X124651252Y-84635000D01*
D12*
%TO.C,U2*%
X123290000Y-100050000D02*
X123290000Y-100200000D01*
X123300000Y-100050000D02*
X123450000Y-100050000D01*
X123300000Y-102750000D02*
X123300000Y-102600000D01*
X123300000Y-102750000D02*
X123450000Y-102750000D01*
X126000000Y-102600000D02*
X126000000Y-102750000D01*
X126000000Y-102750000D02*
X125850000Y-102750000D01*
D11*
X126360000Y-100050000D02*
X126000000Y-100050000D01*
X126000000Y-99690000D01*
X126360000Y-100050000D01*
G36*
X126360000Y-100050000D02*
G01*
X126000000Y-100050000D01*
X126000000Y-99690000D01*
X126360000Y-100050000D01*
G37*
%TD*%
M02*
