%TF.GenerationSoftware,KiCad,Pcbnew,9.0.6*%
%TF.CreationDate,2026-02-27T17:21:49+03:00*%
%TF.ProjectId,blabla,626c6162-6c61-42e6-9b69-6361645f7063,rev?*%
%TF.SameCoordinates,Original*%
%TF.FileFunction,Soldermask,Top*%
%TF.FilePolarity,Negative*%
%FSLAX46Y46*%
G04 Gerber Fmt 4.6, Leading zero omitted, Abs format (unit mm)*
G04 Created by KiCad (PCBNEW 9.0.6) date 2026-02-27 17:21:49*
%MOMM*%
%LPD*%
G01*
G04 APERTURE LIST*
G04 APERTURE END LIST*
G36*
X132746742Y-112166601D02*
G01*
X132900687Y-112230367D01*
X133039234Y-112322941D01*
X133157059Y-112440766D01*
X133249633Y-112579313D01*
X133313399Y-112733258D01*
X133345907Y-112896685D01*
X133345907Y-113063315D01*
X133313399Y-113226742D01*
X133249633Y-113380687D01*
X133157059Y-113519234D01*
X133039234Y-113637059D01*
X132900687Y-113729633D01*
X132746742Y-113793399D01*
X132583315Y-113825907D01*
X132416685Y-113825907D01*
X132253258Y-113793399D01*
X132099313Y-113729633D01*
X131960766Y-113637059D01*
X131842941Y-113519234D01*
X131750367Y-113380687D01*
X131686601Y-113226742D01*
X131654093Y-113063315D01*
X131654093Y-112896685D01*
X131686601Y-112733258D01*
X131750367Y-112579313D01*
X131842941Y-112440766D01*
X131960766Y-112322941D01*
X132099313Y-112230367D01*
X132253258Y-112166601D01*
X132416685Y-112134093D01*
X132583315Y-112134093D01*
X132746742Y-112166601D01*
G37*
G36*
X158146742Y-112166601D02*
G01*
X158300687Y-112230367D01*
X158439234Y-112322941D01*
X158557059Y-112440766D01*
X158649633Y-112579313D01*
X158713399Y-112733258D01*
X158745907Y-112896685D01*
X158745907Y-113063315D01*
X158713399Y-113226742D01*
X158649633Y-113380687D01*
X158557059Y-113519234D01*
X158439234Y-113637059D01*
X158300687Y-113729633D01*
X158146742Y-113793399D01*
X157983315Y-113825907D01*
X157816685Y-113825907D01*
X157653258Y-113793399D01*
X157499313Y-113729633D01*
X157360766Y-113637059D01*
X157242941Y-113519234D01*
X157150367Y-113380687D01*
X157086601Y-113226742D01*
X157054093Y-113063315D01*
X157054093Y-112896685D01*
X157086601Y-112733258D01*
X157150367Y-112579313D01*
X157242941Y-112440766D01*
X157360766Y-112322941D01*
X157499313Y-112230367D01*
X157653258Y-112166601D01*
X157816685Y-112134093D01*
X157983315Y-112134093D01*
X158146742Y-112166601D01*
G37*
G36*
X132746742Y-109626601D02*
G01*
X132900687Y-109690367D01*
X133039234Y-109782941D01*
X133157059Y-109900766D01*
X133249633Y-110039313D01*
X133313399Y-110193258D01*
X133345907Y-110356685D01*
X133345907Y-110523315D01*
X133313399Y-110686742D01*
X133249633Y-110840687D01*
X133157059Y-110979234D01*
X133039234Y-111097059D01*
X132900687Y-111189633D01*
X132746742Y-111253399D01*
X132583315Y-111285907D01*
X132416685Y-111285907D01*
X132253258Y-111253399D01*
X132099313Y-111189633D01*
X131960766Y-111097059D01*
X131842941Y-110979234D01*
X131750367Y-110840687D01*
X131686601Y-110686742D01*
X131654093Y-110523315D01*
X131654093Y-110356685D01*
X131686601Y-110193258D01*
X131750367Y-110039313D01*
X131842941Y-109900766D01*
X131960766Y-109782941D01*
X132099313Y-109690367D01*
X132253258Y-109626601D01*
X132416685Y-109594093D01*
X132583315Y-109594093D01*
X132746742Y-109626601D01*
G37*
G36*
X158146742Y-109626601D02*
G01*
X158300687Y-109690367D01*
X158439234Y-109782941D01*
X158557059Y-109900766D01*
X158649633Y-110039313D01*
X158713399Y-110193258D01*
X158745907Y-110356685D01*
X158745907Y-110523315D01*
X158713399Y-110686742D01*
X158649633Y-110840687D01*
X158557059Y-110979234D01*
X158439234Y-111097059D01*
X158300687Y-111189633D01*
X158146742Y-111253399D01*
X157983315Y-111285907D01*
X157816685Y-111285907D01*
X157653258Y-111253399D01*
X157499313Y-111189633D01*
X157360766Y-111097059D01*
X157242941Y-110979234D01*
X157150367Y-110840687D01*
X157086601Y-110686742D01*
X157054093Y-110523315D01*
X157054093Y-110356685D01*
X157086601Y-110193258D01*
X157150367Y-110039313D01*
X157242941Y-109900766D01*
X157360766Y-109782941D01*
X157499313Y-109690367D01*
X157653258Y-109626601D01*
X157816685Y-109594093D01*
X157983315Y-109594093D01*
X158146742Y-109626601D01*
G37*
G36*
X132746742Y-107086601D02*
G01*
X132900687Y-107150367D01*
X133039234Y-107242941D01*
X133157059Y-107360766D01*
X133249633Y-107499313D01*
X133313399Y-107653258D01*
X133345907Y-107816685D01*
X133345907Y-107983315D01*
X133313399Y-108146742D01*
X133249633Y-108300687D01*
X133157059Y-108439234D01*
X133039234Y-108557059D01*
X132900687Y-108649633D01*
X132746742Y-108713399D01*
X132583315Y-108745907D01*
X132416685Y-108745907D01*
X132253258Y-108713399D01*
X132099313Y-108649633D01*
X131960766Y-108557059D01*
X131842941Y-108439234D01*
X131750367Y-108300687D01*
X131686601Y-108146742D01*
X131654093Y-107983315D01*
X131654093Y-107816685D01*
X131686601Y-107653258D01*
X131750367Y-107499313D01*
X131842941Y-107360766D01*
X131960766Y-107242941D01*
X132099313Y-107150367D01*
X132253258Y-107086601D01*
X132416685Y-107054093D01*
X132583315Y-107054093D01*
X132746742Y-107086601D01*
G37*
G36*
X158146742Y-107086601D02*
G01*
X158300687Y-107150367D01*
X158439234Y-107242941D01*
X158557059Y-107360766D01*
X158649633Y-107499313D01*
X158713399Y-107653258D01*
X158745907Y-107816685D01*
X158745907Y-107983315D01*
X158713399Y-108146742D01*
X158649633Y-108300687D01*
X158557059Y-108439234D01*
X158439234Y-108557059D01*
X158300687Y-108649633D01*
X158146742Y-108713399D01*
X157983315Y-108745907D01*
X157816685Y-108745907D01*
X157653258Y-108713399D01*
X157499313Y-108649633D01*
X157360766Y-108557059D01*
X157242941Y-108439234D01*
X157150367Y-108300687D01*
X157086601Y-108146742D01*
X157054093Y-107983315D01*
X157054093Y-107816685D01*
X157086601Y-107653258D01*
X157150367Y-107499313D01*
X157242941Y-107360766D01*
X157360766Y-107242941D01*
X157499313Y-107150367D01*
X157653258Y-107086601D01*
X157816685Y-107054093D01*
X157983315Y-107054093D01*
X158146742Y-107086601D01*
G37*
G36*
X132746742Y-104546601D02*
G01*
X132900687Y-104610367D01*
X133039234Y-104702941D01*
X133157059Y-104820766D01*
X133249633Y-104959313D01*
X133313399Y-105113258D01*
X133345907Y-105276685D01*
X133345907Y-105443315D01*
X133313399Y-105606742D01*
X133249633Y-105760687D01*
X133157059Y-105899234D01*
X133039234Y-106017059D01*
X132900687Y-106109633D01*
X132746742Y-106173399D01*
X132583315Y-106205907D01*
X132416685Y-106205907D01*
X132253258Y-106173399D01*
X132099313Y-106109633D01*
X131960766Y-106017059D01*
X131842941Y-105899234D01*
X131750367Y-105760687D01*
X131686601Y-105606742D01*
X131654093Y-105443315D01*
X131654093Y-105276685D01*
X131686601Y-105113258D01*
X131750367Y-104959313D01*
X131842941Y-104820766D01*
X131960766Y-104702941D01*
X132099313Y-104610367D01*
X132253258Y-104546601D01*
X132416685Y-104514093D01*
X132583315Y-104514093D01*
X132746742Y-104546601D01*
G37*
G36*
X158146742Y-104546601D02*
G01*
X158300687Y-104610367D01*
X158439234Y-104702941D01*
X158557059Y-104820766D01*
X158649633Y-104959313D01*
X158713399Y-105113258D01*
X158745907Y-105276685D01*
X158745907Y-105443315D01*
X158713399Y-105606742D01*
X158649633Y-105760687D01*
X158557059Y-105899234D01*
X158439234Y-106017059D01*
X158300687Y-106109633D01*
X158146742Y-106173399D01*
X157983315Y-106205907D01*
X157816685Y-106205907D01*
X157653258Y-106173399D01*
X157499313Y-106109633D01*
X157360766Y-106017059D01*
X157242941Y-105899234D01*
X157150367Y-105760687D01*
X157086601Y-105606742D01*
X157054093Y-105443315D01*
X157054093Y-105276685D01*
X157086601Y-105113258D01*
X157150367Y-104959313D01*
X157242941Y-104820766D01*
X157360766Y-104702941D01*
X157499313Y-104610367D01*
X157653258Y-104546601D01*
X157816685Y-104514093D01*
X157983315Y-104514093D01*
X158146742Y-104546601D01*
G37*
G36*
X132746742Y-102006601D02*
G01*
X132900687Y-102070367D01*
X133039234Y-102162941D01*
X133157059Y-102280766D01*
X133249633Y-102419313D01*
X133313399Y-102573258D01*
X133345907Y-102736685D01*
X133345907Y-102903315D01*
X133313399Y-103066742D01*
X133249633Y-103220687D01*
X133157059Y-103359234D01*
X133039234Y-103477059D01*
X132900687Y-103569633D01*
X132746742Y-103633399D01*
X132583315Y-103665907D01*
X132416685Y-103665907D01*
X132253258Y-103633399D01*
X132099313Y-103569633D01*
X131960766Y-103477059D01*
X131842941Y-103359234D01*
X131750367Y-103220687D01*
X131686601Y-103066742D01*
X131654093Y-102903315D01*
X131654093Y-102736685D01*
X131686601Y-102573258D01*
X131750367Y-102419313D01*
X131842941Y-102280766D01*
X131960766Y-102162941D01*
X132099313Y-102070367D01*
X132253258Y-102006601D01*
X132416685Y-101974093D01*
X132583315Y-101974093D01*
X132746742Y-102006601D01*
G37*
G36*
X158146742Y-102006601D02*
G01*
X158300687Y-102070367D01*
X158439234Y-102162941D01*
X158557059Y-102280766D01*
X158649633Y-102419313D01*
X158713399Y-102573258D01*
X158745907Y-102736685D01*
X158745907Y-102903315D01*
X158713399Y-103066742D01*
X158649633Y-103220687D01*
X158557059Y-103359234D01*
X158439234Y-103477059D01*
X158300687Y-103569633D01*
X158146742Y-103633399D01*
X157983315Y-103665907D01*
X157816685Y-103665907D01*
X157653258Y-103633399D01*
X157499313Y-103569633D01*
X157360766Y-103477059D01*
X157242941Y-103359234D01*
X157150367Y-103220687D01*
X157086601Y-103066742D01*
X157054093Y-102903315D01*
X157054093Y-102736685D01*
X157086601Y-102573258D01*
X157150367Y-102419313D01*
X157242941Y-102280766D01*
X157360766Y-102162941D01*
X157499313Y-102070367D01*
X157653258Y-102006601D01*
X157816685Y-101974093D01*
X157983315Y-101974093D01*
X158146742Y-102006601D01*
G37*
G36*
X123875000Y-102550000D02*
G01*
X123375000Y-102550000D01*
X123375000Y-102200000D01*
X123875000Y-102200000D01*
X123875000Y-102550000D01*
G37*
G36*
X125925000Y-102550000D02*
G01*
X125425000Y-102550000D01*
X125425000Y-102200000D01*
X125925000Y-102200000D01*
X125925000Y-102550000D01*
G37*
G36*
X123875000Y-101900000D02*
G01*
X123375000Y-101900000D01*
X123375000Y-101550000D01*
X123875000Y-101550000D01*
X123875000Y-101900000D01*
G37*
G36*
X125925000Y-101900000D02*
G01*
X125425000Y-101900000D01*
X125425000Y-101550000D01*
X125925000Y-101550000D01*
X125925000Y-101900000D01*
G37*
G36*
X123875000Y-101250000D02*
G01*
X123375000Y-101250000D01*
X123375000Y-100900000D01*
X123875000Y-100900000D01*
X123875000Y-101250000D01*
G37*
G36*
X125925000Y-101250000D02*
G01*
X125425000Y-101250000D01*
X125425000Y-100900000D01*
X125925000Y-100900000D01*
X125925000Y-101250000D01*
G37*
G36*
X132746742Y-99466601D02*
G01*
X132900687Y-99530367D01*
X133039234Y-99622941D01*
X133157059Y-99740766D01*
X133249633Y-99879313D01*
X133313399Y-100033258D01*
X133345907Y-100196685D01*
X133345907Y-100363315D01*
X133313399Y-100526742D01*
X133249633Y-100680687D01*
X133157059Y-100819234D01*
X133039234Y-100937059D01*
X132900687Y-101029633D01*
X132746742Y-101093399D01*
X132583315Y-101125907D01*
X132416685Y-101125907D01*
X132253258Y-101093399D01*
X132099313Y-101029633D01*
X131960766Y-100937059D01*
X131842941Y-100819234D01*
X131750367Y-100680687D01*
X131686601Y-100526742D01*
X131654093Y-100363315D01*
X131654093Y-100196685D01*
X131686601Y-100033258D01*
X131750367Y-99879313D01*
X131842941Y-99740766D01*
X131960766Y-99622941D01*
X132099313Y-99530367D01*
X132253258Y-99466601D01*
X132416685Y-99434093D01*
X132583315Y-99434093D01*
X132746742Y-99466601D01*
G37*
G36*
X158146742Y-99466601D02*
G01*
X158300687Y-99530367D01*
X158439234Y-99622941D01*
X158557059Y-99740766D01*
X158649633Y-99879313D01*
X158713399Y-100033258D01*
X158745907Y-100196685D01*
X158745907Y-100363315D01*
X158713399Y-100526742D01*
X158649633Y-100680687D01*
X158557059Y-100819234D01*
X158439234Y-100937059D01*
X158300687Y-101029633D01*
X158146742Y-101093399D01*
X157983315Y-101125907D01*
X157816685Y-101125907D01*
X157653258Y-101093399D01*
X157499313Y-101029633D01*
X157360766Y-100937059D01*
X157242941Y-100819234D01*
X157150367Y-100680687D01*
X157086601Y-100526742D01*
X157054093Y-100363315D01*
X157054093Y-100196685D01*
X157086601Y-100033258D01*
X157150367Y-99879313D01*
X157242941Y-99740766D01*
X157360766Y-99622941D01*
X157499313Y-99530367D01*
X157653258Y-99466601D01*
X157816685Y-99434093D01*
X157983315Y-99434093D01*
X158146742Y-99466601D01*
G37*
G36*
X123875000Y-100600000D02*
G01*
X123375000Y-100600000D01*
X123375000Y-100250000D01*
X123875000Y-100250000D01*
X123875000Y-100600000D01*
G37*
G36*
X125925000Y-100600000D02*
G01*
X125425000Y-100600000D01*
X125425000Y-100250000D01*
X125925000Y-100250000D01*
X125925000Y-100600000D01*
G37*
G36*
X132746742Y-96926601D02*
G01*
X132900687Y-96990367D01*
X133039234Y-97082941D01*
X133157059Y-97200766D01*
X133249633Y-97339313D01*
X133313399Y-97493258D01*
X133345907Y-97656685D01*
X133345907Y-97823315D01*
X133313399Y-97986742D01*
X133249633Y-98140687D01*
X133157059Y-98279234D01*
X133039234Y-98397059D01*
X132900687Y-98489633D01*
X132746742Y-98553399D01*
X132583315Y-98585907D01*
X132416685Y-98585907D01*
X132253258Y-98553399D01*
X132099313Y-98489633D01*
X131960766Y-98397059D01*
X131842941Y-98279234D01*
X131750367Y-98140687D01*
X131686601Y-97986742D01*
X131654093Y-97823315D01*
X131654093Y-97656685D01*
X131686601Y-97493258D01*
X131750367Y-97339313D01*
X131842941Y-97200766D01*
X131960766Y-97082941D01*
X132099313Y-96990367D01*
X132253258Y-96926601D01*
X132416685Y-96894093D01*
X132583315Y-96894093D01*
X132746742Y-96926601D01*
G37*
G36*
X158146742Y-96926601D02*
G01*
X158300687Y-96990367D01*
X158439234Y-97082941D01*
X158557059Y-97200766D01*
X158649633Y-97339313D01*
X158713399Y-97493258D01*
X158745907Y-97656685D01*
X158745907Y-97823315D01*
X158713399Y-97986742D01*
X158649633Y-98140687D01*
X158557059Y-98279234D01*
X158439234Y-98397059D01*
X158300687Y-98489633D01*
X158146742Y-98553399D01*
X157983315Y-98585907D01*
X157816685Y-98585907D01*
X157653258Y-98553399D01*
X157499313Y-98489633D01*
X157360766Y-98397059D01*
X157242941Y-98279234D01*
X157150367Y-98140687D01*
X157086601Y-97986742D01*
X157054093Y-97823315D01*
X157054093Y-97656685D01*
X157086601Y-97493258D01*
X157150367Y-97339313D01*
X157242941Y-97200766D01*
X157360766Y-97082941D01*
X157499313Y-96990367D01*
X157653258Y-96926601D01*
X157816685Y-96894093D01*
X157983315Y-96894093D01*
X158146742Y-96926601D01*
G37*
G36*
X132746742Y-94386601D02*
G01*
X132900687Y-94450367D01*
X133039234Y-94542941D01*
X133157059Y-94660766D01*
X133249633Y-94799313D01*
X133313399Y-94953258D01*
X133345907Y-95116685D01*
X133345907Y-95283315D01*
X133313399Y-95446742D01*
X133249633Y-95600687D01*
X133157059Y-95739234D01*
X133039234Y-95857059D01*
X132900687Y-95949633D01*
X132746742Y-96013399D01*
X132583315Y-96045907D01*
X132416685Y-96045907D01*
X132253258Y-96013399D01*
X132099313Y-95949633D01*
X131960766Y-95857059D01*
X131842941Y-95739234D01*
X131750367Y-95600687D01*
X131686601Y-95446742D01*
X131654093Y-95283315D01*
X131654093Y-95116685D01*
X131686601Y-94953258D01*
X131750367Y-94799313D01*
X131842941Y-94660766D01*
X131960766Y-94542941D01*
X132099313Y-94450367D01*
X132253258Y-94386601D01*
X132416685Y-94354093D01*
X132583315Y-94354093D01*
X132746742Y-94386601D01*
G37*
G36*
X158146742Y-94386601D02*
G01*
X158300687Y-94450367D01*
X158439234Y-94542941D01*
X158557059Y-94660766D01*
X158649633Y-94799313D01*
X158713399Y-94953258D01*
X158745907Y-95116685D01*
X158745907Y-95283315D01*
X158713399Y-95446742D01*
X158649633Y-95600687D01*
X158557059Y-95739234D01*
X158439234Y-95857059D01*
X158300687Y-95949633D01*
X158146742Y-96013399D01*
X157983315Y-96045907D01*
X157816685Y-96045907D01*
X157653258Y-96013399D01*
X157499313Y-95949633D01*
X157360766Y-95857059D01*
X157242941Y-95739234D01*
X157150367Y-95600687D01*
X157086601Y-95446742D01*
X157054093Y-95283315D01*
X157054093Y-95116685D01*
X157086601Y-94953258D01*
X157150367Y-94799313D01*
X157242941Y-94660766D01*
X157360766Y-94542941D01*
X157499313Y-94450367D01*
X157653258Y-94386601D01*
X157816685Y-94354093D01*
X157983315Y-94354093D01*
X158146742Y-94386601D01*
G37*
G36*
X132746742Y-91846601D02*
G01*
X132900687Y-91910367D01*
X133039234Y-92002941D01*
X133157059Y-92120766D01*
X133249633Y-92259313D01*
X133313399Y-92413258D01*
X133345907Y-92576685D01*
X133345907Y-92743315D01*
X133313399Y-92906742D01*
X133249633Y-93060687D01*
X133157059Y-93199234D01*
X133039234Y-93317059D01*
X132900687Y-93409633D01*
X132746742Y-93473399D01*
X132583315Y-93505907D01*
X132416685Y-93505907D01*
X132253258Y-93473399D01*
X132099313Y-93409633D01*
X131960766Y-93317059D01*
X131842941Y-93199234D01*
X131750367Y-93060687D01*
X131686601Y-92906742D01*
X131654093Y-92743315D01*
X131654093Y-92576685D01*
X131686601Y-92413258D01*
X131750367Y-92259313D01*
X131842941Y-92120766D01*
X131960766Y-92002941D01*
X132099313Y-91910367D01*
X132253258Y-91846601D01*
X132416685Y-91814093D01*
X132583315Y-91814093D01*
X132746742Y-91846601D01*
G37*
G36*
X158146742Y-91846601D02*
G01*
X158300687Y-91910367D01*
X158439234Y-92002941D01*
X158557059Y-92120766D01*
X158649633Y-92259313D01*
X158713399Y-92413258D01*
X158745907Y-92576685D01*
X158745907Y-92743315D01*
X158713399Y-92906742D01*
X158649633Y-93060687D01*
X158557059Y-93199234D01*
X158439234Y-93317059D01*
X158300687Y-93409633D01*
X158146742Y-93473399D01*
X157983315Y-93505907D01*
X157816685Y-93505907D01*
X157653258Y-93473399D01*
X157499313Y-93409633D01*
X157360766Y-93317059D01*
X157242941Y-93199234D01*
X157150367Y-93060687D01*
X157086601Y-92906742D01*
X157054093Y-92743315D01*
X157054093Y-92576685D01*
X157086601Y-92413258D01*
X157150367Y-92259313D01*
X157242941Y-92120766D01*
X157360766Y-92002941D01*
X157499313Y-91910367D01*
X157653258Y-91846601D01*
X157816685Y-91814093D01*
X157983315Y-91814093D01*
X158146742Y-91846601D01*
G37*
G36*
X121582001Y-90565590D02*
G01*
X121588022Y-90568533D01*
X121590688Y-90568956D01*
X121633319Y-90590677D01*
X121692904Y-90619807D01*
X121780193Y-90707096D01*
X121809340Y-90766719D01*
X121831043Y-90809312D01*
X121831464Y-90811974D01*
X121834410Y-90817999D01*
X121850000Y-90925000D01*
X121850000Y-91675000D01*
X121834410Y-91782001D01*
X121831464Y-91788025D01*
X121831043Y-91790688D01*
X121809345Y-91833270D01*
X121780193Y-91892904D01*
X121692904Y-91980193D01*
X121633256Y-92009352D01*
X121590687Y-92031043D01*
X121588026Y-92031464D01*
X121582001Y-92034410D01*
X121475000Y-92050000D01*
X120225000Y-92050000D01*
X120117999Y-92034410D01*
X120111974Y-92031464D01*
X120109311Y-92031043D01*
X120066704Y-92009333D01*
X120007096Y-91980193D01*
X119919807Y-91892904D01*
X119890670Y-91833304D01*
X119868956Y-91790687D01*
X119868534Y-91788023D01*
X119865590Y-91782001D01*
X119850000Y-91675000D01*
X119850000Y-90925000D01*
X119865590Y-90817999D01*
X119868533Y-90811977D01*
X119868956Y-90809311D01*
X119890689Y-90766656D01*
X119919807Y-90707096D01*
X120007096Y-90619807D01*
X120066670Y-90590682D01*
X120109312Y-90568956D01*
X120111977Y-90568533D01*
X120117999Y-90565590D01*
X120225000Y-90550000D01*
X121475000Y-90550000D01*
X121582001Y-90565590D01*
G37*
G36*
X132746742Y-89306601D02*
G01*
X132900687Y-89370367D01*
X133039234Y-89462941D01*
X133157059Y-89580766D01*
X133249633Y-89719313D01*
X133313399Y-89873258D01*
X133345907Y-90036685D01*
X133345907Y-90203315D01*
X133313399Y-90366742D01*
X133249633Y-90520687D01*
X133157059Y-90659234D01*
X133039234Y-90777059D01*
X132900687Y-90869633D01*
X132746742Y-90933399D01*
X132583315Y-90965907D01*
X132416685Y-90965907D01*
X132253258Y-90933399D01*
X132099313Y-90869633D01*
X131960766Y-90777059D01*
X131842941Y-90659234D01*
X131750367Y-90520687D01*
X131686601Y-90366742D01*
X131654093Y-90203315D01*
X131654093Y-90036685D01*
X131686601Y-89873258D01*
X131750367Y-89719313D01*
X131842941Y-89580766D01*
X131960766Y-89462941D01*
X132099313Y-89370367D01*
X132253258Y-89306601D01*
X132416685Y-89274093D01*
X132583315Y-89274093D01*
X132746742Y-89306601D01*
G37*
G36*
X158146742Y-89306601D02*
G01*
X158300687Y-89370367D01*
X158439234Y-89462941D01*
X158557059Y-89580766D01*
X158649633Y-89719313D01*
X158713399Y-89873258D01*
X158745907Y-90036685D01*
X158745907Y-90203315D01*
X158713399Y-90366742D01*
X158649633Y-90520687D01*
X158557059Y-90659234D01*
X158439234Y-90777059D01*
X158300687Y-90869633D01*
X158146742Y-90933399D01*
X157983315Y-90965907D01*
X157816685Y-90965907D01*
X157653258Y-90933399D01*
X157499313Y-90869633D01*
X157360766Y-90777059D01*
X157242941Y-90659234D01*
X157150367Y-90520687D01*
X157086601Y-90366742D01*
X157054093Y-90203315D01*
X157054093Y-90036685D01*
X157086601Y-89873258D01*
X157150367Y-89719313D01*
X157242941Y-89580766D01*
X157360766Y-89462941D01*
X157499313Y-89370367D01*
X157653258Y-89306601D01*
X157816685Y-89274093D01*
X157983315Y-89274093D01*
X158146742Y-89306601D01*
G37*
G36*
X127756283Y-87111427D02*
G01*
X127763012Y-87113936D01*
X127767860Y-87114519D01*
X127825247Y-87137149D01*
X127889624Y-87161161D01*
X127893506Y-87164067D01*
X127894819Y-87164585D01*
X127942589Y-87200810D01*
X128003553Y-87246447D01*
X128049207Y-87307435D01*
X128085414Y-87355180D01*
X128085931Y-87356491D01*
X128088839Y-87360376D01*
X128112857Y-87424771D01*
X128135480Y-87482138D01*
X128136062Y-87486984D01*
X128138573Y-87493717D01*
X128150000Y-87600000D01*
X128150000Y-90400000D01*
X128138573Y-90506283D01*
X128136061Y-90513015D01*
X128135480Y-90517860D01*
X128112867Y-90575200D01*
X128088839Y-90639624D01*
X128085930Y-90643509D01*
X128085414Y-90644819D01*
X128049266Y-90692487D01*
X128003553Y-90753553D01*
X127942487Y-90799266D01*
X127894819Y-90835414D01*
X127893509Y-90835930D01*
X127889624Y-90838839D01*
X127825210Y-90862864D01*
X127767861Y-90885480D01*
X127763015Y-90886061D01*
X127756283Y-90888573D01*
X127650000Y-90900000D01*
X126650000Y-90900000D01*
X126543717Y-90888573D01*
X126536984Y-90886061D01*
X126532139Y-90885480D01*
X126474781Y-90862861D01*
X126410376Y-90838839D01*
X126406491Y-90835931D01*
X126405180Y-90835414D01*
X126357435Y-90799207D01*
X126296447Y-90753553D01*
X126250810Y-90692589D01*
X126214585Y-90644819D01*
X126214067Y-90643506D01*
X126211161Y-90639624D01*
X126187153Y-90575257D01*
X126164519Y-90517861D01*
X126163936Y-90513011D01*
X126161427Y-90506283D01*
X126150000Y-90400000D01*
X126150000Y-87600000D01*
X126161427Y-87493717D01*
X126163936Y-87486988D01*
X126164519Y-87482139D01*
X126187156Y-87424734D01*
X126211161Y-87360376D01*
X126214066Y-87356494D01*
X126214585Y-87355180D01*
X126250868Y-87307332D01*
X126296447Y-87246447D01*
X126357332Y-87200868D01*
X126405180Y-87164585D01*
X126406494Y-87164066D01*
X126410376Y-87161161D01*
X126474724Y-87137160D01*
X126532138Y-87114519D01*
X126536988Y-87113936D01*
X126543717Y-87111427D01*
X126650000Y-87100000D01*
X127650000Y-87100000D01*
X127756283Y-87111427D01*
G37*
G36*
X121582001Y-88265590D02*
G01*
X121588022Y-88268533D01*
X121590688Y-88268956D01*
X121633319Y-88290677D01*
X121692904Y-88319807D01*
X121780193Y-88407096D01*
X121809340Y-88466719D01*
X121831043Y-88509312D01*
X121831464Y-88511974D01*
X121834410Y-88517999D01*
X121850000Y-88625000D01*
X121850000Y-89375000D01*
X121834410Y-89482001D01*
X121831464Y-89488025D01*
X121831043Y-89490688D01*
X121809345Y-89533270D01*
X121780193Y-89592904D01*
X121692904Y-89680193D01*
X121633256Y-89709352D01*
X121590687Y-89731043D01*
X121588026Y-89731464D01*
X121582001Y-89734410D01*
X121475000Y-89750000D01*
X120225000Y-89750000D01*
X120117999Y-89734410D01*
X120111974Y-89731464D01*
X120109311Y-89731043D01*
X120066704Y-89709333D01*
X120007096Y-89680193D01*
X119919807Y-89592904D01*
X119890670Y-89533304D01*
X119868956Y-89490687D01*
X119868534Y-89488023D01*
X119865590Y-89482001D01*
X119850000Y-89375000D01*
X119850000Y-88625000D01*
X119865590Y-88517999D01*
X119868533Y-88511977D01*
X119868956Y-88509311D01*
X119890689Y-88466656D01*
X119919807Y-88407096D01*
X120007096Y-88319807D01*
X120066670Y-88290682D01*
X120109312Y-88268956D01*
X120111977Y-88268533D01*
X120117999Y-88265590D01*
X120225000Y-88250000D01*
X121475000Y-88250000D01*
X121582001Y-88265590D01*
G37*
G36*
X132746742Y-86766601D02*
G01*
X132900687Y-86830367D01*
X133039234Y-86922941D01*
X133157059Y-87040766D01*
X133249633Y-87179313D01*
X133313399Y-87333258D01*
X133345907Y-87496685D01*
X133345907Y-87663315D01*
X133313399Y-87826742D01*
X133249633Y-87980687D01*
X133157059Y-88119234D01*
X133039234Y-88237059D01*
X132900687Y-88329633D01*
X132746742Y-88393399D01*
X132583315Y-88425907D01*
X132416685Y-88425907D01*
X132253258Y-88393399D01*
X132099313Y-88329633D01*
X131960766Y-88237059D01*
X131842941Y-88119234D01*
X131750367Y-87980687D01*
X131686601Y-87826742D01*
X131654093Y-87663315D01*
X131654093Y-87496685D01*
X131686601Y-87333258D01*
X131750367Y-87179313D01*
X131842941Y-87040766D01*
X131960766Y-86922941D01*
X132099313Y-86830367D01*
X132253258Y-86766601D01*
X132416685Y-86734093D01*
X132583315Y-86734093D01*
X132746742Y-86766601D01*
G37*
G36*
X158146742Y-86766601D02*
G01*
X158300687Y-86830367D01*
X158439234Y-86922941D01*
X158557059Y-87040766D01*
X158649633Y-87179313D01*
X158713399Y-87333258D01*
X158745907Y-87496685D01*
X158745907Y-87663315D01*
X158713399Y-87826742D01*
X158649633Y-87980687D01*
X158557059Y-88119234D01*
X158439234Y-88237059D01*
X158300687Y-88329633D01*
X158146742Y-88393399D01*
X157983315Y-88425907D01*
X157816685Y-88425907D01*
X157653258Y-88393399D01*
X157499313Y-88329633D01*
X157360766Y-88237059D01*
X157242941Y-88119234D01*
X157150367Y-87980687D01*
X157086601Y-87826742D01*
X157054093Y-87663315D01*
X157054093Y-87496685D01*
X157086601Y-87333258D01*
X157150367Y-87179313D01*
X157242941Y-87040766D01*
X157360766Y-86922941D01*
X157499313Y-86830367D01*
X157653258Y-86766601D01*
X157816685Y-86734093D01*
X157983315Y-86734093D01*
X158146742Y-86766601D01*
G37*
G36*
X121582001Y-85965590D02*
G01*
X121588022Y-85968533D01*
X121590688Y-85968956D01*
X121633319Y-85990677D01*
X121692904Y-86019807D01*
X121780193Y-86107096D01*
X121809340Y-86166719D01*
X121831043Y-86209312D01*
X121831464Y-86211974D01*
X121834410Y-86217999D01*
X121850000Y-86325000D01*
X121850000Y-87075000D01*
X121834410Y-87182001D01*
X121831464Y-87188025D01*
X121831043Y-87190688D01*
X121809345Y-87233270D01*
X121780193Y-87292904D01*
X121692904Y-87380193D01*
X121633256Y-87409352D01*
X121590687Y-87431043D01*
X121588026Y-87431464D01*
X121582001Y-87434410D01*
X121475000Y-87450000D01*
X120225000Y-87450000D01*
X120117999Y-87434410D01*
X120111974Y-87431464D01*
X120109311Y-87431043D01*
X120066704Y-87409333D01*
X120007096Y-87380193D01*
X119919807Y-87292904D01*
X119890670Y-87233304D01*
X119868956Y-87190687D01*
X119868534Y-87188023D01*
X119865590Y-87182001D01*
X119850000Y-87075000D01*
X119850000Y-86325000D01*
X119865590Y-86217999D01*
X119868533Y-86211977D01*
X119868956Y-86209311D01*
X119890689Y-86166656D01*
X119919807Y-86107096D01*
X120007096Y-86019807D01*
X120066670Y-85990682D01*
X120109312Y-85968956D01*
X120111977Y-85968533D01*
X120117999Y-85965590D01*
X120225000Y-85950000D01*
X121475000Y-85950000D01*
X121582001Y-85965590D01*
G37*
G36*
X132746742Y-84226601D02*
G01*
X132900687Y-84290367D01*
X133039234Y-84382941D01*
X133157059Y-84500766D01*
X133249633Y-84639313D01*
X133313399Y-84793258D01*
X133345907Y-84956685D01*
X133345907Y-85123315D01*
X133313399Y-85286742D01*
X133249633Y-85440687D01*
X133157059Y-85579234D01*
X133039234Y-85697059D01*
X132900687Y-85789633D01*
X132746742Y-85853399D01*
X132583315Y-85885907D01*
X132416685Y-85885907D01*
X132253258Y-85853399D01*
X132099313Y-85789633D01*
X131960766Y-85697059D01*
X131842941Y-85579234D01*
X131750367Y-85440687D01*
X131686601Y-85286742D01*
X131654093Y-85123315D01*
X131654093Y-84956685D01*
X131686601Y-84793258D01*
X131750367Y-84639313D01*
X131842941Y-84500766D01*
X131960766Y-84382941D01*
X132099313Y-84290367D01*
X132253258Y-84226601D01*
X132416685Y-84194093D01*
X132583315Y-84194093D01*
X132746742Y-84226601D01*
G37*
G36*
X158146742Y-84226601D02*
G01*
X158300687Y-84290367D01*
X158439234Y-84382941D01*
X158557059Y-84500766D01*
X158649633Y-84639313D01*
X158713399Y-84793258D01*
X158745907Y-84956685D01*
X158745907Y-85123315D01*
X158713399Y-85286742D01*
X158649633Y-85440687D01*
X158557059Y-85579234D01*
X158439234Y-85697059D01*
X158300687Y-85789633D01*
X158146742Y-85853399D01*
X157983315Y-85885907D01*
X157816685Y-85885907D01*
X157653258Y-85853399D01*
X157499313Y-85789633D01*
X157360766Y-85697059D01*
X157242941Y-85579234D01*
X157150367Y-85440687D01*
X157086601Y-85286742D01*
X157054093Y-85123315D01*
X157054093Y-84956685D01*
X157086601Y-84793258D01*
X157150367Y-84639313D01*
X157242941Y-84500766D01*
X157360766Y-84382941D01*
X157499313Y-84290367D01*
X157653258Y-84226601D01*
X157816685Y-84194093D01*
X157983315Y-84194093D01*
X158146742Y-84226601D01*
G37*
G36*
X120244116Y-83175818D02*
G01*
X120295379Y-83181766D01*
X120312892Y-83189499D01*
X120335671Y-83194030D01*
X120360057Y-83210324D01*
X120380788Y-83219478D01*
X120394946Y-83233636D01*
X120416777Y-83248223D01*
X120431363Y-83270053D01*
X120445521Y-83284211D01*
X120454673Y-83304939D01*
X120470970Y-83329329D01*
X120475501Y-83352109D01*
X120483233Y-83369620D01*
X120489178Y-83420872D01*
X120490000Y-83425000D01*
X120490000Y-84375000D01*
X120489178Y-84379128D01*
X120483233Y-84430379D01*
X120475501Y-84447888D01*
X120470970Y-84470671D01*
X120454672Y-84495062D01*
X120445521Y-84515788D01*
X120431365Y-84529943D01*
X120416777Y-84551777D01*
X120394943Y-84566365D01*
X120380788Y-84580521D01*
X120360062Y-84589672D01*
X120335671Y-84605970D01*
X120312888Y-84610501D01*
X120295379Y-84618233D01*
X120244129Y-84624178D01*
X120240000Y-84625000D01*
X119740000Y-84625000D01*
X119735873Y-84624179D01*
X119684620Y-84618233D01*
X119667109Y-84610501D01*
X119644329Y-84605970D01*
X119619939Y-84589673D01*
X119599211Y-84580521D01*
X119585053Y-84566363D01*
X119563223Y-84551777D01*
X119548636Y-84529946D01*
X119534478Y-84515788D01*
X119525324Y-84495057D01*
X119509030Y-84470671D01*
X119504499Y-84447892D01*
X119496766Y-84430379D01*
X119490818Y-84379117D01*
X119490000Y-84375000D01*
X119490000Y-83425000D01*
X119490818Y-83420885D01*
X119496766Y-83369620D01*
X119504499Y-83352105D01*
X119509030Y-83329329D01*
X119525323Y-83304944D01*
X119534478Y-83284211D01*
X119548638Y-83270050D01*
X119563223Y-83248223D01*
X119585050Y-83233638D01*
X119599211Y-83219478D01*
X119619944Y-83210323D01*
X119644329Y-83194030D01*
X119667105Y-83189499D01*
X119684620Y-83181766D01*
X119735884Y-83175818D01*
X119740000Y-83175000D01*
X120240000Y-83175000D01*
X120244116Y-83175818D01*
G37*
G36*
X122144116Y-83175818D02*
G01*
X122195379Y-83181766D01*
X122212892Y-83189499D01*
X122235671Y-83194030D01*
X122260057Y-83210324D01*
X122280788Y-83219478D01*
X122294946Y-83233636D01*
X122316777Y-83248223D01*
X122331363Y-83270053D01*
X122345521Y-83284211D01*
X122354673Y-83304939D01*
X122370970Y-83329329D01*
X122375501Y-83352109D01*
X122383233Y-83369620D01*
X122389178Y-83420872D01*
X122390000Y-83425000D01*
X122390000Y-84375000D01*
X122389178Y-84379128D01*
X122383233Y-84430379D01*
X122375501Y-84447888D01*
X122370970Y-84470671D01*
X122354672Y-84495062D01*
X122345521Y-84515788D01*
X122331365Y-84529943D01*
X122316777Y-84551777D01*
X122294943Y-84566365D01*
X122280788Y-84580521D01*
X122260062Y-84589672D01*
X122235671Y-84605970D01*
X122212888Y-84610501D01*
X122195379Y-84618233D01*
X122144129Y-84624178D01*
X122140000Y-84625000D01*
X121640000Y-84625000D01*
X121635873Y-84624179D01*
X121584620Y-84618233D01*
X121567109Y-84610501D01*
X121544329Y-84605970D01*
X121519939Y-84589673D01*
X121499211Y-84580521D01*
X121485053Y-84566363D01*
X121463223Y-84551777D01*
X121448636Y-84529946D01*
X121434478Y-84515788D01*
X121425324Y-84495057D01*
X121409030Y-84470671D01*
X121404499Y-84447892D01*
X121396766Y-84430379D01*
X121390818Y-84379117D01*
X121390000Y-84375000D01*
X121390000Y-83425000D01*
X121390818Y-83420885D01*
X121396766Y-83369620D01*
X121404499Y-83352105D01*
X121409030Y-83329329D01*
X121425323Y-83304944D01*
X121434478Y-83284211D01*
X121448638Y-83270050D01*
X121463223Y-83248223D01*
X121485050Y-83233638D01*
X121499211Y-83219478D01*
X121519944Y-83210323D01*
X121544329Y-83194030D01*
X121567105Y-83189499D01*
X121584620Y-83181766D01*
X121635884Y-83175818D01*
X121640000Y-83175000D01*
X122140000Y-83175000D01*
X122144116Y-83175818D01*
G37*
G36*
X123694116Y-83175818D02*
G01*
X123745379Y-83181766D01*
X123762892Y-83189499D01*
X123785671Y-83194030D01*
X123810057Y-83210324D01*
X123830788Y-83219478D01*
X123844946Y-83233636D01*
X123866777Y-83248223D01*
X123881363Y-83270053D01*
X123895521Y-83284211D01*
X123904673Y-83304939D01*
X123920970Y-83329329D01*
X123925501Y-83352109D01*
X123933233Y-83369620D01*
X123939178Y-83420872D01*
X123940000Y-83425000D01*
X123940000Y-84375000D01*
X123939178Y-84379128D01*
X123933233Y-84430379D01*
X123925501Y-84447888D01*
X123920970Y-84470671D01*
X123904672Y-84495062D01*
X123895521Y-84515788D01*
X123881365Y-84529943D01*
X123866777Y-84551777D01*
X123844943Y-84566365D01*
X123830788Y-84580521D01*
X123810062Y-84589672D01*
X123785671Y-84605970D01*
X123762888Y-84610501D01*
X123745379Y-84618233D01*
X123694129Y-84624178D01*
X123690000Y-84625000D01*
X123190000Y-84625000D01*
X123185873Y-84624179D01*
X123134620Y-84618233D01*
X123117109Y-84610501D01*
X123094329Y-84605970D01*
X123069939Y-84589673D01*
X123049211Y-84580521D01*
X123035053Y-84566363D01*
X123013223Y-84551777D01*
X122998636Y-84529946D01*
X122984478Y-84515788D01*
X122975324Y-84495057D01*
X122959030Y-84470671D01*
X122954499Y-84447892D01*
X122946766Y-84430379D01*
X122940818Y-84379117D01*
X122940000Y-84375000D01*
X122940000Y-83425000D01*
X122940818Y-83420885D01*
X122946766Y-83369620D01*
X122954499Y-83352105D01*
X122959030Y-83329329D01*
X122975323Y-83304944D01*
X122984478Y-83284211D01*
X122998638Y-83270050D01*
X123013223Y-83248223D01*
X123035050Y-83233638D01*
X123049211Y-83219478D01*
X123069944Y-83210323D01*
X123094329Y-83194030D01*
X123117105Y-83189499D01*
X123134620Y-83181766D01*
X123185884Y-83175818D01*
X123190000Y-83175000D01*
X123690000Y-83175000D01*
X123694116Y-83175818D01*
G37*
G36*
X125594116Y-83175818D02*
G01*
X125645379Y-83181766D01*
X125662892Y-83189499D01*
X125685671Y-83194030D01*
X125710057Y-83210324D01*
X125730788Y-83219478D01*
X125744946Y-83233636D01*
X125766777Y-83248223D01*
X125781363Y-83270053D01*
X125795521Y-83284211D01*
X125804673Y-83304939D01*
X125820970Y-83329329D01*
X125825501Y-83352109D01*
X125833233Y-83369620D01*
X125839178Y-83420872D01*
X125840000Y-83425000D01*
X125840000Y-84375000D01*
X125839178Y-84379128D01*
X125833233Y-84430379D01*
X125825501Y-84447888D01*
X125820970Y-84470671D01*
X125804672Y-84495062D01*
X125795521Y-84515788D01*
X125781365Y-84529943D01*
X125766777Y-84551777D01*
X125744943Y-84566365D01*
X125730788Y-84580521D01*
X125710062Y-84589672D01*
X125685671Y-84605970D01*
X125662888Y-84610501D01*
X125645379Y-84618233D01*
X125594129Y-84624178D01*
X125590000Y-84625000D01*
X125090000Y-84625000D01*
X125085873Y-84624179D01*
X125034620Y-84618233D01*
X125017109Y-84610501D01*
X124994329Y-84605970D01*
X124969939Y-84589673D01*
X124949211Y-84580521D01*
X124935053Y-84566363D01*
X124913223Y-84551777D01*
X124898636Y-84529946D01*
X124884478Y-84515788D01*
X124875324Y-84495057D01*
X124859030Y-84470671D01*
X124854499Y-84447892D01*
X124846766Y-84430379D01*
X124840818Y-84379117D01*
X124840000Y-84375000D01*
X124840000Y-83425000D01*
X124840818Y-83420885D01*
X124846766Y-83369620D01*
X124854499Y-83352105D01*
X124859030Y-83329329D01*
X124875323Y-83304944D01*
X124884478Y-83284211D01*
X124898638Y-83270050D01*
X124913223Y-83248223D01*
X124935050Y-83233638D01*
X124949211Y-83219478D01*
X124969944Y-83210323D01*
X124994329Y-83194030D01*
X125017105Y-83189499D01*
X125034620Y-83181766D01*
X125085884Y-83175818D01*
X125090000Y-83175000D01*
X125590000Y-83175000D01*
X125594116Y-83175818D01*
G37*
G36*
X132746742Y-81686601D02*
G01*
X132900687Y-81750367D01*
X133039234Y-81842941D01*
X133157059Y-81960766D01*
X133249633Y-82099313D01*
X133313399Y-82253258D01*
X133345907Y-82416685D01*
X133345907Y-82583315D01*
X133313399Y-82746742D01*
X133249633Y-82900687D01*
X133157059Y-83039234D01*
X133039234Y-83157059D01*
X132900687Y-83249633D01*
X132746742Y-83313399D01*
X132583315Y-83345907D01*
X132416685Y-83345907D01*
X132253258Y-83313399D01*
X132099313Y-83249633D01*
X131960766Y-83157059D01*
X131842941Y-83039234D01*
X131750367Y-82900687D01*
X131686601Y-82746742D01*
X131654093Y-82583315D01*
X131654093Y-82416685D01*
X131686601Y-82253258D01*
X131750367Y-82099313D01*
X131842941Y-81960766D01*
X131960766Y-81842941D01*
X132099313Y-81750367D01*
X132253258Y-81686601D01*
X132416685Y-81654093D01*
X132583315Y-81654093D01*
X132746742Y-81686601D01*
G37*
G36*
X158146742Y-81686601D02*
G01*
X158300687Y-81750367D01*
X158439234Y-81842941D01*
X158557059Y-81960766D01*
X158649633Y-82099313D01*
X158713399Y-82253258D01*
X158745907Y-82416685D01*
X158745907Y-82583315D01*
X158713399Y-82746742D01*
X158649633Y-82900687D01*
X158557059Y-83039234D01*
X158439234Y-83157059D01*
X158300687Y-83249633D01*
X158146742Y-83313399D01*
X157983315Y-83345907D01*
X157816685Y-83345907D01*
X157653258Y-83313399D01*
X157499313Y-83249633D01*
X157360766Y-83157059D01*
X157242941Y-83039234D01*
X157150367Y-82900687D01*
X157086601Y-82746742D01*
X157054093Y-82583315D01*
X157054093Y-82416685D01*
X157086601Y-82253258D01*
X157150367Y-82099313D01*
X157242941Y-81960766D01*
X157360766Y-81842941D01*
X157499313Y-81750367D01*
X157653258Y-81686601D01*
X157816685Y-81654093D01*
X157983315Y-81654093D01*
X158146742Y-81686601D01*
G37*
G36*
X132746742Y-79146601D02*
G01*
X132900687Y-79210367D01*
X133039234Y-79302941D01*
X133157059Y-79420766D01*
X133249633Y-79559313D01*
X133313399Y-79713258D01*
X133345907Y-79876685D01*
X133345907Y-80043315D01*
X133313399Y-80206742D01*
X133249633Y-80360687D01*
X133157059Y-80499234D01*
X133039234Y-80617059D01*
X132900687Y-80709633D01*
X132746742Y-80773399D01*
X132583315Y-80805907D01*
X132416685Y-80805907D01*
X132253258Y-80773399D01*
X132099313Y-80709633D01*
X131960766Y-80617059D01*
X131842941Y-80499234D01*
X131750367Y-80360687D01*
X131686601Y-80206742D01*
X131654093Y-80043315D01*
X131654093Y-79876685D01*
X131686601Y-79713258D01*
X131750367Y-79559313D01*
X131842941Y-79420766D01*
X131960766Y-79302941D01*
X132099313Y-79210367D01*
X132253258Y-79146601D01*
X132416685Y-79114093D01*
X132583315Y-79114093D01*
X132746742Y-79146601D01*
G37*
G36*
X158146742Y-79146601D02*
G01*
X158300687Y-79210367D01*
X158439234Y-79302941D01*
X158557059Y-79420766D01*
X158649633Y-79559313D01*
X158713399Y-79713258D01*
X158745907Y-79876685D01*
X158745907Y-80043315D01*
X158713399Y-80206742D01*
X158649633Y-80360687D01*
X158557059Y-80499234D01*
X158439234Y-80617059D01*
X158300687Y-80709633D01*
X158146742Y-80773399D01*
X157983315Y-80805907D01*
X157816685Y-80805907D01*
X157653258Y-80773399D01*
X157499313Y-80709633D01*
X157360766Y-80617059D01*
X157242941Y-80499234D01*
X157150367Y-80360687D01*
X157086601Y-80206742D01*
X157054093Y-80043315D01*
X157054093Y-79876685D01*
X157086601Y-79713258D01*
X157150367Y-79559313D01*
X157242941Y-79420766D01*
X157360766Y-79302941D01*
X157499313Y-79210367D01*
X157653258Y-79146601D01*
X157816685Y-79114093D01*
X157983315Y-79114093D01*
X158146742Y-79146601D01*
G37*
G36*
X133350000Y-78270000D02*
G01*
X131650000Y-78270000D01*
X131650000Y-76570000D01*
X133350000Y-76570000D01*
X133350000Y-78270000D01*
G37*
G36*
X158750000Y-78270000D02*
G01*
X157050000Y-78270000D01*
X157050000Y-76570000D01*
X158750000Y-76570000D01*
X158750000Y-78270000D01*
G37*
G36*
X120831836Y-76116353D02*
G01*
X120902804Y-76163772D01*
X120950223Y-76234740D01*
X120966874Y-76318452D01*
X120966874Y-76830952D01*
X120950223Y-76914664D01*
X120902804Y-76985632D01*
X120831836Y-77033051D01*
X120748124Y-77049702D01*
X120310624Y-77049702D01*
X120226912Y-77033051D01*
X120155944Y-76985632D01*
X120108525Y-76914664D01*
X120091874Y-76830952D01*
X120091874Y-76318452D01*
X120108525Y-76234740D01*
X120155944Y-76163772D01*
X120226912Y-76116353D01*
X120310624Y-76099702D01*
X120748124Y-76099702D01*
X120831836Y-76116353D01*
G37*
G36*
X122406836Y-76116353D02*
G01*
X122477804Y-76163772D01*
X122525223Y-76234740D01*
X122541874Y-76318452D01*
X122541874Y-76830952D01*
X122525223Y-76914664D01*
X122477804Y-76985632D01*
X122406836Y-77033051D01*
X122323124Y-77049702D01*
X121885624Y-77049702D01*
X121801912Y-77033051D01*
X121730944Y-76985632D01*
X121683525Y-76914664D01*
X121666874Y-76830952D01*
X121666874Y-76318452D01*
X121683525Y-76234740D01*
X121730944Y-76163772D01*
X121801912Y-76116353D01*
X121885624Y-76099702D01*
X122323124Y-76099702D01*
X122406836Y-76116353D01*
G37*
G36*
X142306800Y-70323312D02*
G01*
X142358063Y-70329260D01*
X142375576Y-70336993D01*
X142398355Y-70341524D01*
X142422741Y-70357818D01*
X142443472Y-70366972D01*
X142457630Y-70381130D01*
X142479461Y-70395717D01*
X142494047Y-70417547D01*
X142508205Y-70431705D01*
X142517357Y-70452433D01*
X142533654Y-70476823D01*
X142538185Y-70499603D01*
X142545917Y-70517114D01*
X142551862Y-70568366D01*
X142552684Y-70572494D01*
X142552684Y-71522494D01*
X142551862Y-71526622D01*
X142545917Y-71577873D01*
X142538185Y-71595382D01*
X142533654Y-71618165D01*
X142517356Y-71642556D01*
X142508205Y-71663282D01*
X142494049Y-71677437D01*
X142479461Y-71699271D01*
X142457627Y-71713859D01*
X142443472Y-71728015D01*
X142422746Y-71737166D01*
X142398355Y-71753464D01*
X142375572Y-71757995D01*
X142358063Y-71765727D01*
X142306813Y-71771672D01*
X142302684Y-71772494D01*
X141802684Y-71772494D01*
X141798557Y-71771673D01*
X141747304Y-71765727D01*
X141729793Y-71757995D01*
X141707013Y-71753464D01*
X141682623Y-71737167D01*
X141661895Y-71728015D01*
X141647737Y-71713857D01*
X141625907Y-71699271D01*
X141611320Y-71677440D01*
X141597162Y-71663282D01*
X141588008Y-71642551D01*
X141571714Y-71618165D01*
X141567183Y-71595386D01*
X141559450Y-71577873D01*
X141553502Y-71526611D01*
X141552684Y-71522494D01*
X141552684Y-70572494D01*
X141553502Y-70568379D01*
X141559450Y-70517114D01*
X141567183Y-70499599D01*
X141571714Y-70476823D01*
X141588007Y-70452438D01*
X141597162Y-70431705D01*
X141611322Y-70417544D01*
X141625907Y-70395717D01*
X141647734Y-70381132D01*
X141661895Y-70366972D01*
X141682628Y-70357817D01*
X141707013Y-70341524D01*
X141729789Y-70336993D01*
X141747304Y-70329260D01*
X141798568Y-70323312D01*
X141802684Y-70322494D01*
X142302684Y-70322494D01*
X142306800Y-70323312D01*
G37*
G36*
X144206800Y-70323312D02*
G01*
X144258063Y-70329260D01*
X144275576Y-70336993D01*
X144298355Y-70341524D01*
X144322741Y-70357818D01*
X144343472Y-70366972D01*
X144357630Y-70381130D01*
X144379461Y-70395717D01*
X144394047Y-70417547D01*
X144408205Y-70431705D01*
X144417357Y-70452433D01*
X144433654Y-70476823D01*
X144438185Y-70499603D01*
X144445917Y-70517114D01*
X144451862Y-70568366D01*
X144452684Y-70572494D01*
X144452684Y-71522494D01*
X144451862Y-71526622D01*
X144445917Y-71577873D01*
X144438185Y-71595382D01*
X144433654Y-71618165D01*
X144417356Y-71642556D01*
X144408205Y-71663282D01*
X144394049Y-71677437D01*
X144379461Y-71699271D01*
X144357627Y-71713859D01*
X144343472Y-71728015D01*
X144322746Y-71737166D01*
X144298355Y-71753464D01*
X144275572Y-71757995D01*
X144258063Y-71765727D01*
X144206813Y-71771672D01*
X144202684Y-71772494D01*
X143702684Y-71772494D01*
X143698557Y-71771673D01*
X143647304Y-71765727D01*
X143629793Y-71757995D01*
X143607013Y-71753464D01*
X143582623Y-71737167D01*
X143561895Y-71728015D01*
X143547737Y-71713857D01*
X143525907Y-71699271D01*
X143511320Y-71677440D01*
X143497162Y-71663282D01*
X143488008Y-71642551D01*
X143471714Y-71618165D01*
X143467183Y-71595386D01*
X143459450Y-71577873D01*
X143453502Y-71526611D01*
X143452684Y-71522494D01*
X143452684Y-70572494D01*
X143453502Y-70568379D01*
X143459450Y-70517114D01*
X143467183Y-70499599D01*
X143471714Y-70476823D01*
X143488007Y-70452438D01*
X143497162Y-70431705D01*
X143511322Y-70417544D01*
X143525907Y-70395717D01*
X143547734Y-70381132D01*
X143561895Y-70366972D01*
X143582628Y-70357817D01*
X143607013Y-70341524D01*
X143629789Y-70336993D01*
X143647304Y-70329260D01*
X143698568Y-70323312D01*
X143702684Y-70322494D01*
X144202684Y-70322494D01*
X144206800Y-70323312D01*
G37*
G36*
X137454221Y-70587718D02*
G01*
X137519105Y-70631073D01*
X137562460Y-70695957D01*
X137577684Y-70772494D01*
X137577684Y-71322494D01*
X137562460Y-71399031D01*
X137519105Y-71463915D01*
X137454221Y-71507270D01*
X137377684Y-71522494D01*
X136977684Y-71522494D01*
X136901147Y-71507270D01*
X136836263Y-71463915D01*
X136792908Y-71399031D01*
X136777684Y-71322494D01*
X136777684Y-70772494D01*
X136792908Y-70695957D01*
X136836263Y-70631073D01*
X136901147Y-70587718D01*
X136977684Y-70572494D01*
X137377684Y-70572494D01*
X137454221Y-70587718D01*
G37*
G36*
X139104221Y-70587718D02*
G01*
X139169105Y-70631073D01*
X139212460Y-70695957D01*
X139227684Y-70772494D01*
X139227684Y-71322494D01*
X139212460Y-71399031D01*
X139169105Y-71463915D01*
X139104221Y-71507270D01*
X139027684Y-71522494D01*
X138627684Y-71522494D01*
X138551147Y-71507270D01*
X138486263Y-71463915D01*
X138442908Y-71399031D01*
X138427684Y-71322494D01*
X138427684Y-70772494D01*
X138442908Y-70695957D01*
X138486263Y-70631073D01*
X138551147Y-70587718D01*
X138627684Y-70572494D01*
X139027684Y-70572494D01*
X139104221Y-70587718D01*
G37*
G36*
X119683843Y-68069710D02*
G01*
X119796882Y-68134973D01*
X119889178Y-68227269D01*
X119954441Y-68340308D01*
X119988223Y-68466387D01*
X119992501Y-68531650D01*
X119992501Y-69131650D01*
X119988223Y-69196913D01*
X119954441Y-69322992D01*
X119889178Y-69436031D01*
X119796882Y-69528327D01*
X119683843Y-69593590D01*
X119557764Y-69627372D01*
X119427238Y-69627372D01*
X119301159Y-69593590D01*
X119188120Y-69528327D01*
X119095824Y-69436031D01*
X119030561Y-69322992D01*
X118996779Y-69196913D01*
X118992501Y-69131650D01*
X118992501Y-68531650D01*
X118996779Y-68466387D01*
X119030561Y-68340308D01*
X119095824Y-68227269D01*
X119188120Y-68134973D01*
X119301159Y-68069710D01*
X119427238Y-68035928D01*
X119557764Y-68035928D01*
X119683843Y-68069710D01*
G37*
G36*
X128323843Y-68069710D02*
G01*
X128436882Y-68134973D01*
X128529178Y-68227269D01*
X128594441Y-68340308D01*
X128628223Y-68466387D01*
X128632501Y-68531650D01*
X128632501Y-69131650D01*
X128628223Y-69196913D01*
X128594441Y-69322992D01*
X128529178Y-69436031D01*
X128436882Y-69528327D01*
X128323843Y-69593590D01*
X128197764Y-69627372D01*
X128067238Y-69627372D01*
X127941159Y-69593590D01*
X127828120Y-69528327D01*
X127735824Y-69436031D01*
X127670561Y-69322992D01*
X127636779Y-69196913D01*
X127632501Y-69131650D01*
X127632501Y-68531650D01*
X127636779Y-68466387D01*
X127670561Y-68340308D01*
X127735824Y-68227269D01*
X127828120Y-68134973D01*
X127941159Y-68069710D01*
X128067238Y-68035928D01*
X128197764Y-68035928D01*
X128323843Y-68069710D01*
G37*
G36*
X142306800Y-67823312D02*
G01*
X142358063Y-67829260D01*
X142375576Y-67836993D01*
X142398355Y-67841524D01*
X142422741Y-67857818D01*
X142443472Y-67866972D01*
X142457630Y-67881130D01*
X142479461Y-67895717D01*
X142494047Y-67917547D01*
X142508205Y-67931705D01*
X142517357Y-67952433D01*
X142533654Y-67976823D01*
X142538185Y-67999603D01*
X142545917Y-68017114D01*
X142551862Y-68068366D01*
X142552684Y-68072494D01*
X142552684Y-69022494D01*
X142551862Y-69026622D01*
X142545917Y-69077873D01*
X142538185Y-69095382D01*
X142533654Y-69118165D01*
X142517356Y-69142556D01*
X142508205Y-69163282D01*
X142494049Y-69177437D01*
X142479461Y-69199271D01*
X142457627Y-69213859D01*
X142443472Y-69228015D01*
X142422746Y-69237166D01*
X142398355Y-69253464D01*
X142375572Y-69257995D01*
X142358063Y-69265727D01*
X142306813Y-69271672D01*
X142302684Y-69272494D01*
X141802684Y-69272494D01*
X141798557Y-69271673D01*
X141747304Y-69265727D01*
X141729793Y-69257995D01*
X141707013Y-69253464D01*
X141682623Y-69237167D01*
X141661895Y-69228015D01*
X141647737Y-69213857D01*
X141625907Y-69199271D01*
X141611320Y-69177440D01*
X141597162Y-69163282D01*
X141588008Y-69142551D01*
X141571714Y-69118165D01*
X141567183Y-69095386D01*
X141559450Y-69077873D01*
X141553502Y-69026611D01*
X141552684Y-69022494D01*
X141552684Y-68072494D01*
X141553502Y-68068379D01*
X141559450Y-68017114D01*
X141567183Y-67999599D01*
X141571714Y-67976823D01*
X141588007Y-67952438D01*
X141597162Y-67931705D01*
X141611322Y-67917544D01*
X141625907Y-67895717D01*
X141647734Y-67881132D01*
X141661895Y-67866972D01*
X141682628Y-67857817D01*
X141707013Y-67841524D01*
X141729789Y-67836993D01*
X141747304Y-67829260D01*
X141798568Y-67823312D01*
X141802684Y-67822494D01*
X142302684Y-67822494D01*
X142306800Y-67823312D01*
G37*
G36*
X144206800Y-67823312D02*
G01*
X144258063Y-67829260D01*
X144275576Y-67836993D01*
X144298355Y-67841524D01*
X144322741Y-67857818D01*
X144343472Y-67866972D01*
X144357630Y-67881130D01*
X144379461Y-67895717D01*
X144394047Y-67917547D01*
X144408205Y-67931705D01*
X144417357Y-67952433D01*
X144433654Y-67976823D01*
X144438185Y-67999603D01*
X144445917Y-68017114D01*
X144451862Y-68068366D01*
X144452684Y-68072494D01*
X144452684Y-69022494D01*
X144451862Y-69026622D01*
X144445917Y-69077873D01*
X144438185Y-69095382D01*
X144433654Y-69118165D01*
X144417356Y-69142556D01*
X144408205Y-69163282D01*
X144394049Y-69177437D01*
X144379461Y-69199271D01*
X144357627Y-69213859D01*
X144343472Y-69228015D01*
X144322746Y-69237166D01*
X144298355Y-69253464D01*
X144275572Y-69257995D01*
X144258063Y-69265727D01*
X144206813Y-69271672D01*
X144202684Y-69272494D01*
X143702684Y-69272494D01*
X143698557Y-69271673D01*
X143647304Y-69265727D01*
X143629793Y-69257995D01*
X143607013Y-69253464D01*
X143582623Y-69237167D01*
X143561895Y-69228015D01*
X143547737Y-69213857D01*
X143525907Y-69199271D01*
X143511320Y-69177440D01*
X143497162Y-69163282D01*
X143488008Y-69142551D01*
X143471714Y-69118165D01*
X143467183Y-69095386D01*
X143459450Y-69077873D01*
X143453502Y-69026611D01*
X143452684Y-69022494D01*
X143452684Y-68072494D01*
X143453502Y-68068379D01*
X143459450Y-68017114D01*
X143467183Y-67999599D01*
X143471714Y-67976823D01*
X143488007Y-67952438D01*
X143497162Y-67931705D01*
X143511322Y-67917544D01*
X143525907Y-67895717D01*
X143547734Y-67881132D01*
X143561895Y-67866972D01*
X143582628Y-67857817D01*
X143607013Y-67841524D01*
X143629789Y-67836993D01*
X143647304Y-67829260D01*
X143698568Y-67823312D01*
X143702684Y-67822494D01*
X144202684Y-67822494D01*
X144206800Y-67823312D01*
G37*
G36*
X119683843Y-63639710D02*
G01*
X119796882Y-63704973D01*
X119889178Y-63797269D01*
X119954441Y-63910308D01*
X119988223Y-64036387D01*
X119992501Y-64101650D01*
X119992501Y-65201650D01*
X119988223Y-65266913D01*
X119954441Y-65392992D01*
X119889178Y-65506031D01*
X119796882Y-65598327D01*
X119683843Y-65663590D01*
X119557764Y-65697372D01*
X119427238Y-65697372D01*
X119301159Y-65663590D01*
X119188120Y-65598327D01*
X119095824Y-65506031D01*
X119030561Y-65392992D01*
X118996779Y-65266913D01*
X118992501Y-65201650D01*
X118992501Y-64101650D01*
X118996779Y-64036387D01*
X119030561Y-63910308D01*
X119095824Y-63797269D01*
X119188120Y-63704973D01*
X119301159Y-63639710D01*
X119427238Y-63605928D01*
X119557764Y-63605928D01*
X119683843Y-63639710D01*
G37*
G36*
X128323843Y-63639710D02*
G01*
X128436882Y-63704973D01*
X128529178Y-63797269D01*
X128594441Y-63910308D01*
X128628223Y-64036387D01*
X128632501Y-64101650D01*
X128632501Y-65201650D01*
X128628223Y-65266913D01*
X128594441Y-65392992D01*
X128529178Y-65506031D01*
X128436882Y-65598327D01*
X128323843Y-65663590D01*
X128197764Y-65697372D01*
X128067238Y-65697372D01*
X127941159Y-65663590D01*
X127828120Y-65598327D01*
X127735824Y-65506031D01*
X127670561Y-65392992D01*
X127636779Y-65266913D01*
X127632501Y-65201650D01*
X127632501Y-64101650D01*
X127636779Y-64036387D01*
X127670561Y-63910308D01*
X127735824Y-63797269D01*
X127828120Y-63704973D01*
X127941159Y-63639710D01*
X128067238Y-63605928D01*
X128197764Y-63605928D01*
X128323843Y-63639710D01*
G37*
G36*
X121046873Y-64881389D02*
G01*
X121120348Y-64923810D01*
X121180341Y-64983803D01*
X121222762Y-65057278D01*
X121244721Y-65139229D01*
X121244721Y-65224071D01*
X121222762Y-65306022D01*
X121180341Y-65379497D01*
X121120348Y-65439490D01*
X121046873Y-65481911D01*
X120964922Y-65503870D01*
X120880080Y-65503870D01*
X120798129Y-65481911D01*
X120724654Y-65439490D01*
X120664661Y-65379497D01*
X120622240Y-65306022D01*
X120600281Y-65224071D01*
X120600281Y-65139229D01*
X120622240Y-65057278D01*
X120664661Y-64983803D01*
X120724654Y-64923810D01*
X120798129Y-64881389D01*
X120880080Y-64859430D01*
X120964922Y-64859430D01*
X121046873Y-64881389D01*
G37*
G36*
X126826873Y-64881389D02*
G01*
X126900348Y-64923810D01*
X126960341Y-64983803D01*
X127002762Y-65057278D01*
X127024721Y-65139229D01*
X127024721Y-65224071D01*
X127002762Y-65306022D01*
X126960341Y-65379497D01*
X126900348Y-65439490D01*
X126826873Y-65481911D01*
X126744922Y-65503870D01*
X126660080Y-65503870D01*
X126578129Y-65481911D01*
X126504654Y-65439490D01*
X126444661Y-65379497D01*
X126402240Y-65306022D01*
X126380281Y-65224071D01*
X126380281Y-65139229D01*
X126402240Y-65057278D01*
X126444661Y-64983803D01*
X126504654Y-64923810D01*
X126578129Y-64881389D01*
X126660080Y-64859430D01*
X126744922Y-64859430D01*
X126826873Y-64881389D01*
G37*
G36*
X120862501Y-64461650D02*
G01*
X120262501Y-64461650D01*
X120262501Y-63011650D01*
X120862501Y-63011650D01*
X120862501Y-64461650D01*
G37*
G36*
X121662501Y-64461650D02*
G01*
X121062501Y-64461650D01*
X121062501Y-63011650D01*
X121662501Y-63011650D01*
X121662501Y-64461650D01*
G37*
G36*
X122212501Y-64461650D02*
G01*
X121912501Y-64461650D01*
X121912501Y-63011650D01*
X122212501Y-63011650D01*
X122212501Y-64461650D01*
G37*
G36*
X122712501Y-64461650D02*
G01*
X122412501Y-64461650D01*
X122412501Y-63011650D01*
X122712501Y-63011650D01*
X122712501Y-64461650D01*
G37*
G36*
X123212501Y-64461650D02*
G01*
X122912501Y-64461650D01*
X122912501Y-63011650D01*
X123212501Y-63011650D01*
X123212501Y-64461650D01*
G37*
G36*
X123712501Y-64461650D02*
G01*
X123412501Y-64461650D01*
X123412501Y-63011650D01*
X123712501Y-63011650D01*
X123712501Y-64461650D01*
G37*
G36*
X124212501Y-64461650D02*
G01*
X123912501Y-64461650D01*
X123912501Y-63011650D01*
X124212501Y-63011650D01*
X124212501Y-64461650D01*
G37*
G36*
X124712501Y-64461650D02*
G01*
X124412501Y-64461650D01*
X124412501Y-63011650D01*
X124712501Y-63011650D01*
X124712501Y-64461650D01*
G37*
G36*
X125212501Y-64461650D02*
G01*
X124912501Y-64461650D01*
X124912501Y-63011650D01*
X125212501Y-63011650D01*
X125212501Y-64461650D01*
G37*
G36*
X125712501Y-64461650D02*
G01*
X125412501Y-64461650D01*
X125412501Y-63011650D01*
X125712501Y-63011650D01*
X125712501Y-64461650D01*
G37*
G36*
X126562501Y-64461650D02*
G01*
X125962501Y-64461650D01*
X125962501Y-63011650D01*
X126562501Y-63011650D01*
X126562501Y-64461650D01*
G37*
G36*
X127362501Y-64461650D02*
G01*
X126762501Y-64461650D01*
X126762501Y-63011650D01*
X127362501Y-63011650D01*
X127362501Y-64461650D01*
G37*
M02*
