%TF.GenerationSoftware,KiCad,Pcbnew,9.0.6*%
%TF.CreationDate,2026-02-27T17:21:49+03:00*%
%TF.ProjectId,blabla,626c6162-6c61-42e6-9b69-6361645f7063,rev?*%
%TF.SameCoordinates,Original*%
%TF.FileFunction,Copper,L1,Top*%
%TF.FilePolarity,Positive*%
%FSLAX46Y46*%
G04 Gerber Fmt 4.6, Leading zero omitted, Abs format (unit mm)*
G04 Created by KiCad (PCBNEW 9.0.6) date 2026-02-27 17:21:49*
%MOMM*%
%LPD*%
G01*
G04 APERTURE LIST*
G04 Aperture macros list*
%AMRoundRect*
0 Rectangle with rounded corners*
0 $1 Rounding radius*
0 $2 $3 $4 $5 $6 $7 $8 $9 X,Y pos of 4 corners*
0 Add a 4 corners polygon primitive as box body*
4,1,4,$2,$3,$4,$5,$6,$7,$8,$9,$2,$3,0*
0 Add four circle primitives for the rounded corners*
1,1,$1+$1,$2,$3*
1,1,$1+$1,$4,$5*
1,1,$1+$1,$6,$7*
1,1,$1+$1,$8,$9*
0 Add four rect primitives between the rounded corners*
20,1,$1+$1,$2,$3,$4,$5,0*
20,1,$1+$1,$4,$5,$6,$7,0*
20,1,$1+$1,$6,$7,$8,$9,0*
20,1,$1+$1,$8,$9,$2,$3,0*%
G04 Aperture macros list end*
%TA.AperFunction,ComponentPad*%
%ADD10R,1.700000X1.700000*%
%TD*%
%TA.AperFunction,ComponentPad*%
%ADD11C,1.700000*%
%TD*%
%TA.AperFunction,SMDPad,CuDef*%
%ADD12RoundRect,0.200000X-0.200000X-0.275000X0.200000X-0.275000X0.200000X0.275000X-0.200000X0.275000X0*%
%TD*%
%TA.AperFunction,SMDPad,CuDef*%
%ADD13RoundRect,0.218750X-0.218750X-0.256250X0.218750X-0.256250X0.218750X0.256250X-0.218750X0.256250X0*%
%TD*%
%TA.AperFunction,SMDPad,CuDef*%
%ADD14RoundRect,0.250000X-0.250000X-0.475000X0.250000X-0.475000X0.250000X0.475000X-0.250000X0.475000X0*%
%TD*%
%TA.AperFunction,SMDPad,CuDef*%
%ADD15RoundRect,0.375000X-0.625000X-0.375000X0.625000X-0.375000X0.625000X0.375000X-0.625000X0.375000X0*%
%TD*%
%TA.AperFunction,SMDPad,CuDef*%
%ADD16RoundRect,0.500000X-0.500000X-1.400000X0.500000X-1.400000X0.500000X1.400000X-0.500000X1.400000X0*%
%TD*%
%TA.AperFunction,SMDPad,CuDef*%
%ADD17R,0.600000X1.450000*%
%TD*%
%TA.AperFunction,SMDPad,CuDef*%
%ADD18R,0.300000X1.450000*%
%TD*%
%TA.AperFunction,HeatsinkPad*%
%ADD19O,1.000000X2.100000*%
%TD*%
%TA.AperFunction,HeatsinkPad*%
%ADD20O,1.000000X1.600000*%
%TD*%
%TA.AperFunction,SMDPad,CuDef*%
%ADD21R,0.500000X0.350000*%
%TD*%
%TA.AperFunction,ViaPad*%
%ADD22C,0.700000*%
%TD*%
%TA.AperFunction,Conductor*%
%ADD23C,0.400000*%
%TD*%
%TA.AperFunction,Conductor*%
%ADD24C,0.200000*%
%TD*%
G04 APERTURE END LIST*
D10*
%TO.P,J1,1,Pin_1*%
%TO.N,Net-(J1-Pin_1)*%
X132500000Y-77420000D03*
D11*
%TO.P,J1,2,Pin_2*%
%TO.N,GND*%
X132500000Y-79960000D03*
%TO.P,J1,3,Pin_3*%
%TO.N,unconnected-(J1-Pin_3-Pad3)*%
X132500000Y-82500000D03*
%TO.P,J1,4,Pin_4*%
%TO.N,unconnected-(J1-Pin_4-Pad4)*%
X132500000Y-85040000D03*
%TO.P,J1,5,Pin_5*%
%TO.N,unconnected-(J1-Pin_5-Pad5)*%
X132500000Y-87580000D03*
%TO.P,J1,6,Pin_6*%
%TO.N,unconnected-(J1-Pin_6-Pad6)*%
X132500000Y-90120000D03*
%TO.P,J1,7,Pin_7*%
%TO.N,unconnected-(J1-Pin_7-Pad7)*%
X132500000Y-92660000D03*
%TO.P,J1,8,Pin_8*%
%TO.N,unconnected-(J1-Pin_8-Pad8)*%
X132500000Y-95200000D03*
%TO.P,J1,9,Pin_9*%
%TO.N,unconnected-(J1-Pin_9-Pad9)*%
X132500000Y-97740000D03*
%TO.P,J1,10,Pin_10*%
%TO.N,unconnected-(J1-Pin_10-Pad10)*%
X132500000Y-100280000D03*
%TO.P,J1,11,Pin_11*%
%TO.N,Net-(J1-Pin_11)*%
X132500000Y-102820000D03*
%TO.P,J1,12,Pin_12*%
%TO.N,unconnected-(J1-Pin_12-Pad12)*%
X132500000Y-105360000D03*
%TO.P,J1,13,Pin_13*%
%TO.N,unconnected-(J1-Pin_13-Pad13)*%
X132500000Y-107900000D03*
%TO.P,J1,14,Pin_14*%
%TO.N,Net-(J1-Pin_14)*%
X132500000Y-110440000D03*
%TO.P,J1,15,Pin_15*%
%TO.N,unconnected-(J1-Pin_15-Pad15)*%
X132500000Y-112980000D03*
%TD*%
D12*
%TO.P,R1,1*%
%TO.N,Net-(J1-Pin_1)*%
X137177684Y-71047494D03*
%TO.P,R1,2*%
%TO.N,Net-(D1-K)*%
X138827684Y-71047494D03*
%TD*%
D13*
%TO.P,D1,1,K*%
%TO.N,Net-(D1-K)*%
X120529374Y-76574702D03*
%TO.P,D1,2,A*%
%TO.N,GND*%
X122104374Y-76574702D03*
%TD*%
D14*
%TO.P,C3,1*%
%TO.N,Net-(J1-Pin_1)*%
X142052684Y-68547494D03*
%TO.P,C3,2*%
%TO.N,GND*%
X143952684Y-68547494D03*
%TD*%
%TO.P,C1,1*%
%TO.N,Net-(C1-Pad1)*%
X119990000Y-83900000D03*
%TO.P,C1,2*%
%TO.N,Net-(U1-VI)*%
X121890000Y-83900000D03*
%TD*%
%TO.P,C4,1*%
%TO.N,Net-(J1-Pin_1)*%
X142052684Y-71047494D03*
%TO.P,C4,2*%
%TO.N,GND*%
X143952684Y-71047494D03*
%TD*%
D15*
%TO.P,U1,1,GND*%
%TO.N,GND*%
X120850000Y-86700000D03*
%TO.P,U1,2,VO*%
%TO.N,Net-(U1-VO)*%
X120850000Y-89000000D03*
D16*
X127150000Y-89000000D03*
D15*
%TO.P,U1,3,VI*%
%TO.N,Net-(U1-VI)*%
X120850000Y-91300000D03*
%TD*%
D17*
%TO.P,J3,A1,GND*%
%TO.N,GND*%
X120562501Y-63736650D03*
%TO.P,J3,A4,VBUS*%
%TO.N,Net-(C1-Pad1)*%
X121362501Y-63736650D03*
D18*
%TO.P,J3,A5,CC1*%
%TO.N,unconnected-(J3-CC1-PadA5)*%
X122562501Y-63736650D03*
%TO.P,J3,A6,D+*%
%TO.N,unconnected-(J3-D+-PadA6)*%
X123562501Y-63736650D03*
%TO.P,J3,A7,D-*%
%TO.N,unconnected-(J3-D--PadA7)*%
X124062501Y-63736650D03*
%TO.P,J3,A8*%
%TO.N,N/C*%
X125062501Y-63736650D03*
D17*
%TO.P,J3,A9,VBUS*%
%TO.N,Net-(C1-Pad1)*%
X126262501Y-63736650D03*
%TO.P,J3,A12,GND*%
%TO.N,GND*%
X127062501Y-63736650D03*
%TO.P,J3,B1,GND*%
X127062501Y-63736650D03*
%TO.P,J3,B4,VBUS*%
%TO.N,Net-(C1-Pad1)*%
X126262501Y-63736650D03*
D18*
%TO.P,J3,B5,CC2*%
%TO.N,unconnected-(J3-CC2-PadB5)*%
X125562501Y-63736650D03*
%TO.P,J3,B6,D+*%
%TO.N,unconnected-(J3-D+-PadB6)*%
X124562501Y-63736650D03*
%TO.P,J3,B7,D-*%
%TO.N,unconnected-(J3-D--PadB7)*%
X123062501Y-63736650D03*
%TO.P,J3,B8*%
%TO.N,N/C*%
X122062501Y-63736650D03*
D17*
%TO.P,J3,B9,VBUS*%
%TO.N,Net-(C1-Pad1)*%
X121362501Y-63736650D03*
%TO.P,J3,B12,GND*%
%TO.N,GND*%
X120562501Y-63736650D03*
D19*
%TO.P,J3,S1,SHIELD*%
%TO.N,unconnected-(J3-SHIELD-PadS1)_2*%
X119492501Y-64651650D03*
D20*
%TO.N,unconnected-(J3-SHIELD-PadS1)_3*%
X119492501Y-68831650D03*
D19*
%TO.N,unconnected-(J3-SHIELD-PadS1)*%
X128132501Y-64651650D03*
D20*
%TO.N,unconnected-(J3-SHIELD-PadS1)_1*%
X128132501Y-68831650D03*
%TD*%
D10*
%TO.P,J2,1,Pin_1*%
%TO.N,unconnected-(J2-Pin_1-Pad1)*%
X157900000Y-77420000D03*
D11*
%TO.P,J2,2,Pin_2*%
%TO.N,GND*%
X157900000Y-79960000D03*
%TO.P,J2,3,Pin_3*%
%TO.N,unconnected-(J2-Pin_3-Pad3)*%
X157900000Y-82500000D03*
%TO.P,J2,4,Pin_4*%
%TO.N,unconnected-(J2-Pin_4-Pad4)*%
X157900000Y-85040000D03*
%TO.P,J2,5,Pin_5*%
%TO.N,unconnected-(J2-Pin_5-Pad5)*%
X157900000Y-87580000D03*
%TO.P,J2,6,Pin_6*%
%TO.N,unconnected-(J2-Pin_6-Pad6)*%
X157900000Y-90120000D03*
%TO.P,J2,7,Pin_7*%
%TO.N,unconnected-(J2-Pin_7-Pad7)*%
X157900000Y-92660000D03*
%TO.P,J2,8,Pin_8*%
%TO.N,unconnected-(J2-Pin_8-Pad8)*%
X157900000Y-95200000D03*
%TO.P,J2,9,Pin_9*%
%TO.N,unconnected-(J2-Pin_9-Pad9)*%
X157900000Y-97740000D03*
%TO.P,J2,10,Pin_10*%
%TO.N,unconnected-(J2-Pin_10-Pad10)*%
X157900000Y-100280000D03*
%TO.P,J2,11,Pin_11*%
%TO.N,unconnected-(J2-Pin_11-Pad11)*%
X157900000Y-102820000D03*
%TO.P,J2,12,Pin_12*%
%TO.N,unconnected-(J2-Pin_12-Pad12)*%
X157900000Y-105360000D03*
%TO.P,J2,13,Pin_13*%
%TO.N,unconnected-(J2-Pin_13-Pad13)*%
X157900000Y-107900000D03*
%TO.P,J2,14,Pin_14*%
%TO.N,unconnected-(J2-Pin_14-Pad14)*%
X157900000Y-110440000D03*
%TO.P,J2,15,Pin_15*%
%TO.N,unconnected-(J2-Pin_15-Pad15)*%
X157900000Y-112980000D03*
%TD*%
D14*
%TO.P,C2,1*%
%TO.N,Net-(U1-VO)*%
X123440000Y-83900000D03*
%TO.P,C2,2*%
%TO.N,Net-(J1-Pin_1)*%
X125340000Y-83900000D03*
%TD*%
D21*
%TO.P,U2,1,GND*%
%TO.N,GND*%
X125675000Y-100425000D03*
%TO.P,U2,2,CSB*%
%TO.N,Net-(J1-Pin_1)*%
X125675000Y-101075000D03*
%TO.P,U2,3,SDI*%
%TO.N,Net-(J1-Pin_11)*%
X125675000Y-101725000D03*
%TO.P,U2,4,SCK*%
%TO.N,Net-(J1-Pin_14)*%
X125675000Y-102375000D03*
%TO.P,U2,5,SDO*%
%TO.N,GND*%
X123625000Y-102375000D03*
%TO.P,U2,6,VDDIO*%
%TO.N,Net-(J1-Pin_1)*%
X123625000Y-101725000D03*
%TO.P,U2,7,GND*%
%TO.N,GND*%
X123625000Y-101075000D03*
%TO.P,U2,8,VDD*%
%TO.N,Net-(J1-Pin_1)*%
X123625000Y-100425000D03*
%TD*%
D22*
%TO.N,Net-(C1-Pad1)*%
X121362501Y-63736650D03*
X120800000Y-78200000D03*
X126262501Y-63736650D03*
X121000000Y-74300000D03*
%TO.N,Net-(U1-VI)*%
X121900000Y-85000000D03*
X121051949Y-90250000D03*
%TO.N,Net-(J1-Pin_1)*%
X125000000Y-88400000D03*
X124600000Y-99200000D03*
%TO.N,Net-(D1-K)*%
X138200000Y-71100000D03*
X122600000Y-75600000D03*
%TD*%
D23*
%TO.N,Net-(C1-Pad1)*%
X121362501Y-63736650D02*
X121362501Y-64462501D01*
D24*
X119990000Y-83900000D02*
X119990000Y-79010000D01*
D23*
X121698501Y-73601499D02*
X121000000Y-74300000D01*
X121698501Y-64798501D02*
X121698501Y-73601499D01*
X121362501Y-64462501D02*
X121698501Y-64798501D01*
D24*
X119990000Y-79010000D02*
X120800000Y-78200000D01*
%TO.N,Net-(U1-VI)*%
X121900000Y-85000000D02*
X121900000Y-83910000D01*
X121900000Y-83910000D02*
X121890000Y-83900000D01*
X120850000Y-91300000D02*
X120850000Y-90451949D01*
X120850000Y-90451949D02*
X121051949Y-90250000D01*
%TO.N,Net-(U1-VO)*%
X127150000Y-89000000D02*
X120850000Y-89000000D01*
X120850000Y-89000000D02*
X123440000Y-86410000D01*
X123440000Y-86410000D02*
X123440000Y-83900000D01*
%TO.N,Net-(J1-Pin_1)*%
X125225000Y-101075000D02*
X124575000Y-100425000D01*
X132500000Y-77420000D02*
X137177684Y-72742316D01*
X137903684Y-71773494D02*
X141326684Y-71773494D01*
X137177684Y-71047494D02*
X137177684Y-72742316D01*
X124575000Y-100425000D02*
X123625000Y-100425000D01*
X125675000Y-101075000D02*
X125225000Y-101075000D01*
X142052684Y-68547494D02*
X142052684Y-71047494D01*
X124575000Y-99225000D02*
X124575000Y-100425000D01*
X141326684Y-71773494D02*
X142052684Y-71047494D01*
X125340000Y-83900000D02*
X125340000Y-88060000D01*
X124600000Y-99200000D02*
X124575000Y-99225000D01*
X125340000Y-88060000D02*
X125000000Y-88400000D01*
D23*
X131820000Y-77420000D02*
X132500000Y-77420000D01*
D24*
X137177684Y-71047494D02*
X137903684Y-71773494D01*
D23*
X125340000Y-83900000D02*
X131820000Y-77420000D01*
D24*
%TO.N,Net-(D1-K)*%
X122600000Y-75600000D02*
X121504076Y-75600000D01*
X121504076Y-75600000D02*
X120529374Y-76574702D01*
X138252506Y-71047494D02*
X138200000Y-71100000D01*
X138827684Y-71047494D02*
X138252506Y-71047494D01*
%TO.N,Net-(J1-Pin_14)*%
X130640000Y-110440000D02*
X132500000Y-110440000D01*
X125675000Y-102375000D02*
X125675000Y-105475000D01*
X125675000Y-105475000D02*
X130640000Y-110440000D01*
%TO.N,Net-(J1-Pin_11)*%
X131405000Y-101725000D02*
X132500000Y-102820000D01*
X125675000Y-101725000D02*
X131405000Y-101725000D01*
%TD*%
%TA.AperFunction,Conductor*%
%TO.N,GND*%
G36*
X129442539Y-61520185D02*
G01*
X129488294Y-61572989D01*
X129499500Y-61624500D01*
X129499500Y-65065891D01*
X129533608Y-65193187D01*
X129566554Y-65250250D01*
X129599500Y-65307314D01*
X129692686Y-65400500D01*
X129806814Y-65466392D01*
X129934108Y-65500500D01*
X130065892Y-65500500D01*
X160375500Y-65500500D01*
X160442539Y-65520185D01*
X160488294Y-65572989D01*
X160499500Y-65624500D01*
X160499500Y-116375500D01*
X160479815Y-116442539D01*
X160427011Y-116488294D01*
X160375500Y-116499500D01*
X118624500Y-116499500D01*
X118557461Y-116479815D01*
X118511706Y-116427011D01*
X118500500Y-116375500D01*
X118500500Y-86248903D01*
X119350000Y-86248903D01*
X119350000Y-86450000D01*
X120600000Y-86450000D01*
X120600000Y-85450000D01*
X120148903Y-85450000D01*
X120106175Y-85452897D01*
X119921476Y-85498831D01*
X119750977Y-85583390D01*
X119750974Y-85583392D01*
X119602633Y-85702632D01*
X119602632Y-85702633D01*
X119483392Y-85850974D01*
X119483390Y-85850977D01*
X119398831Y-86021476D01*
X119352897Y-86206175D01*
X119350000Y-86248903D01*
X118500500Y-86248903D01*
X118500500Y-69853933D01*
X118520185Y-69786894D01*
X118572989Y-69741139D01*
X118642147Y-69731195D01*
X118705703Y-69760220D01*
X118712181Y-69766252D01*
X118854715Y-69908786D01*
X118854719Y-69908789D01*
X119018580Y-70018278D01*
X119018593Y-70018285D01*
X119163745Y-70078408D01*
X119200666Y-70093701D01*
X119200670Y-70093701D01*
X119200671Y-70093702D01*
X119393957Y-70132150D01*
X119393960Y-70132150D01*
X119591044Y-70132150D01*
X119733384Y-70103836D01*
X119784336Y-70093701D01*
X119966415Y-70018282D01*
X120130283Y-69908789D01*
X120269640Y-69769432D01*
X120379133Y-69605564D01*
X120454552Y-69423485D01*
X120493001Y-69230191D01*
X120493001Y-68433109D01*
X120493001Y-68433106D01*
X120454553Y-68239820D01*
X120454552Y-68239819D01*
X120454552Y-68239815D01*
X120454550Y-68239810D01*
X120379136Y-68057742D01*
X120379129Y-68057729D01*
X120269640Y-67893868D01*
X120269637Y-67893864D01*
X120130286Y-67754513D01*
X120130282Y-67754510D01*
X119966421Y-67645021D01*
X119966408Y-67645014D01*
X119784340Y-67569600D01*
X119784330Y-67569597D01*
X119591044Y-67531150D01*
X119591042Y-67531150D01*
X119393960Y-67531150D01*
X119393958Y-67531150D01*
X119200671Y-67569597D01*
X119200661Y-67569600D01*
X119018593Y-67645014D01*
X119018580Y-67645021D01*
X118854719Y-67754510D01*
X118854715Y-67754513D01*
X118712181Y-67897048D01*
X118650858Y-67930533D01*
X118581166Y-67925549D01*
X118525233Y-67883677D01*
X118500816Y-67818213D01*
X118500500Y-67809367D01*
X118500500Y-65923933D01*
X118520185Y-65856894D01*
X118572989Y-65811139D01*
X118642147Y-65801195D01*
X118705703Y-65830220D01*
X118712181Y-65836252D01*
X118854715Y-65978786D01*
X118854719Y-65978789D01*
X119018580Y-66088278D01*
X119018593Y-66088285D01*
X119200661Y-66163699D01*
X119200666Y-66163701D01*
X119200670Y-66163701D01*
X119200671Y-66163702D01*
X119393957Y-66202150D01*
X119393960Y-66202150D01*
X119591044Y-66202150D01*
X119721083Y-66176282D01*
X119784336Y-66163701D01*
X119966415Y-66088282D01*
X120130283Y-65978789D01*
X120269640Y-65839432D01*
X120379133Y-65675564D01*
X120379132Y-65675564D01*
X120382518Y-65670498D01*
X120383975Y-65671471D01*
X120427096Y-65627553D01*
X120495230Y-65612076D01*
X120560915Y-65635892D01*
X120563003Y-65637459D01*
X120569133Y-65642162D01*
X120569136Y-65642165D01*
X120700366Y-65717931D01*
X120846735Y-65757150D01*
X120874001Y-65757150D01*
X120941040Y-65776835D01*
X120986795Y-65829639D01*
X120998001Y-65881150D01*
X120998001Y-73259978D01*
X120989356Y-73289417D01*
X120982833Y-73319405D01*
X120979078Y-73324420D01*
X120978316Y-73327017D01*
X120961682Y-73347660D01*
X120872437Y-73436904D01*
X120811113Y-73470388D01*
X120808949Y-73470839D01*
X120751922Y-73482183D01*
X120751917Y-73482184D01*
X120597139Y-73546295D01*
X120457837Y-73639373D01*
X120339373Y-73757837D01*
X120246295Y-73897139D01*
X120182184Y-74051917D01*
X120182182Y-74051925D01*
X120149500Y-74216228D01*
X120149500Y-74383771D01*
X120182182Y-74548074D01*
X120182184Y-74548082D01*
X120246295Y-74702860D01*
X120339373Y-74842162D01*
X120457837Y-74960626D01*
X120550494Y-75022537D01*
X120597137Y-75053703D01*
X120597138Y-75053703D01*
X120597139Y-75053704D01*
X120632201Y-75068227D01*
X120751918Y-75117816D01*
X120845602Y-75136450D01*
X120907510Y-75168834D01*
X120942085Y-75229549D01*
X120938346Y-75299319D01*
X120909091Y-75345748D01*
X120691955Y-75562884D01*
X120630635Y-75596368D01*
X120604276Y-75599202D01*
X120262692Y-75599202D01*
X120164190Y-75609265D01*
X120164189Y-75609266D01*
X120085093Y-75635475D01*
X120004589Y-75662152D01*
X120004578Y-75662157D01*
X119861486Y-75750418D01*
X119861482Y-75750421D01*
X119742593Y-75869310D01*
X119742590Y-75869314D01*
X119654329Y-76012406D01*
X119654324Y-76012417D01*
X119633285Y-76075908D01*
X119601438Y-76172017D01*
X119601438Y-76172018D01*
X119601437Y-76172018D01*
X119591374Y-76270520D01*
X119591374Y-76878883D01*
X119601437Y-76977385D01*
X119654324Y-77136986D01*
X119654329Y-77136997D01*
X119742590Y-77280089D01*
X119742593Y-77280093D01*
X119861482Y-77398982D01*
X119861486Y-77398985D01*
X120004578Y-77487246D01*
X120004581Y-77487247D01*
X120004587Y-77487251D01*
X120053704Y-77503526D01*
X120111148Y-77543299D01*
X120137971Y-77607814D01*
X120125656Y-77676590D01*
X120117802Y-77690122D01*
X120046295Y-77797140D01*
X119982184Y-77951917D01*
X119982182Y-77951925D01*
X119949500Y-78116228D01*
X119949500Y-78149902D01*
X119929815Y-78216941D01*
X119913181Y-78237583D01*
X119509481Y-78641282D01*
X119509479Y-78641285D01*
X119472536Y-78705274D01*
X119472535Y-78705276D01*
X119430423Y-78778214D01*
X119430423Y-78778215D01*
X119389499Y-78930943D01*
X119389499Y-78930945D01*
X119389499Y-79099046D01*
X119389500Y-79099059D01*
X119389500Y-82690201D01*
X119369815Y-82757240D01*
X119330598Y-82795739D01*
X119271344Y-82832287D01*
X119147289Y-82956342D01*
X119055187Y-83105663D01*
X119055186Y-83105666D01*
X119000001Y-83272203D01*
X119000001Y-83272204D01*
X119000000Y-83272204D01*
X118989500Y-83374983D01*
X118989500Y-84425001D01*
X118989501Y-84425019D01*
X119000000Y-84527796D01*
X119000001Y-84527799D01*
X119040000Y-84648505D01*
X119055186Y-84694334D01*
X119147288Y-84843656D01*
X119271344Y-84967712D01*
X119420666Y-85059814D01*
X119587203Y-85114999D01*
X119689991Y-85125500D01*
X120290008Y-85125499D01*
X120290016Y-85125498D01*
X120290019Y-85125498D01*
X120346302Y-85119748D01*
X120392797Y-85114999D01*
X120559334Y-85059814D01*
X120708656Y-84967712D01*
X120832712Y-84843656D01*
X120832712Y-84843655D01*
X120837819Y-84838549D01*
X120899142Y-84805064D01*
X120968834Y-84810048D01*
X121024767Y-84851920D01*
X121049184Y-84917384D01*
X121049500Y-84926230D01*
X121049500Y-85083771D01*
X121082182Y-85248074D01*
X121082185Y-85248086D01*
X121114835Y-85326911D01*
X121122304Y-85396381D01*
X121100000Y-85440936D01*
X121100000Y-86576000D01*
X121080315Y-86643039D01*
X121027511Y-86688794D01*
X120976000Y-86700000D01*
X120850000Y-86700000D01*
X120850000Y-86826000D01*
X120830315Y-86893039D01*
X120777511Y-86938794D01*
X120726000Y-86950000D01*
X119350000Y-86950000D01*
X119350000Y-87151096D01*
X119352897Y-87193824D01*
X119398831Y-87378523D01*
X119483390Y-87549022D01*
X119483392Y-87549025D01*
X119602630Y-87697364D01*
X119671884Y-87753031D01*
X119711803Y-87810375D01*
X119714383Y-87880197D01*
X119678805Y-87940329D01*
X119671885Y-87946326D01*
X119608672Y-87997139D01*
X119602276Y-88002280D01*
X119482969Y-88150704D01*
X119482967Y-88150707D01*
X119398360Y-88321302D01*
X119352400Y-88506107D01*
X119349500Y-88548879D01*
X119349500Y-89451122D01*
X119349501Y-89451125D01*
X119352399Y-89493886D01*
X119352399Y-89493887D01*
X119378913Y-89600500D01*
X119396940Y-89672989D01*
X119398360Y-89678696D01*
X119482967Y-89849292D01*
X119482969Y-89849295D01*
X119602277Y-89997721D01*
X119602278Y-89997722D01*
X119671486Y-90053353D01*
X119711405Y-90110696D01*
X119713985Y-90180518D01*
X119678406Y-90240651D01*
X119671486Y-90246647D01*
X119602278Y-90302277D01*
X119602277Y-90302278D01*
X119482969Y-90450704D01*
X119482967Y-90450707D01*
X119398360Y-90621302D01*
X119352400Y-90806107D01*
X119349500Y-90848879D01*
X119349500Y-91751122D01*
X119349501Y-91751125D01*
X119352399Y-91793886D01*
X119352399Y-91793887D01*
X119382933Y-91916666D01*
X119391766Y-91952184D01*
X119398360Y-91978696D01*
X119482967Y-92149292D01*
X119482969Y-92149295D01*
X119602277Y-92297721D01*
X119602278Y-92297722D01*
X119750704Y-92417030D01*
X119750707Y-92417032D01*
X119921302Y-92501639D01*
X119921303Y-92501639D01*
X119921307Y-92501641D01*
X120106111Y-92547600D01*
X120148877Y-92550500D01*
X121551122Y-92550499D01*
X121593889Y-92547600D01*
X121778693Y-92501641D01*
X121949296Y-92417030D01*
X122097722Y-92297722D01*
X122217030Y-92149296D01*
X122301641Y-91978693D01*
X122347600Y-91793889D01*
X122350500Y-91751123D01*
X122350499Y-90848878D01*
X122347600Y-90806111D01*
X122301641Y-90621307D01*
X122220667Y-90458037D01*
X122217032Y-90450707D01*
X122217030Y-90450704D01*
X122097722Y-90302278D01*
X122097721Y-90302277D01*
X122028514Y-90246647D01*
X121988595Y-90189304D01*
X121986015Y-90119482D01*
X122021594Y-90059349D01*
X122028514Y-90053353D01*
X122077828Y-90013713D01*
X122097722Y-89997722D01*
X122217030Y-89849296D01*
X122301641Y-89678693D01*
X122304628Y-89672671D01*
X122306535Y-89673617D01*
X122342131Y-89625590D01*
X122407478Y-89600860D01*
X122416916Y-89600500D01*
X125525501Y-89600500D01*
X125592540Y-89620185D01*
X125638295Y-89672989D01*
X125649501Y-89724500D01*
X125649501Y-90458034D01*
X125660113Y-90577415D01*
X125716089Y-90773045D01*
X125716090Y-90773048D01*
X125716091Y-90773049D01*
X125810302Y-90953407D01*
X125810304Y-90953409D01*
X125938890Y-91111109D01*
X126032803Y-91187684D01*
X126096593Y-91239698D01*
X126276951Y-91333909D01*
X126472582Y-91389886D01*
X126591963Y-91400500D01*
X127708036Y-91400499D01*
X127827418Y-91389886D01*
X128023049Y-91333909D01*
X128203407Y-91239698D01*
X128361109Y-91111109D01*
X128489698Y-90953407D01*
X128583909Y-90773049D01*
X128639886Y-90577418D01*
X128650500Y-90458037D01*
X128650499Y-87541964D01*
X128639886Y-87422582D01*
X128583909Y-87226951D01*
X128489698Y-87046593D01*
X128401800Y-86938794D01*
X128361109Y-86888890D01*
X128225990Y-86778716D01*
X128203407Y-86760302D01*
X128023049Y-86666091D01*
X128023048Y-86666090D01*
X128023045Y-86666089D01*
X127905829Y-86632550D01*
X127827418Y-86610114D01*
X127827415Y-86610113D01*
X127827413Y-86610113D01*
X127761102Y-86604217D01*
X127708037Y-86599500D01*
X127708032Y-86599500D01*
X126591971Y-86599500D01*
X126591965Y-86599500D01*
X126591964Y-86599501D01*
X126580316Y-86600536D01*
X126472584Y-86610113D01*
X126276952Y-86666090D01*
X126121911Y-86747077D01*
X126053376Y-86760668D01*
X125988373Y-86735049D01*
X125947539Y-86678353D01*
X125940500Y-86637168D01*
X125940500Y-85109797D01*
X125960185Y-85042758D01*
X125999403Y-85004258D01*
X126058656Y-84967712D01*
X126182712Y-84843656D01*
X126274814Y-84694334D01*
X126329999Y-84527797D01*
X126340500Y-84425009D01*
X126340499Y-83941517D01*
X126360183Y-83874479D01*
X126376813Y-83853842D01*
X131206799Y-79023856D01*
X131268120Y-78990373D01*
X131337812Y-78995357D01*
X131393745Y-79037229D01*
X131418162Y-79102693D01*
X131403310Y-79170966D01*
X131394797Y-79184423D01*
X131345378Y-79252443D01*
X131248904Y-79441782D01*
X131183242Y-79643869D01*
X131183242Y-79643872D01*
X131150000Y-79853753D01*
X131150000Y-80066246D01*
X131183242Y-80276127D01*
X131183242Y-80276130D01*
X131248904Y-80478217D01*
X131345375Y-80667550D01*
X131384728Y-80721716D01*
X132017037Y-80089408D01*
X132034075Y-80152993D01*
X132099901Y-80267007D01*
X132192993Y-80360099D01*
X132307007Y-80425925D01*
X132370590Y-80442962D01*
X131738282Y-81075269D01*
X131738282Y-81075270D01*
X131792452Y-81114626D01*
X131792451Y-81114626D01*
X131801495Y-81119234D01*
X131852292Y-81167208D01*
X131869087Y-81235029D01*
X131846550Y-81301164D01*
X131801499Y-81340202D01*
X131792182Y-81344949D01*
X131620213Y-81469890D01*
X131469890Y-81620213D01*
X131344951Y-81792179D01*
X131248444Y-81981585D01*
X131182753Y-82183760D01*
X131149500Y-82393713D01*
X131149500Y-82606286D01*
X131171278Y-82743791D01*
X131182754Y-82816243D01*
X131248025Y-83017126D01*
X131248444Y-83018414D01*
X131344951Y-83207820D01*
X131469890Y-83379786D01*
X131620213Y-83530109D01*
X131792182Y-83655050D01*
X131800946Y-83659516D01*
X131851742Y-83707491D01*
X131868536Y-83775312D01*
X131845998Y-83841447D01*
X131800946Y-83880484D01*
X131792182Y-83884949D01*
X131620213Y-84009890D01*
X131469890Y-84160213D01*
X131344951Y-84332179D01*
X131248444Y-84521585D01*
X131182753Y-84723760D01*
X131149500Y-84933713D01*
X131149500Y-85146286D01*
X131165621Y-85248074D01*
X131182754Y-85356243D01*
X131240371Y-85533570D01*
X131248444Y-85558414D01*
X131344951Y-85747820D01*
X131469890Y-85919786D01*
X131620213Y-86070109D01*
X131792182Y-86195050D01*
X131800946Y-86199516D01*
X131851742Y-86247491D01*
X131868536Y-86315312D01*
X131845998Y-86381447D01*
X131800946Y-86420484D01*
X131792182Y-86424949D01*
X131620213Y-86549890D01*
X131469890Y-86700213D01*
X131344951Y-86872179D01*
X131248444Y-87061585D01*
X131182753Y-87263760D01*
X131157598Y-87422582D01*
X131149500Y-87473713D01*
X131149500Y-87686287D01*
X131157908Y-87739373D01*
X131180651Y-87882970D01*
X131182754Y-87896243D01*
X131215537Y-87997139D01*
X131248444Y-88098414D01*
X131344951Y-88287820D01*
X131469890Y-88459786D01*
X131620213Y-88610109D01*
X131792182Y-88735050D01*
X131800946Y-88739516D01*
X131851742Y-88787491D01*
X131868536Y-88855312D01*
X131845998Y-88921447D01*
X131800946Y-88960484D01*
X131792182Y-88964949D01*
X131620213Y-89089890D01*
X131469890Y-89240213D01*
X131344951Y-89412179D01*
X131248444Y-89601585D01*
X131182753Y-89803760D01*
X131175542Y-89849292D01*
X131149500Y-90013713D01*
X131149500Y-90226287D01*
X131182754Y-90436243D01*
X131242885Y-90621307D01*
X131248444Y-90638414D01*
X131344951Y-90827820D01*
X131469890Y-90999786D01*
X131620213Y-91150109D01*
X131792182Y-91275050D01*
X131800946Y-91279516D01*
X131851742Y-91327491D01*
X131868536Y-91395312D01*
X131845998Y-91461447D01*
X131800946Y-91500484D01*
X131792182Y-91504949D01*
X131620213Y-91629890D01*
X131469890Y-91780213D01*
X131344951Y-91952179D01*
X131248444Y-92141585D01*
X131182753Y-92343760D01*
X131149500Y-92553713D01*
X131149500Y-92766286D01*
X131182753Y-92976239D01*
X131248444Y-93178414D01*
X131344951Y-93367820D01*
X131469890Y-93539786D01*
X131620213Y-93690109D01*
X131792182Y-93815050D01*
X131800946Y-93819516D01*
X131851742Y-93867491D01*
X131868536Y-93935312D01*
X131845998Y-94001447D01*
X131800946Y-94040484D01*
X131792182Y-94044949D01*
X131620213Y-94169890D01*
X131469890Y-94320213D01*
X131344951Y-94492179D01*
X131248444Y-94681585D01*
X131182753Y-94883760D01*
X131149500Y-95093713D01*
X131149500Y-95306286D01*
X131182753Y-95516239D01*
X131248444Y-95718414D01*
X131344951Y-95907820D01*
X131469890Y-96079786D01*
X131620213Y-96230109D01*
X131792182Y-96355050D01*
X131800946Y-96359516D01*
X131851742Y-96407491D01*
X131868536Y-96475312D01*
X131845998Y-96541447D01*
X131800946Y-96580484D01*
X131792182Y-96584949D01*
X131620213Y-96709890D01*
X131469890Y-96860213D01*
X131344951Y-97032179D01*
X131248444Y-97221585D01*
X131182753Y-97423760D01*
X131149500Y-97633713D01*
X131149500Y-97846286D01*
X131182753Y-98056239D01*
X131248444Y-98258414D01*
X131344951Y-98447820D01*
X131469890Y-98619786D01*
X131620213Y-98770109D01*
X131792182Y-98895050D01*
X131800946Y-98899516D01*
X131851742Y-98947491D01*
X131868536Y-99015312D01*
X131845998Y-99081447D01*
X131800946Y-99120484D01*
X131792182Y-99124949D01*
X131620213Y-99249890D01*
X131469890Y-99400213D01*
X131344951Y-99572179D01*
X131248444Y-99761585D01*
X131182753Y-99963760D01*
X131149500Y-100173713D01*
X131149500Y-100386286D01*
X131174234Y-100542454D01*
X131182754Y-100596243D01*
X131246562Y-100792624D01*
X131248444Y-100798414D01*
X131322728Y-100944205D01*
X131335624Y-101012874D01*
X131309348Y-101077615D01*
X131252241Y-101117872D01*
X131212243Y-101124500D01*
X126549500Y-101124500D01*
X126482461Y-101104815D01*
X126436706Y-101052011D01*
X126425500Y-101000501D01*
X126425499Y-100852130D01*
X126425498Y-100852123D01*
X126424445Y-100842331D01*
X126419091Y-100792517D01*
X126419091Y-100792516D01*
X126417307Y-100784966D01*
X126418559Y-100784669D01*
X126414145Y-100722924D01*
X126418132Y-100709346D01*
X126418598Y-100707375D01*
X126424999Y-100647844D01*
X126425000Y-100647827D01*
X126425000Y-100600000D01*
X126387694Y-100600000D01*
X126320655Y-100580315D01*
X126308639Y-100571532D01*
X126297272Y-100562125D01*
X126282546Y-100542454D01*
X126187704Y-100471455D01*
X126185380Y-100469532D01*
X126167443Y-100442968D01*
X126148253Y-100417332D01*
X126148030Y-100414216D01*
X126146281Y-100411626D01*
X126145554Y-100379594D01*
X126143269Y-100347641D01*
X126144766Y-100344897D01*
X126144696Y-100341774D01*
X126161404Y-100314430D01*
X126176755Y-100286318D01*
X126179496Y-100284821D01*
X126181126Y-100282154D01*
X126209969Y-100268182D01*
X126238078Y-100252834D01*
X126242673Y-100252339D01*
X126244007Y-100251694D01*
X126246208Y-100251959D01*
X126264435Y-100250000D01*
X126425000Y-100250000D01*
X126425000Y-100202172D01*
X126424999Y-100202155D01*
X126418598Y-100142627D01*
X126418596Y-100142620D01*
X126368354Y-100007913D01*
X126368350Y-100007906D01*
X126282190Y-99892812D01*
X126282187Y-99892809D01*
X126167093Y-99806649D01*
X126167086Y-99806645D01*
X126032379Y-99756403D01*
X126032372Y-99756401D01*
X125972844Y-99750000D01*
X125850000Y-99750000D01*
X125850000Y-100275500D01*
X125847449Y-100284185D01*
X125848738Y-100293147D01*
X125837759Y-100317187D01*
X125830315Y-100342539D01*
X125823474Y-100348466D01*
X125819713Y-100356703D01*
X125797478Y-100370992D01*
X125777511Y-100388294D01*
X125766996Y-100390581D01*
X125760935Y-100394477D01*
X125726000Y-100399500D01*
X125624000Y-100399500D01*
X125556961Y-100379815D01*
X125511206Y-100327011D01*
X125500000Y-100275500D01*
X125500000Y-99750000D01*
X125478336Y-99750000D01*
X125411297Y-99730315D01*
X125365542Y-99677511D01*
X125355598Y-99608353D01*
X125363775Y-99578547D01*
X125366413Y-99572179D01*
X125417816Y-99448082D01*
X125450500Y-99283767D01*
X125450500Y-99116233D01*
X125417816Y-98951918D01*
X125353703Y-98797137D01*
X125322537Y-98750494D01*
X125260626Y-98657837D01*
X125142162Y-98539373D01*
X125002860Y-98446295D01*
X124848082Y-98382184D01*
X124848074Y-98382182D01*
X124683771Y-98349500D01*
X124683767Y-98349500D01*
X124516233Y-98349500D01*
X124516228Y-98349500D01*
X124351925Y-98382182D01*
X124351917Y-98382184D01*
X124197139Y-98446295D01*
X124057837Y-98539373D01*
X123939373Y-98657837D01*
X123846295Y-98797139D01*
X123782184Y-98951917D01*
X123782182Y-98951925D01*
X123749500Y-99116228D01*
X123749500Y-99283771D01*
X123782182Y-99448074D01*
X123782185Y-99448086D01*
X123836017Y-99578048D01*
X123843486Y-99647517D01*
X123812211Y-99709996D01*
X123752122Y-99745648D01*
X123721456Y-99749500D01*
X123327129Y-99749500D01*
X123327123Y-99749501D01*
X123267516Y-99755908D01*
X123132671Y-99806202D01*
X123132664Y-99806206D01*
X123017455Y-99892452D01*
X123017452Y-99892455D01*
X122931206Y-100007664D01*
X122931202Y-100007671D01*
X122880910Y-100142513D01*
X122880909Y-100142517D01*
X122874500Y-100202127D01*
X122874500Y-100202134D01*
X122874500Y-100202135D01*
X122874500Y-100647870D01*
X122874501Y-100647876D01*
X122880909Y-100707487D01*
X122882692Y-100715031D01*
X122881438Y-100715327D01*
X122885856Y-100777069D01*
X122881864Y-100790664D01*
X122881401Y-100792624D01*
X122875000Y-100852155D01*
X122875000Y-100900000D01*
X122912306Y-100900000D01*
X122979345Y-100919685D01*
X122996510Y-100932974D01*
X123004800Y-100940643D01*
X123017454Y-100957546D01*
X123046910Y-100979597D01*
X123051642Y-100983974D01*
X123066392Y-101008654D01*
X123083620Y-101031668D01*
X123084091Y-101038267D01*
X123087487Y-101043948D01*
X123086553Y-101072684D01*
X123088604Y-101101360D01*
X123085432Y-101107167D01*
X123085218Y-101113781D01*
X123068897Y-101137449D01*
X123055118Y-101162683D01*
X123046121Y-101170478D01*
X123045554Y-101171301D01*
X123044815Y-101171609D01*
X123041749Y-101174266D01*
X123017454Y-101192454D01*
X123011571Y-101200312D01*
X122955639Y-101242182D01*
X122912306Y-101250000D01*
X122875000Y-101250000D01*
X122875000Y-101297844D01*
X122881401Y-101357372D01*
X122883187Y-101364930D01*
X122881542Y-101365318D01*
X122885851Y-101425656D01*
X122880943Y-101442371D01*
X122880908Y-101442520D01*
X122874501Y-101502117D01*
X122874501Y-101502123D01*
X122874500Y-101502136D01*
X122874500Y-101947870D01*
X122874501Y-101947876D01*
X122880909Y-102007487D01*
X122882692Y-102015031D01*
X122881438Y-102015327D01*
X122885856Y-102077069D01*
X122881864Y-102090664D01*
X122881401Y-102092624D01*
X122875000Y-102152155D01*
X122875000Y-102200000D01*
X122912306Y-102200000D01*
X122979345Y-102219685D01*
X122991361Y-102228468D01*
X123002727Y-102237874D01*
X123017454Y-102257546D01*
X123112295Y-102328544D01*
X123114620Y-102330468D01*
X123132556Y-102357031D01*
X123151747Y-102382668D01*
X123151969Y-102385783D01*
X123153719Y-102388374D01*
X123154445Y-102420405D01*
X123156731Y-102452359D01*
X123155233Y-102455102D01*
X123155304Y-102458226D01*
X123138595Y-102485569D01*
X123123245Y-102513682D01*
X123120503Y-102515178D01*
X123118874Y-102517846D01*
X123090030Y-102531817D01*
X123061922Y-102547166D01*
X123057326Y-102547660D01*
X123055993Y-102548306D01*
X123053791Y-102548040D01*
X123035565Y-102550000D01*
X122875000Y-102550000D01*
X122875000Y-102597844D01*
X122881401Y-102657372D01*
X122881403Y-102657379D01*
X122931645Y-102792086D01*
X122931649Y-102792093D01*
X123017809Y-102907187D01*
X123017812Y-102907190D01*
X123132906Y-102993350D01*
X123132913Y-102993354D01*
X123267620Y-103043596D01*
X123267627Y-103043598D01*
X123327155Y-103049999D01*
X123327172Y-103050000D01*
X123450000Y-103050000D01*
X123450000Y-102524499D01*
X123452550Y-102515813D01*
X123451262Y-102506852D01*
X123462240Y-102482811D01*
X123469685Y-102457460D01*
X123476525Y-102451532D01*
X123480287Y-102443296D01*
X123502521Y-102429006D01*
X123522489Y-102411705D01*
X123533003Y-102409417D01*
X123539065Y-102405522D01*
X123573995Y-102400499D01*
X123676001Y-102400499D01*
X123743039Y-102420184D01*
X123788794Y-102472988D01*
X123800000Y-102524499D01*
X123800000Y-103050000D01*
X123922828Y-103050000D01*
X123922844Y-103049999D01*
X123982372Y-103043598D01*
X123982379Y-103043596D01*
X124117086Y-102993354D01*
X124117093Y-102993350D01*
X124232187Y-102907190D01*
X124232190Y-102907187D01*
X124318350Y-102792093D01*
X124318354Y-102792086D01*
X124368596Y-102657379D01*
X124368598Y-102657372D01*
X124374999Y-102597844D01*
X124375000Y-102597827D01*
X124375000Y-102550000D01*
X124214435Y-102550000D01*
X124187780Y-102542173D01*
X124160377Y-102537596D01*
X124154721Y-102532465D01*
X124147396Y-102530315D01*
X124129206Y-102509323D01*
X124108625Y-102490655D01*
X124106640Y-102483280D01*
X124101641Y-102477511D01*
X124097687Y-102450014D01*
X124090467Y-102423186D01*
X124092783Y-102415910D01*
X124091697Y-102408353D01*
X124103238Y-102383080D01*
X124111668Y-102356610D01*
X124118697Y-102349229D01*
X124120722Y-102344797D01*
X124135380Y-102330468D01*
X124137704Y-102328544D01*
X124232546Y-102257546D01*
X124247272Y-102237874D01*
X124258639Y-102228468D01*
X124277729Y-102220268D01*
X124294361Y-102207818D01*
X124315661Y-102203974D01*
X124322837Y-102200893D01*
X124327981Y-102201752D01*
X124337694Y-102200000D01*
X124375000Y-102200000D01*
X124375000Y-102152172D01*
X124374999Y-102152155D01*
X124368598Y-102092627D01*
X124366814Y-102085076D01*
X124368459Y-102084687D01*
X124364143Y-102024361D01*
X124369058Y-102007619D01*
X124369089Y-102007489D01*
X124369089Y-102007488D01*
X124369091Y-102007483D01*
X124375500Y-101947873D01*
X124375499Y-101502128D01*
X124369091Y-101442517D01*
X124369091Y-101442516D01*
X124367307Y-101434966D01*
X124368551Y-101434671D01*
X124364091Y-101373175D01*
X124371069Y-101340777D01*
X124384759Y-101315582D01*
X124395732Y-101289087D01*
X124401231Y-101285268D01*
X124404428Y-101279385D01*
X124429570Y-101265588D01*
X124453121Y-101249235D01*
X124459811Y-101248995D01*
X124465682Y-101245774D01*
X124494290Y-101247760D01*
X124522946Y-101246735D01*
X124528978Y-101250170D01*
X124535384Y-101250615D01*
X124553579Y-101264177D01*
X124579970Y-101279205D01*
X124740139Y-101439374D01*
X124740149Y-101439385D01*
X124744479Y-101443715D01*
X124744480Y-101443716D01*
X124856284Y-101555520D01*
X124862499Y-101559108D01*
X124910715Y-101609675D01*
X124924500Y-101666496D01*
X124924500Y-101947869D01*
X124924501Y-101947876D01*
X124930908Y-102007479D01*
X124932692Y-102015026D01*
X124931229Y-102015371D01*
X124935585Y-102076371D01*
X124931173Y-102091396D01*
X124930908Y-102092517D01*
X124924501Y-102152117D01*
X124924500Y-102152136D01*
X124924500Y-102597870D01*
X124924501Y-102597876D01*
X124930908Y-102657483D01*
X124981202Y-102792328D01*
X124981203Y-102792330D01*
X125049767Y-102883919D01*
X125074184Y-102949383D01*
X125074500Y-102958230D01*
X125074500Y-105388330D01*
X125074499Y-105388348D01*
X125074499Y-105554054D01*
X125074498Y-105554054D01*
X125115423Y-105706785D01*
X125144358Y-105756900D01*
X125144359Y-105756904D01*
X125144360Y-105756904D01*
X125194479Y-105843714D01*
X125194481Y-105843717D01*
X125313349Y-105962585D01*
X125313355Y-105962590D01*
X130155139Y-110804374D01*
X130155149Y-110804385D01*
X130159479Y-110808715D01*
X130159480Y-110808716D01*
X130271284Y-110920520D01*
X130271286Y-110920521D01*
X130271290Y-110920524D01*
X130408209Y-110999573D01*
X130408216Y-110999577D01*
X130520019Y-111029534D01*
X130560942Y-111040500D01*
X130560943Y-111040500D01*
X131214281Y-111040500D01*
X131281320Y-111060185D01*
X131324765Y-111108205D01*
X131344947Y-111147814D01*
X131344948Y-111147815D01*
X131469890Y-111319786D01*
X131620213Y-111470109D01*
X131792182Y-111595050D01*
X131800946Y-111599516D01*
X131851742Y-111647491D01*
X131868536Y-111715312D01*
X131845998Y-111781447D01*
X131800946Y-111820484D01*
X131792182Y-111824949D01*
X131620213Y-111949890D01*
X131469890Y-112100213D01*
X131344951Y-112272179D01*
X131248444Y-112461585D01*
X131182753Y-112663760D01*
X131149500Y-112873713D01*
X131149500Y-113086286D01*
X131182753Y-113296239D01*
X131248444Y-113498414D01*
X131344951Y-113687820D01*
X131469890Y-113859786D01*
X131620213Y-114010109D01*
X131792179Y-114135048D01*
X131792181Y-114135049D01*
X131792184Y-114135051D01*
X131981588Y-114231557D01*
X132183757Y-114297246D01*
X132393713Y-114330500D01*
X132393714Y-114330500D01*
X132606286Y-114330500D01*
X132606287Y-114330500D01*
X132816243Y-114297246D01*
X133018412Y-114231557D01*
X133207816Y-114135051D01*
X133229789Y-114119086D01*
X133379786Y-114010109D01*
X133379788Y-114010106D01*
X133379792Y-114010104D01*
X133530104Y-113859792D01*
X133530106Y-113859788D01*
X133530109Y-113859786D01*
X133655048Y-113687820D01*
X133655047Y-113687820D01*
X133655051Y-113687816D01*
X133751557Y-113498412D01*
X133817246Y-113296243D01*
X133850500Y-113086287D01*
X133850500Y-112873713D01*
X133817246Y-112663757D01*
X133751557Y-112461588D01*
X133655051Y-112272184D01*
X133655049Y-112272181D01*
X133655048Y-112272179D01*
X133530109Y-112100213D01*
X133379786Y-111949890D01*
X133207820Y-111824951D01*
X133207115Y-111824591D01*
X133199054Y-111820485D01*
X133148259Y-111772512D01*
X133131463Y-111704692D01*
X133153999Y-111638556D01*
X133199054Y-111599515D01*
X133207816Y-111595051D01*
X133229789Y-111579086D01*
X133379786Y-111470109D01*
X133379788Y-111470106D01*
X133379792Y-111470104D01*
X133530104Y-111319792D01*
X133530106Y-111319788D01*
X133530109Y-111319786D01*
X133655048Y-111147820D01*
X133655047Y-111147820D01*
X133655051Y-111147816D01*
X133751557Y-110958412D01*
X133817246Y-110756243D01*
X133850500Y-110546287D01*
X133850500Y-110333713D01*
X133817246Y-110123757D01*
X133751557Y-109921588D01*
X133655051Y-109732184D01*
X133655049Y-109732181D01*
X133655048Y-109732179D01*
X133530109Y-109560213D01*
X133379786Y-109409890D01*
X133207820Y-109284951D01*
X133207115Y-109284591D01*
X133199054Y-109280485D01*
X133148259Y-109232512D01*
X133131463Y-109164692D01*
X133153999Y-109098556D01*
X133199054Y-109059515D01*
X133207816Y-109055051D01*
X133229789Y-109039086D01*
X133379786Y-108930109D01*
X133379788Y-108930106D01*
X133379792Y-108930104D01*
X133530104Y-108779792D01*
X133530106Y-108779788D01*
X133530109Y-108779786D01*
X133655048Y-108607820D01*
X133655047Y-108607820D01*
X133655051Y-108607816D01*
X133751557Y-108418412D01*
X133817246Y-108216243D01*
X133850500Y-108006287D01*
X133850500Y-107793713D01*
X133817246Y-107583757D01*
X133751557Y-107381588D01*
X133655051Y-107192184D01*
X133655049Y-107192181D01*
X133655048Y-107192179D01*
X133530109Y-107020213D01*
X133379786Y-106869890D01*
X133207820Y-106744951D01*
X133207115Y-106744591D01*
X133199054Y-106740485D01*
X133148259Y-106692512D01*
X133131463Y-106624692D01*
X133153999Y-106558556D01*
X133199054Y-106519515D01*
X133207816Y-106515051D01*
X133229789Y-106499086D01*
X133379786Y-106390109D01*
X133379788Y-106390106D01*
X133379792Y-106390104D01*
X133530104Y-106239792D01*
X133530106Y-106239788D01*
X133530109Y-106239786D01*
X133655048Y-106067820D01*
X133655047Y-106067820D01*
X133655051Y-106067816D01*
X133751557Y-105878412D01*
X133817246Y-105676243D01*
X133850500Y-105466287D01*
X133850500Y-105253713D01*
X133817246Y-105043757D01*
X133751557Y-104841588D01*
X133655051Y-104652184D01*
X133655049Y-104652181D01*
X133655048Y-104652179D01*
X133530109Y-104480213D01*
X133379786Y-104329890D01*
X133207820Y-104204951D01*
X133207115Y-104204591D01*
X133199054Y-104200485D01*
X133148259Y-104152512D01*
X133131463Y-104084692D01*
X133153999Y-104018556D01*
X133199054Y-103979515D01*
X133207816Y-103975051D01*
X133229789Y-103959086D01*
X133379786Y-103850109D01*
X133379788Y-103850106D01*
X133379792Y-103850104D01*
X133530104Y-103699792D01*
X133530106Y-103699788D01*
X133530109Y-103699786D01*
X133655048Y-103527820D01*
X133655047Y-103527820D01*
X133655051Y-103527816D01*
X133751557Y-103338412D01*
X133817246Y-103136243D01*
X133850500Y-102926287D01*
X133850500Y-102713713D01*
X133817246Y-102503757D01*
X133751557Y-102301588D01*
X133655051Y-102112184D01*
X133655049Y-102112181D01*
X133655048Y-102112179D01*
X133530109Y-101940213D01*
X133379786Y-101789890D01*
X133207820Y-101664951D01*
X133207115Y-101664591D01*
X133199054Y-101660485D01*
X133148259Y-101612512D01*
X133131463Y-101544692D01*
X133153999Y-101478556D01*
X133199054Y-101439515D01*
X133207816Y-101435051D01*
X133314733Y-101357372D01*
X133379786Y-101310109D01*
X133379788Y-101310106D01*
X133379792Y-101310104D01*
X133530104Y-101159792D01*
X133530106Y-101159788D01*
X133530109Y-101159786D01*
X133655048Y-100987820D01*
X133655047Y-100987820D01*
X133655051Y-100987816D01*
X133751557Y-100798412D01*
X133817246Y-100596243D01*
X133850500Y-100386287D01*
X133850500Y-100173713D01*
X133817246Y-99963757D01*
X133751557Y-99761588D01*
X133655051Y-99572184D01*
X133655049Y-99572181D01*
X133655048Y-99572179D01*
X133530109Y-99400213D01*
X133379786Y-99249890D01*
X133207820Y-99124951D01*
X133207115Y-99124591D01*
X133199054Y-99120485D01*
X133148259Y-99072512D01*
X133131463Y-99004692D01*
X133153999Y-98938556D01*
X133199054Y-98899515D01*
X133207816Y-98895051D01*
X133229789Y-98879086D01*
X133379786Y-98770109D01*
X133379788Y-98770106D01*
X133379792Y-98770104D01*
X133530104Y-98619792D01*
X133530106Y-98619788D01*
X133530109Y-98619786D01*
X133655048Y-98447820D01*
X133655047Y-98447820D01*
X133655051Y-98447816D01*
X133751557Y-98258412D01*
X133817246Y-98056243D01*
X133850500Y-97846287D01*
X133850500Y-97633713D01*
X133817246Y-97423757D01*
X133751557Y-97221588D01*
X133655051Y-97032184D01*
X133655049Y-97032181D01*
X133655048Y-97032179D01*
X133530109Y-96860213D01*
X133379786Y-96709890D01*
X133207820Y-96584951D01*
X133207115Y-96584591D01*
X133199054Y-96580485D01*
X133148259Y-96532512D01*
X133131463Y-96464692D01*
X133153999Y-96398556D01*
X133199054Y-96359515D01*
X133207816Y-96355051D01*
X133229789Y-96339086D01*
X133379786Y-96230109D01*
X133379788Y-96230106D01*
X133379792Y-96230104D01*
X133530104Y-96079792D01*
X133530106Y-96079788D01*
X133530109Y-96079786D01*
X133655048Y-95907820D01*
X133655047Y-95907820D01*
X133655051Y-95907816D01*
X133751557Y-95718412D01*
X133817246Y-95516243D01*
X133850500Y-95306287D01*
X133850500Y-95093713D01*
X133817246Y-94883757D01*
X133751557Y-94681588D01*
X133655051Y-94492184D01*
X133655049Y-94492181D01*
X133655048Y-94492179D01*
X133530109Y-94320213D01*
X133379786Y-94169890D01*
X133207820Y-94044951D01*
X133207115Y-94044591D01*
X133199054Y-94040485D01*
X133148259Y-93992512D01*
X133131463Y-93924692D01*
X133153999Y-93858556D01*
X133199054Y-93819515D01*
X133207816Y-93815051D01*
X133229789Y-93799086D01*
X133379786Y-93690109D01*
X133379788Y-93690106D01*
X133379792Y-93690104D01*
X133530104Y-93539792D01*
X133530106Y-93539788D01*
X133530109Y-93539786D01*
X133655048Y-93367820D01*
X133655047Y-93367820D01*
X133655051Y-93367816D01*
X133751557Y-93178412D01*
X133817246Y-92976243D01*
X133850500Y-92766287D01*
X133850500Y-92553713D01*
X133817246Y-92343757D01*
X133751557Y-92141588D01*
X133655051Y-91952184D01*
X133655049Y-91952181D01*
X133655048Y-91952179D01*
X133530109Y-91780213D01*
X133379786Y-91629890D01*
X133207820Y-91504951D01*
X133207115Y-91504591D01*
X133199054Y-91500485D01*
X133148259Y-91452512D01*
X133131463Y-91384692D01*
X133153999Y-91318556D01*
X133199054Y-91279515D01*
X133207816Y-91275051D01*
X133256480Y-91239695D01*
X133379786Y-91150109D01*
X133379788Y-91150106D01*
X133379792Y-91150104D01*
X133530104Y-90999792D01*
X133530106Y-90999788D01*
X133530109Y-90999786D01*
X133655048Y-90827820D01*
X133655047Y-90827820D01*
X133655051Y-90827816D01*
X133751557Y-90638412D01*
X133817246Y-90436243D01*
X133850500Y-90226287D01*
X133850500Y-90013713D01*
X133817246Y-89803757D01*
X133751557Y-89601588D01*
X133655051Y-89412184D01*
X133655049Y-89412181D01*
X133655048Y-89412179D01*
X133530109Y-89240213D01*
X133379786Y-89089890D01*
X133207820Y-88964951D01*
X133207115Y-88964591D01*
X133199054Y-88960485D01*
X133148259Y-88912512D01*
X133131463Y-88844692D01*
X133153999Y-88778556D01*
X133199054Y-88739515D01*
X133207816Y-88735051D01*
X133229789Y-88719086D01*
X133379786Y-88610109D01*
X133379788Y-88610106D01*
X133379792Y-88610104D01*
X133530104Y-88459792D01*
X133530106Y-88459788D01*
X133530109Y-88459786D01*
X133655048Y-88287820D01*
X133655047Y-88287820D01*
X133655051Y-88287816D01*
X133751557Y-88098412D01*
X133817246Y-87896243D01*
X133850500Y-87686287D01*
X133850500Y-87473713D01*
X133817246Y-87263757D01*
X133751557Y-87061588D01*
X133655051Y-86872184D01*
X133655049Y-86872181D01*
X133655048Y-86872179D01*
X133530109Y-86700213D01*
X133379786Y-86549890D01*
X133207820Y-86424951D01*
X133207115Y-86424591D01*
X133199054Y-86420485D01*
X133148259Y-86372512D01*
X133131463Y-86304692D01*
X133153999Y-86238556D01*
X133199054Y-86199515D01*
X133207816Y-86195051D01*
X133254319Y-86161265D01*
X133379786Y-86070109D01*
X133379788Y-86070106D01*
X133379792Y-86070104D01*
X133530104Y-85919792D01*
X133530106Y-85919788D01*
X133530109Y-85919786D01*
X133639086Y-85769789D01*
X133655051Y-85747816D01*
X133751557Y-85558412D01*
X133817246Y-85356243D01*
X133850500Y-85146287D01*
X133850500Y-84933713D01*
X133817246Y-84723757D01*
X133751557Y-84521588D01*
X133655051Y-84332184D01*
X133655049Y-84332181D01*
X133655048Y-84332179D01*
X133530109Y-84160213D01*
X133379786Y-84009890D01*
X133207820Y-83884951D01*
X133207115Y-83884591D01*
X133199054Y-83880485D01*
X133148259Y-83832512D01*
X133131463Y-83764692D01*
X133153999Y-83698556D01*
X133199054Y-83659515D01*
X133207816Y-83655051D01*
X133229789Y-83639086D01*
X133379786Y-83530109D01*
X133379788Y-83530106D01*
X133379792Y-83530104D01*
X133530104Y-83379792D01*
X133530106Y-83379788D01*
X133530109Y-83379786D01*
X133655048Y-83207820D01*
X133655047Y-83207820D01*
X133655051Y-83207816D01*
X133751557Y-83018412D01*
X133817246Y-82816243D01*
X133850500Y-82606287D01*
X133850500Y-82393713D01*
X133817246Y-82183757D01*
X133751557Y-81981588D01*
X133655051Y-81792184D01*
X133655049Y-81792181D01*
X133655048Y-81792179D01*
X133530109Y-81620213D01*
X133379786Y-81469890D01*
X133207817Y-81344949D01*
X133198504Y-81340204D01*
X133147707Y-81292230D01*
X133130912Y-81224409D01*
X133153449Y-81158274D01*
X133198507Y-81119232D01*
X133207555Y-81114622D01*
X133261716Y-81075270D01*
X133261717Y-81075270D01*
X132629408Y-80442962D01*
X132692993Y-80425925D01*
X132807007Y-80360099D01*
X132900099Y-80267007D01*
X132965925Y-80152993D01*
X132982962Y-80089409D01*
X133615270Y-80721717D01*
X133615270Y-80721716D01*
X133654622Y-80667554D01*
X133751095Y-80478217D01*
X133816757Y-80276130D01*
X133816757Y-80276127D01*
X133850000Y-80066246D01*
X133850000Y-79853753D01*
X133816757Y-79643872D01*
X133816757Y-79643869D01*
X133751095Y-79441782D01*
X133654624Y-79252449D01*
X133615270Y-79198282D01*
X133615269Y-79198282D01*
X132982962Y-79830590D01*
X132965925Y-79767007D01*
X132900099Y-79652993D01*
X132807007Y-79559901D01*
X132692993Y-79494075D01*
X132629408Y-79477037D01*
X133299627Y-78806818D01*
X133360950Y-78773333D01*
X133387307Y-78770499D01*
X133397872Y-78770499D01*
X133457483Y-78764091D01*
X133592331Y-78713796D01*
X133707546Y-78627546D01*
X133793796Y-78512331D01*
X133844091Y-78377483D01*
X133850500Y-78317873D01*
X133850499Y-76970095D01*
X133870184Y-76903057D01*
X133886813Y-76882420D01*
X134247098Y-76522135D01*
X156549500Y-76522135D01*
X156549500Y-78317870D01*
X156549501Y-78317876D01*
X156555908Y-78377483D01*
X156606202Y-78512328D01*
X156606206Y-78512335D01*
X156692452Y-78627544D01*
X156692455Y-78627547D01*
X156807664Y-78713793D01*
X156807671Y-78713797D01*
X156852618Y-78730561D01*
X156942517Y-78764091D01*
X157002127Y-78770500D01*
X157012685Y-78770499D01*
X157079723Y-78790179D01*
X157100372Y-78806818D01*
X157770591Y-79477037D01*
X157707007Y-79494075D01*
X157592993Y-79559901D01*
X157499901Y-79652993D01*
X157434075Y-79767007D01*
X157417037Y-79830591D01*
X156784728Y-79198282D01*
X156784727Y-79198282D01*
X156745380Y-79252439D01*
X156648904Y-79441782D01*
X156583242Y-79643869D01*
X156583242Y-79643872D01*
X156550000Y-79853753D01*
X156550000Y-80066246D01*
X156583242Y-80276127D01*
X156583242Y-80276130D01*
X156648904Y-80478217D01*
X156745375Y-80667550D01*
X156784728Y-80721716D01*
X157417037Y-80089408D01*
X157434075Y-80152993D01*
X157499901Y-80267007D01*
X157592993Y-80360099D01*
X157707007Y-80425925D01*
X157770590Y-80442962D01*
X157138282Y-81075269D01*
X157138282Y-81075270D01*
X157192452Y-81114626D01*
X157192451Y-81114626D01*
X157201495Y-81119234D01*
X157252292Y-81167208D01*
X157269087Y-81235029D01*
X157246550Y-81301164D01*
X157201499Y-81340202D01*
X157192182Y-81344949D01*
X157020213Y-81469890D01*
X156869890Y-81620213D01*
X156744951Y-81792179D01*
X156648444Y-81981585D01*
X156582753Y-82183760D01*
X156549500Y-82393713D01*
X156549500Y-82606286D01*
X156571278Y-82743791D01*
X156582754Y-82816243D01*
X156648025Y-83017126D01*
X156648444Y-83018414D01*
X156744951Y-83207820D01*
X156869890Y-83379786D01*
X157020213Y-83530109D01*
X157192182Y-83655050D01*
X157200946Y-83659516D01*
X157251742Y-83707491D01*
X157268536Y-83775312D01*
X157245998Y-83841447D01*
X157200946Y-83880484D01*
X157192182Y-83884949D01*
X157020213Y-84009890D01*
X156869890Y-84160213D01*
X156744951Y-84332179D01*
X156648444Y-84521585D01*
X156582753Y-84723760D01*
X156549500Y-84933713D01*
X156549500Y-85146286D01*
X156565621Y-85248074D01*
X156582754Y-85356243D01*
X156640371Y-85533570D01*
X156648444Y-85558414D01*
X156744951Y-85747820D01*
X156869890Y-85919786D01*
X157020213Y-86070109D01*
X157192182Y-86195050D01*
X157200946Y-86199516D01*
X157251742Y-86247491D01*
X157268536Y-86315312D01*
X157245998Y-86381447D01*
X157200946Y-86420484D01*
X157192182Y-86424949D01*
X157020213Y-86549890D01*
X156869890Y-86700213D01*
X156744951Y-86872179D01*
X156648444Y-87061585D01*
X156582753Y-87263760D01*
X156557598Y-87422582D01*
X156549500Y-87473713D01*
X156549500Y-87686287D01*
X156557908Y-87739373D01*
X156580651Y-87882970D01*
X156582754Y-87896243D01*
X156615537Y-87997139D01*
X156648444Y-88098414D01*
X156744951Y-88287820D01*
X156869890Y-88459786D01*
X157020213Y-88610109D01*
X157192182Y-88735050D01*
X157200946Y-88739516D01*
X157251742Y-88787491D01*
X157268536Y-88855312D01*
X157245998Y-88921447D01*
X157200946Y-88960484D01*
X157192182Y-88964949D01*
X157020213Y-89089890D01*
X156869890Y-89240213D01*
X156744951Y-89412179D01*
X156648444Y-89601585D01*
X156582753Y-89803760D01*
X156575542Y-89849292D01*
X156549500Y-90013713D01*
X156549500Y-90226287D01*
X156582754Y-90436243D01*
X156642885Y-90621307D01*
X156648444Y-90638414D01*
X156744951Y-90827820D01*
X156869890Y-90999786D01*
X157020213Y-91150109D01*
X157192182Y-91275050D01*
X157200946Y-91279516D01*
X157251742Y-91327491D01*
X157268536Y-91395312D01*
X157245998Y-91461447D01*
X157200946Y-91500484D01*
X157192182Y-91504949D01*
X157020213Y-91629890D01*
X156869890Y-91780213D01*
X156744951Y-91952179D01*
X156648444Y-92141585D01*
X156582753Y-92343760D01*
X156549500Y-92553713D01*
X156549500Y-92766286D01*
X156582753Y-92976239D01*
X156648444Y-93178414D01*
X156744951Y-93367820D01*
X156869890Y-93539786D01*
X157020213Y-93690109D01*
X157192182Y-93815050D01*
X157200946Y-93819516D01*
X157251742Y-93867491D01*
X157268536Y-93935312D01*
X157245998Y-94001447D01*
X157200946Y-94040484D01*
X157192182Y-94044949D01*
X157020213Y-94169890D01*
X156869890Y-94320213D01*
X156744951Y-94492179D01*
X156648444Y-94681585D01*
X156582753Y-94883760D01*
X156549500Y-95093713D01*
X156549500Y-95306286D01*
X156582753Y-95516239D01*
X156648444Y-95718414D01*
X156744951Y-95907820D01*
X156869890Y-96079786D01*
X157020213Y-96230109D01*
X157192182Y-96355050D01*
X157200946Y-96359516D01*
X157251742Y-96407491D01*
X157268536Y-96475312D01*
X157245998Y-96541447D01*
X157200946Y-96580484D01*
X157192182Y-96584949D01*
X157020213Y-96709890D01*
X156869890Y-96860213D01*
X156744951Y-97032179D01*
X156648444Y-97221585D01*
X156582753Y-97423760D01*
X156549500Y-97633713D01*
X156549500Y-97846286D01*
X156582753Y-98056239D01*
X156648444Y-98258414D01*
X156744951Y-98447820D01*
X156869890Y-98619786D01*
X157020213Y-98770109D01*
X157192182Y-98895050D01*
X157200946Y-98899516D01*
X157251742Y-98947491D01*
X157268536Y-99015312D01*
X157245998Y-99081447D01*
X157200946Y-99120484D01*
X157192182Y-99124949D01*
X157020213Y-99249890D01*
X156869890Y-99400213D01*
X156744951Y-99572179D01*
X156648444Y-99761585D01*
X156582753Y-99963760D01*
X156549500Y-100173713D01*
X156549500Y-100386286D01*
X156574234Y-100542454D01*
X156582754Y-100596243D01*
X156646562Y-100792624D01*
X156648444Y-100798414D01*
X156744951Y-100987820D01*
X156869890Y-101159786D01*
X157020213Y-101310109D01*
X157192182Y-101435050D01*
X157200946Y-101439516D01*
X157251742Y-101487491D01*
X157268536Y-101555312D01*
X157245998Y-101621447D01*
X157200946Y-101660484D01*
X157192182Y-101664949D01*
X157020213Y-101789890D01*
X156869890Y-101940213D01*
X156744951Y-102112179D01*
X156648444Y-102301585D01*
X156648443Y-102301587D01*
X156648443Y-102301588D01*
X156639059Y-102330468D01*
X156582753Y-102503760D01*
X156549500Y-102713713D01*
X156549500Y-102926286D01*
X156582753Y-103136239D01*
X156648444Y-103338414D01*
X156744951Y-103527820D01*
X156869890Y-103699786D01*
X157020213Y-103850109D01*
X157192182Y-103975050D01*
X157200946Y-103979516D01*
X157251742Y-104027491D01*
X157268536Y-104095312D01*
X157245998Y-104161447D01*
X157200946Y-104200484D01*
X157192182Y-104204949D01*
X157020213Y-104329890D01*
X156869890Y-104480213D01*
X156744951Y-104652179D01*
X156648444Y-104841585D01*
X156582753Y-105043760D01*
X156549500Y-105253713D01*
X156549500Y-105466286D01*
X156563401Y-105554057D01*
X156582754Y-105676243D01*
X156608962Y-105756904D01*
X156648444Y-105878414D01*
X156744951Y-106067820D01*
X156869890Y-106239786D01*
X157020213Y-106390109D01*
X157192182Y-106515050D01*
X157200946Y-106519516D01*
X157251742Y-106567491D01*
X157268536Y-106635312D01*
X157245998Y-106701447D01*
X157200946Y-106740484D01*
X157192182Y-106744949D01*
X157020213Y-106869890D01*
X156869890Y-107020213D01*
X156744951Y-107192179D01*
X156648444Y-107381585D01*
X156582753Y-107583760D01*
X156549500Y-107793713D01*
X156549500Y-108006286D01*
X156582753Y-108216239D01*
X156648444Y-108418414D01*
X156744951Y-108607820D01*
X156869890Y-108779786D01*
X157020213Y-108930109D01*
X157192182Y-109055050D01*
X157200946Y-109059516D01*
X157251742Y-109107491D01*
X157268536Y-109175312D01*
X157245998Y-109241447D01*
X157200946Y-109280484D01*
X157192182Y-109284949D01*
X157020213Y-109409890D01*
X156869890Y-109560213D01*
X156744951Y-109732179D01*
X156648444Y-109921585D01*
X156582753Y-110123760D01*
X156549500Y-110333713D01*
X156549500Y-110546287D01*
X156582754Y-110756243D01*
X156636132Y-110920524D01*
X156648444Y-110958414D01*
X156744951Y-111147820D01*
X156869890Y-111319786D01*
X157020213Y-111470109D01*
X157192182Y-111595050D01*
X157200946Y-111599516D01*
X157251742Y-111647491D01*
X157268536Y-111715312D01*
X157245998Y-111781447D01*
X157200946Y-111820484D01*
X157192182Y-111824949D01*
X157020213Y-111949890D01*
X156869890Y-112100213D01*
X156744951Y-112272179D01*
X156648444Y-112461585D01*
X156582753Y-112663760D01*
X156549500Y-112873713D01*
X156549500Y-113086286D01*
X156582753Y-113296239D01*
X156648444Y-113498414D01*
X156744951Y-113687820D01*
X156869890Y-113859786D01*
X157020213Y-114010109D01*
X157192179Y-114135048D01*
X157192181Y-114135049D01*
X157192184Y-114135051D01*
X157381588Y-114231557D01*
X157583757Y-114297246D01*
X157793713Y-114330500D01*
X157793714Y-114330500D01*
X158006286Y-114330500D01*
X158006287Y-114330500D01*
X158216243Y-114297246D01*
X158418412Y-114231557D01*
X158607816Y-114135051D01*
X158629789Y-114119086D01*
X158779786Y-114010109D01*
X158779788Y-114010106D01*
X158779792Y-114010104D01*
X158930104Y-113859792D01*
X158930106Y-113859788D01*
X158930109Y-113859786D01*
X159055048Y-113687820D01*
X159055047Y-113687820D01*
X159055051Y-113687816D01*
X159151557Y-113498412D01*
X159217246Y-113296243D01*
X159250500Y-113086287D01*
X159250500Y-112873713D01*
X159217246Y-112663757D01*
X159151557Y-112461588D01*
X159055051Y-112272184D01*
X159055049Y-112272181D01*
X159055048Y-112272179D01*
X158930109Y-112100213D01*
X158779786Y-111949890D01*
X158607820Y-111824951D01*
X158607115Y-111824591D01*
X158599054Y-111820485D01*
X158548259Y-111772512D01*
X158531463Y-111704692D01*
X158553999Y-111638556D01*
X158599054Y-111599515D01*
X158607816Y-111595051D01*
X158629789Y-111579086D01*
X158779786Y-111470109D01*
X158779788Y-111470106D01*
X158779792Y-111470104D01*
X158930104Y-111319792D01*
X158930106Y-111319788D01*
X158930109Y-111319786D01*
X159055048Y-111147820D01*
X159055047Y-111147820D01*
X159055051Y-111147816D01*
X159151557Y-110958412D01*
X159217246Y-110756243D01*
X159250500Y-110546287D01*
X159250500Y-110333713D01*
X159217246Y-110123757D01*
X159151557Y-109921588D01*
X159055051Y-109732184D01*
X159055049Y-109732181D01*
X159055048Y-109732179D01*
X158930109Y-109560213D01*
X158779786Y-109409890D01*
X158607820Y-109284951D01*
X158607115Y-109284591D01*
X158599054Y-109280485D01*
X158548259Y-109232512D01*
X158531463Y-109164692D01*
X158553999Y-109098556D01*
X158599054Y-109059515D01*
X158607816Y-109055051D01*
X158629789Y-109039086D01*
X158779786Y-108930109D01*
X158779788Y-108930106D01*
X158779792Y-108930104D01*
X158930104Y-108779792D01*
X158930106Y-108779788D01*
X158930109Y-108779786D01*
X159055048Y-108607820D01*
X159055047Y-108607820D01*
X159055051Y-108607816D01*
X159151557Y-108418412D01*
X159217246Y-108216243D01*
X159250500Y-108006287D01*
X159250500Y-107793713D01*
X159217246Y-107583757D01*
X159151557Y-107381588D01*
X159055051Y-107192184D01*
X159055049Y-107192181D01*
X159055048Y-107192179D01*
X158930109Y-107020213D01*
X158779786Y-106869890D01*
X158607820Y-106744951D01*
X158607115Y-106744591D01*
X158599054Y-106740485D01*
X158548259Y-106692512D01*
X158531463Y-106624692D01*
X158553999Y-106558556D01*
X158599054Y-106519515D01*
X158607816Y-106515051D01*
X158629789Y-106499086D01*
X158779786Y-106390109D01*
X158779788Y-106390106D01*
X158779792Y-106390104D01*
X158930104Y-106239792D01*
X158930106Y-106239788D01*
X158930109Y-106239786D01*
X159055048Y-106067820D01*
X159055047Y-106067820D01*
X159055051Y-106067816D01*
X159151557Y-105878412D01*
X159217246Y-105676243D01*
X159250500Y-105466287D01*
X159250500Y-105253713D01*
X159217246Y-105043757D01*
X159151557Y-104841588D01*
X159055051Y-104652184D01*
X159055049Y-104652181D01*
X159055048Y-104652179D01*
X158930109Y-104480213D01*
X158779786Y-104329890D01*
X158607820Y-104204951D01*
X158607115Y-104204591D01*
X158599054Y-104200485D01*
X158548259Y-104152512D01*
X158531463Y-104084692D01*
X158553999Y-104018556D01*
X158599054Y-103979515D01*
X158607816Y-103975051D01*
X158629789Y-103959086D01*
X158779786Y-103850109D01*
X158779788Y-103850106D01*
X158779792Y-103850104D01*
X158930104Y-103699792D01*
X158930106Y-103699788D01*
X158930109Y-103699786D01*
X159055048Y-103527820D01*
X159055047Y-103527820D01*
X159055051Y-103527816D01*
X159151557Y-103338412D01*
X159217246Y-103136243D01*
X159250500Y-102926287D01*
X159250500Y-102713713D01*
X159217246Y-102503757D01*
X159151557Y-102301588D01*
X159055051Y-102112184D01*
X159055049Y-102112181D01*
X159055048Y-102112179D01*
X158930109Y-101940213D01*
X158779786Y-101789890D01*
X158607820Y-101664951D01*
X158607115Y-101664591D01*
X158599054Y-101660485D01*
X158548259Y-101612512D01*
X158531463Y-101544692D01*
X158553999Y-101478556D01*
X158599054Y-101439515D01*
X158607816Y-101435051D01*
X158714733Y-101357372D01*
X158779786Y-101310109D01*
X158779788Y-101310106D01*
X158779792Y-101310104D01*
X158930104Y-101159792D01*
X158930106Y-101159788D01*
X158930109Y-101159786D01*
X159055048Y-100987820D01*
X159055047Y-100987820D01*
X159055051Y-100987816D01*
X159151557Y-100798412D01*
X159217246Y-100596243D01*
X159250500Y-100386287D01*
X159250500Y-100173713D01*
X159217246Y-99963757D01*
X159151557Y-99761588D01*
X159055051Y-99572184D01*
X159055049Y-99572181D01*
X159055048Y-99572179D01*
X158930109Y-99400213D01*
X158779786Y-99249890D01*
X158607820Y-99124951D01*
X158607115Y-99124591D01*
X158599054Y-99120485D01*
X158548259Y-99072512D01*
X158531463Y-99004692D01*
X158553999Y-98938556D01*
X158599054Y-98899515D01*
X158607816Y-98895051D01*
X158629789Y-98879086D01*
X158779786Y-98770109D01*
X158779788Y-98770106D01*
X158779792Y-98770104D01*
X158930104Y-98619792D01*
X158930106Y-98619788D01*
X158930109Y-98619786D01*
X159055048Y-98447820D01*
X159055047Y-98447820D01*
X159055051Y-98447816D01*
X159151557Y-98258412D01*
X159217246Y-98056243D01*
X159250500Y-97846287D01*
X159250500Y-97633713D01*
X159217246Y-97423757D01*
X159151557Y-97221588D01*
X159055051Y-97032184D01*
X159055049Y-97032181D01*
X159055048Y-97032179D01*
X158930109Y-96860213D01*
X158779786Y-96709890D01*
X158607820Y-96584951D01*
X158607115Y-96584591D01*
X158599054Y-96580485D01*
X158548259Y-96532512D01*
X158531463Y-96464692D01*
X158553999Y-96398556D01*
X158599054Y-96359515D01*
X158607816Y-96355051D01*
X158629789Y-96339086D01*
X158779786Y-96230109D01*
X158779788Y-96230106D01*
X158779792Y-96230104D01*
X158930104Y-96079792D01*
X158930106Y-96079788D01*
X158930109Y-96079786D01*
X159055048Y-95907820D01*
X159055047Y-95907820D01*
X159055051Y-95907816D01*
X159151557Y-95718412D01*
X159217246Y-95516243D01*
X159250500Y-95306287D01*
X159250500Y-95093713D01*
X159217246Y-94883757D01*
X159151557Y-94681588D01*
X159055051Y-94492184D01*
X159055049Y-94492181D01*
X159055048Y-94492179D01*
X158930109Y-94320213D01*
X158779786Y-94169890D01*
X158607820Y-94044951D01*
X158607115Y-94044591D01*
X158599054Y-94040485D01*
X158548259Y-93992512D01*
X158531463Y-93924692D01*
X158553999Y-93858556D01*
X158599054Y-93819515D01*
X158607816Y-93815051D01*
X158629789Y-93799086D01*
X158779786Y-93690109D01*
X158779788Y-93690106D01*
X158779792Y-93690104D01*
X158930104Y-93539792D01*
X158930106Y-93539788D01*
X158930109Y-93539786D01*
X159055048Y-93367820D01*
X159055047Y-93367820D01*
X159055051Y-93367816D01*
X159151557Y-93178412D01*
X159217246Y-92976243D01*
X159250500Y-92766287D01*
X159250500Y-92553713D01*
X159217246Y-92343757D01*
X159151557Y-92141588D01*
X159055051Y-91952184D01*
X159055049Y-91952181D01*
X159055048Y-91952179D01*
X158930109Y-91780213D01*
X158779786Y-91629890D01*
X158607820Y-91504951D01*
X158607115Y-91504591D01*
X158599054Y-91500485D01*
X158548259Y-91452512D01*
X158531463Y-91384692D01*
X158553999Y-91318556D01*
X158599054Y-91279515D01*
X158607816Y-91275051D01*
X158656480Y-91239695D01*
X158779786Y-91150109D01*
X158779788Y-91150106D01*
X158779792Y-91150104D01*
X158930104Y-90999792D01*
X158930106Y-90999788D01*
X158930109Y-90999786D01*
X159055048Y-90827820D01*
X159055047Y-90827820D01*
X159055051Y-90827816D01*
X159151557Y-90638412D01*
X159217246Y-90436243D01*
X159250500Y-90226287D01*
X159250500Y-90013713D01*
X159217246Y-89803757D01*
X159151557Y-89601588D01*
X159055051Y-89412184D01*
X159055049Y-89412181D01*
X159055048Y-89412179D01*
X158930109Y-89240213D01*
X158779786Y-89089890D01*
X158607820Y-88964951D01*
X158607115Y-88964591D01*
X158599054Y-88960485D01*
X158548259Y-88912512D01*
X158531463Y-88844692D01*
X158553999Y-88778556D01*
X158599054Y-88739515D01*
X158607816Y-88735051D01*
X158629789Y-88719086D01*
X158779786Y-88610109D01*
X158779788Y-88610106D01*
X158779792Y-88610104D01*
X158930104Y-88459792D01*
X158930106Y-88459788D01*
X158930109Y-88459786D01*
X159055048Y-88287820D01*
X159055047Y-88287820D01*
X159055051Y-88287816D01*
X159151557Y-88098412D01*
X159217246Y-87896243D01*
X159250500Y-87686287D01*
X159250500Y-87473713D01*
X159217246Y-87263757D01*
X159151557Y-87061588D01*
X159055051Y-86872184D01*
X159055049Y-86872181D01*
X159055048Y-86872179D01*
X158930109Y-86700213D01*
X158779786Y-86549890D01*
X158607820Y-86424951D01*
X158607115Y-86424591D01*
X158599054Y-86420485D01*
X158548259Y-86372512D01*
X158531463Y-86304692D01*
X158553999Y-86238556D01*
X158599054Y-86199515D01*
X158607816Y-86195051D01*
X158654319Y-86161265D01*
X158779786Y-86070109D01*
X158779788Y-86070106D01*
X158779792Y-86070104D01*
X158930104Y-85919792D01*
X158930106Y-85919788D01*
X158930109Y-85919786D01*
X159039086Y-85769789D01*
X159055051Y-85747816D01*
X159151557Y-85558412D01*
X159217246Y-85356243D01*
X159250500Y-85146287D01*
X159250500Y-84933713D01*
X159217246Y-84723757D01*
X159151557Y-84521588D01*
X159055051Y-84332184D01*
X159055049Y-84332181D01*
X159055048Y-84332179D01*
X158930109Y-84160213D01*
X158779786Y-84009890D01*
X158607820Y-83884951D01*
X158607115Y-83884591D01*
X158599054Y-83880485D01*
X158548259Y-83832512D01*
X158531463Y-83764692D01*
X158553999Y-83698556D01*
X158599054Y-83659515D01*
X158607816Y-83655051D01*
X158629789Y-83639086D01*
X158779786Y-83530109D01*
X158779788Y-83530106D01*
X158779792Y-83530104D01*
X158930104Y-83379792D01*
X158930106Y-83379788D01*
X158930109Y-83379786D01*
X159055048Y-83207820D01*
X159055047Y-83207820D01*
X159055051Y-83207816D01*
X159151557Y-83018412D01*
X159217246Y-82816243D01*
X159250500Y-82606287D01*
X159250500Y-82393713D01*
X159217246Y-82183757D01*
X159151557Y-81981588D01*
X159055051Y-81792184D01*
X159055049Y-81792181D01*
X159055048Y-81792179D01*
X158930109Y-81620213D01*
X158779786Y-81469890D01*
X158607817Y-81344949D01*
X158598504Y-81340204D01*
X158547707Y-81292230D01*
X158530912Y-81224409D01*
X158553449Y-81158274D01*
X158598507Y-81119232D01*
X158607555Y-81114622D01*
X158661716Y-81075270D01*
X158661717Y-81075270D01*
X158029408Y-80442962D01*
X158092993Y-80425925D01*
X158207007Y-80360099D01*
X158300099Y-80267007D01*
X158365925Y-80152993D01*
X158382962Y-80089408D01*
X159015270Y-80721717D01*
X159015270Y-80721716D01*
X159054622Y-80667554D01*
X159151095Y-80478217D01*
X159216757Y-80276130D01*
X159216757Y-80276127D01*
X159250000Y-80066246D01*
X159250000Y-79853753D01*
X159216757Y-79643872D01*
X159216757Y-79643869D01*
X159151095Y-79441782D01*
X159054624Y-79252449D01*
X159015270Y-79198282D01*
X159015269Y-79198282D01*
X158382962Y-79830590D01*
X158365925Y-79767007D01*
X158300099Y-79652993D01*
X158207007Y-79559901D01*
X158092993Y-79494075D01*
X158029409Y-79477037D01*
X158699627Y-78806818D01*
X158760950Y-78773333D01*
X158787307Y-78770499D01*
X158797872Y-78770499D01*
X158857483Y-78764091D01*
X158992331Y-78713796D01*
X159107546Y-78627546D01*
X159193796Y-78512331D01*
X159244091Y-78377483D01*
X159250500Y-78317873D01*
X159250499Y-76522128D01*
X159244091Y-76462517D01*
X159233387Y-76433819D01*
X159193797Y-76327671D01*
X159193793Y-76327664D01*
X159107547Y-76212455D01*
X159107544Y-76212452D01*
X158992335Y-76126206D01*
X158992328Y-76126202D01*
X158857482Y-76075908D01*
X158857483Y-76075908D01*
X158797883Y-76069501D01*
X158797881Y-76069500D01*
X158797873Y-76069500D01*
X158797864Y-76069500D01*
X157002129Y-76069500D01*
X157002123Y-76069501D01*
X156942516Y-76075908D01*
X156807671Y-76126202D01*
X156807664Y-76126206D01*
X156692455Y-76212452D01*
X156692452Y-76212455D01*
X156606206Y-76327664D01*
X156606202Y-76327671D01*
X156555908Y-76462517D01*
X156549501Y-76522116D01*
X156549501Y-76522123D01*
X156549500Y-76522135D01*
X134247098Y-76522135D01*
X137536190Y-73233044D01*
X137536195Y-73233040D01*
X137546398Y-73222836D01*
X137546400Y-73222836D01*
X137658204Y-73111032D01*
X137733437Y-72980724D01*
X137737261Y-72974101D01*
X137778184Y-72821373D01*
X137778184Y-72663259D01*
X137778184Y-72497995D01*
X137780734Y-72489309D01*
X137779446Y-72480349D01*
X137790424Y-72456307D01*
X137797869Y-72430956D01*
X137804708Y-72425029D01*
X137808470Y-72416793D01*
X137830705Y-72402502D01*
X137850673Y-72385201D01*
X137861185Y-72382913D01*
X137867248Y-72379018D01*
X137902181Y-72373995D01*
X137902183Y-72373995D01*
X137982741Y-72373995D01*
X137982744Y-72373994D01*
X137990352Y-72373994D01*
X141240015Y-72373994D01*
X141240031Y-72373995D01*
X141247627Y-72373995D01*
X141405738Y-72373995D01*
X141405741Y-72373995D01*
X141558469Y-72333071D01*
X141608588Y-72304133D01*
X141641363Y-72285211D01*
X141662923Y-72279981D01*
X141709259Y-72268741D01*
X141715962Y-72269243D01*
X141718142Y-72269465D01*
X141752675Y-72272994D01*
X142352692Y-72272993D01*
X142352700Y-72272992D01*
X142352703Y-72272992D01*
X142429294Y-72265168D01*
X142455481Y-72262493D01*
X142622018Y-72207308D01*
X142771340Y-72115206D01*
X142895396Y-71991150D01*
X142897436Y-71987841D01*
X142899429Y-71986049D01*
X142899877Y-71985483D01*
X142899973Y-71985559D01*
X142949378Y-71941117D01*
X143018340Y-71929889D01*
X143082424Y-71957728D01*
X143108513Y-71987833D01*
X143110365Y-71990835D01*
X143110367Y-71990838D01*
X143234338Y-72114809D01*
X143383559Y-72206850D01*
X143383564Y-72206852D01*
X143549986Y-72261999D01*
X143549993Y-72262000D01*
X143652703Y-72272493D01*
X144202684Y-72272493D01*
X144252656Y-72272493D01*
X144252670Y-72272492D01*
X144355381Y-72261999D01*
X144521803Y-72206852D01*
X144521808Y-72206850D01*
X144671029Y-72114809D01*
X144794999Y-71990839D01*
X144887040Y-71841618D01*
X144887042Y-71841613D01*
X144942189Y-71675191D01*
X144942190Y-71675184D01*
X144952683Y-71572480D01*
X144952684Y-71572467D01*
X144952684Y-71297494D01*
X144202684Y-71297494D01*
X144202684Y-72272493D01*
X143652703Y-72272493D01*
X143702683Y-72272492D01*
X143702684Y-72272492D01*
X143702684Y-70797494D01*
X144202684Y-70797494D01*
X144952683Y-70797494D01*
X144952683Y-70522522D01*
X144952682Y-70522507D01*
X144942189Y-70419796D01*
X144887042Y-70253374D01*
X144887040Y-70253369D01*
X144794999Y-70104148D01*
X144671029Y-69980178D01*
X144545957Y-69903033D01*
X144499233Y-69851085D01*
X144488010Y-69782122D01*
X144515854Y-69718040D01*
X144545957Y-69691955D01*
X144671029Y-69614809D01*
X144794999Y-69490839D01*
X144887040Y-69341618D01*
X144887042Y-69341613D01*
X144942189Y-69175191D01*
X144942190Y-69175184D01*
X144952683Y-69072480D01*
X144952684Y-69072467D01*
X144952684Y-68797494D01*
X144202684Y-68797494D01*
X144202684Y-70797494D01*
X143702684Y-70797494D01*
X143702684Y-68297494D01*
X144202684Y-68297494D01*
X144952683Y-68297494D01*
X144952683Y-68022522D01*
X144952682Y-68022507D01*
X144942189Y-67919796D01*
X144887042Y-67753374D01*
X144887040Y-67753369D01*
X144794999Y-67604148D01*
X144671029Y-67480178D01*
X144521808Y-67388137D01*
X144521803Y-67388135D01*
X144355381Y-67332988D01*
X144355374Y-67332987D01*
X144252670Y-67322494D01*
X144202684Y-67322494D01*
X144202684Y-68297494D01*
X143702684Y-68297494D01*
X143702684Y-67322494D01*
X143702683Y-67322493D01*
X143652713Y-67322494D01*
X143652695Y-67322495D01*
X143549986Y-67332988D01*
X143383564Y-67388135D01*
X143383559Y-67388137D01*
X143234338Y-67480178D01*
X143110367Y-67604149D01*
X143110363Y-67604154D01*
X143108510Y-67607159D01*
X143106702Y-67608784D01*
X143105886Y-67609817D01*
X143105709Y-67609677D01*
X143056558Y-67653879D01*
X142987595Y-67665095D01*
X142923515Y-67637246D01*
X142897437Y-67607147D01*
X142897421Y-67607122D01*
X142895396Y-67603838D01*
X142771340Y-67479782D01*
X142622018Y-67387680D01*
X142455481Y-67332495D01*
X142455479Y-67332494D01*
X142352694Y-67321994D01*
X141752682Y-67321994D01*
X141752664Y-67321995D01*
X141649887Y-67332494D01*
X141649884Y-67332495D01*
X141483352Y-67387679D01*
X141483347Y-67387681D01*
X141334026Y-67479783D01*
X141209973Y-67603836D01*
X141117871Y-67753157D01*
X141117869Y-67753162D01*
X141090033Y-67837164D01*
X141062685Y-67919697D01*
X141062685Y-67919698D01*
X141062684Y-67919698D01*
X141052184Y-68022477D01*
X141052184Y-69072495D01*
X141052185Y-69072513D01*
X141062684Y-69175290D01*
X141062685Y-69175293D01*
X141095035Y-69272917D01*
X141117870Y-69341828D01*
X141209972Y-69491150D01*
X141334028Y-69615206D01*
X141393280Y-69651752D01*
X141400104Y-69659338D01*
X141409387Y-69663578D01*
X141423073Y-69684874D01*
X141440005Y-69703698D01*
X141442649Y-69715336D01*
X141447161Y-69722356D01*
X141452184Y-69757291D01*
X141452184Y-69837695D01*
X141432499Y-69904734D01*
X141393282Y-69943233D01*
X141334028Y-69979781D01*
X141209973Y-70103836D01*
X141117871Y-70253157D01*
X141117869Y-70253162D01*
X141117799Y-70253374D01*
X141062685Y-70419697D01*
X141062685Y-70419698D01*
X141062684Y-70419698D01*
X141052184Y-70522477D01*
X141052184Y-70522485D01*
X141052184Y-70797494D01*
X141052185Y-71048994D01*
X141032501Y-71116033D01*
X140979697Y-71161788D01*
X140928185Y-71172994D01*
X139852184Y-71172994D01*
X139785145Y-71153309D01*
X139739390Y-71100505D01*
X139728184Y-71048994D01*
X139728184Y-70715880D01*
X139721770Y-70645301D01*
X139721770Y-70645298D01*
X139671162Y-70482888D01*
X139583156Y-70337309D01*
X139583154Y-70337307D01*
X139583153Y-70337305D01*
X139462872Y-70217024D01*
X139317290Y-70129016D01*
X139255677Y-70109817D01*
X139154880Y-70078408D01*
X139154878Y-70078407D01*
X139154876Y-70078407D01*
X139105462Y-70073917D01*
X139084300Y-70071994D01*
X138571068Y-70071994D01*
X138551829Y-70073742D01*
X138500491Y-70078407D01*
X138338077Y-70129016D01*
X138192495Y-70217024D01*
X138186590Y-70221651D01*
X138184907Y-70219503D01*
X138179263Y-70222583D01*
X138165342Y-70235863D01*
X138142626Y-70242573D01*
X138134817Y-70246835D01*
X138131992Y-70247415D01*
X138121188Y-70249500D01*
X138116233Y-70249500D01*
X137955025Y-70281565D01*
X137954600Y-70281648D01*
X137920170Y-70278368D01*
X137885703Y-70275284D01*
X137885348Y-70275051D01*
X137885045Y-70275023D01*
X137883742Y-70273998D01*
X137843423Y-70247575D01*
X137812872Y-70217024D01*
X137667290Y-70129016D01*
X137605677Y-70109817D01*
X137504880Y-70078408D01*
X137504878Y-70078407D01*
X137504876Y-70078407D01*
X137455462Y-70073917D01*
X137434300Y-70071994D01*
X136921068Y-70071994D01*
X136901829Y-70073742D01*
X136850491Y-70078407D01*
X136688077Y-70129016D01*
X136542495Y-70217024D01*
X136422214Y-70337305D01*
X136334206Y-70482887D01*
X136283597Y-70645301D01*
X136277184Y-70715880D01*
X136277184Y-71379107D01*
X136283597Y-71449686D01*
X136283597Y-71449688D01*
X136283598Y-71449690D01*
X136334206Y-71612100D01*
X136422212Y-71757679D01*
X136540866Y-71876333D01*
X136574350Y-71937654D01*
X136577184Y-71964013D01*
X136577184Y-72442218D01*
X136557499Y-72509257D01*
X136540865Y-72529899D01*
X133037582Y-76033181D01*
X132976259Y-76066666D01*
X132949901Y-76069500D01*
X131602129Y-76069500D01*
X131602123Y-76069501D01*
X131542516Y-76075908D01*
X131407671Y-76126202D01*
X131407664Y-76126206D01*
X131292455Y-76212452D01*
X131292452Y-76212455D01*
X131206206Y-76327664D01*
X131206202Y-76327671D01*
X131155908Y-76462517D01*
X131149501Y-76522116D01*
X131149501Y-76522123D01*
X131149500Y-76522135D01*
X131149500Y-77048480D01*
X131129815Y-77115519D01*
X131113181Y-77136161D01*
X125611160Y-82638181D01*
X125549837Y-82671666D01*
X125523479Y-82674500D01*
X125039998Y-82674500D01*
X125039980Y-82674501D01*
X124937203Y-82685000D01*
X124937200Y-82685001D01*
X124770668Y-82740185D01*
X124770663Y-82740187D01*
X124621342Y-82832289D01*
X124497285Y-82956346D01*
X124495537Y-82959182D01*
X124493829Y-82960717D01*
X124492807Y-82962011D01*
X124492585Y-82961836D01*
X124443589Y-83005905D01*
X124374626Y-83017126D01*
X124310544Y-82989282D01*
X124284463Y-82959182D01*
X124282714Y-82956346D01*
X124158657Y-82832289D01*
X124158656Y-82832288D01*
X124009334Y-82740186D01*
X123842797Y-82685001D01*
X123842795Y-82685000D01*
X123740010Y-82674500D01*
X123139998Y-82674500D01*
X123139980Y-82674501D01*
X123037203Y-82685000D01*
X123037200Y-82685001D01*
X122870668Y-82740185D01*
X122870659Y-82740189D01*
X122730096Y-82826889D01*
X122662704Y-82845329D01*
X122599904Y-82826889D01*
X122459340Y-82740189D01*
X122459335Y-82740187D01*
X122459334Y-82740186D01*
X122292797Y-82685001D01*
X122292795Y-82685000D01*
X122190010Y-82674500D01*
X121589998Y-82674500D01*
X121589980Y-82674501D01*
X121487203Y-82685000D01*
X121487200Y-82685001D01*
X121320668Y-82740185D01*
X121320663Y-82740187D01*
X121171342Y-82832289D01*
X121047285Y-82956346D01*
X121045537Y-82959182D01*
X121043829Y-82960717D01*
X121042807Y-82962011D01*
X121042585Y-82961836D01*
X120993589Y-83005905D01*
X120924626Y-83017126D01*
X120860544Y-82989282D01*
X120834463Y-82959182D01*
X120832714Y-82956346D01*
X120708655Y-82832287D01*
X120649402Y-82795739D01*
X120602678Y-82743791D01*
X120590500Y-82690201D01*
X120590500Y-79310097D01*
X120599144Y-79280656D01*
X120605668Y-79250670D01*
X120609422Y-79245654D01*
X120610185Y-79243058D01*
X120626819Y-79222416D01*
X120762416Y-79086819D01*
X120823739Y-79053334D01*
X120850097Y-79050500D01*
X120883768Y-79050500D01*
X120883769Y-79050499D01*
X121048082Y-79017816D01*
X121202863Y-78953703D01*
X121342162Y-78860626D01*
X121460626Y-78742162D01*
X121553703Y-78602863D01*
X121617816Y-78448082D01*
X121650500Y-78283767D01*
X121650500Y-78116233D01*
X121617816Y-77951918D01*
X121553703Y-77797137D01*
X121480494Y-77687573D01*
X121459617Y-77620898D01*
X121478101Y-77553518D01*
X121530080Y-77506827D01*
X121599050Y-77495651D01*
X121622601Y-77500978D01*
X121739289Y-77539644D01*
X121837730Y-77549701D01*
X122354374Y-77549701D01*
X122371010Y-77549701D01*
X122371026Y-77549700D01*
X122469457Y-77539645D01*
X122628946Y-77486795D01*
X122628951Y-77486793D01*
X122771954Y-77398587D01*
X122890759Y-77279782D01*
X122978965Y-77136779D01*
X122978967Y-77136774D01*
X123031816Y-76977285D01*
X123041873Y-76878852D01*
X123041874Y-76878839D01*
X123041874Y-76824702D01*
X122354374Y-76824702D01*
X122354374Y-77549701D01*
X121837730Y-77549701D01*
X121854374Y-77549700D01*
X121854374Y-76698702D01*
X121874059Y-76631663D01*
X121926863Y-76585908D01*
X121978374Y-76574702D01*
X122104374Y-76574702D01*
X122104374Y-76500858D01*
X122124059Y-76433819D01*
X122176863Y-76388064D01*
X122246021Y-76378120D01*
X122275819Y-76386294D01*
X122351918Y-76417816D01*
X122516228Y-76450499D01*
X122516232Y-76450500D01*
X122516233Y-76450500D01*
X122683768Y-76450500D01*
X122683769Y-76450499D01*
X122848082Y-76417816D01*
X123002863Y-76353703D01*
X123142162Y-76260626D01*
X123260626Y-76142162D01*
X123353703Y-76002863D01*
X123417816Y-75848082D01*
X123450500Y-75683767D01*
X123450500Y-75516233D01*
X123417816Y-75351918D01*
X123353703Y-75197137D01*
X123319127Y-75145391D01*
X123260626Y-75057837D01*
X123142162Y-74939373D01*
X123002860Y-74846295D01*
X122848082Y-74782184D01*
X122848074Y-74782182D01*
X122683771Y-74749500D01*
X122683767Y-74749500D01*
X122516233Y-74749500D01*
X122516228Y-74749500D01*
X122351925Y-74782182D01*
X122351917Y-74782184D01*
X122197139Y-74846295D01*
X122057837Y-74939373D01*
X122057834Y-74939376D01*
X122034030Y-74963181D01*
X122007102Y-74977884D01*
X121981284Y-74994477D01*
X121975083Y-74995368D01*
X121972707Y-74996666D01*
X121946349Y-74999500D01*
X121787484Y-74999500D01*
X121720445Y-74979815D01*
X121674690Y-74927011D01*
X121664746Y-74857853D01*
X121684382Y-74806609D01*
X121700702Y-74782184D01*
X121753703Y-74702863D01*
X121817816Y-74548082D01*
X121829160Y-74491046D01*
X121861544Y-74429139D01*
X121862985Y-74427670D01*
X122242615Y-74048042D01*
X122319276Y-73933310D01*
X122334259Y-73897139D01*
X122372079Y-73805831D01*
X122372081Y-73805827D01*
X122399001Y-73670493D01*
X122399001Y-73532505D01*
X122399001Y-69230193D01*
X127132000Y-69230193D01*
X127170448Y-69423479D01*
X127170451Y-69423489D01*
X127245865Y-69605557D01*
X127245872Y-69605570D01*
X127355361Y-69769431D01*
X127355364Y-69769435D01*
X127494715Y-69908786D01*
X127494719Y-69908789D01*
X127658580Y-70018278D01*
X127658593Y-70018285D01*
X127803745Y-70078408D01*
X127840666Y-70093701D01*
X127840670Y-70093701D01*
X127840671Y-70093702D01*
X128033957Y-70132150D01*
X128033960Y-70132150D01*
X128231044Y-70132150D01*
X128373384Y-70103836D01*
X128424336Y-70093701D01*
X128606415Y-70018282D01*
X128770283Y-69908789D01*
X128909640Y-69769432D01*
X129019133Y-69605564D01*
X129094552Y-69423485D01*
X129133001Y-69230191D01*
X129133001Y-68433109D01*
X129133001Y-68433106D01*
X129094553Y-68239820D01*
X129094552Y-68239819D01*
X129094552Y-68239815D01*
X129094550Y-68239810D01*
X129019136Y-68057742D01*
X129019129Y-68057729D01*
X128909640Y-67893868D01*
X128909637Y-67893864D01*
X128770286Y-67754513D01*
X128770282Y-67754510D01*
X128606421Y-67645021D01*
X128606408Y-67645014D01*
X128424340Y-67569600D01*
X128424330Y-67569597D01*
X128231044Y-67531150D01*
X128231042Y-67531150D01*
X128033960Y-67531150D01*
X128033958Y-67531150D01*
X127840671Y-67569597D01*
X127840661Y-67569600D01*
X127658593Y-67645014D01*
X127658580Y-67645021D01*
X127494719Y-67754510D01*
X127494715Y-67754513D01*
X127355364Y-67893864D01*
X127355361Y-67893868D01*
X127245872Y-68057729D01*
X127245865Y-68057742D01*
X127170451Y-68239810D01*
X127170448Y-68239820D01*
X127132001Y-68433106D01*
X127132001Y-68433109D01*
X127132001Y-69230191D01*
X127132001Y-69230193D01*
X127132000Y-69230193D01*
X122399001Y-69230193D01*
X122399001Y-65086149D01*
X122418686Y-65019110D01*
X122471490Y-64973355D01*
X122523001Y-64962149D01*
X122760373Y-64962149D01*
X122760386Y-64962148D01*
X122799245Y-64957970D01*
X122825753Y-64957970D01*
X122864628Y-64962150D01*
X123260373Y-64962149D01*
X123260374Y-64962148D01*
X123260386Y-64962148D01*
X123299245Y-64957970D01*
X123325753Y-64957970D01*
X123364628Y-64962150D01*
X123760373Y-64962149D01*
X123760374Y-64962148D01*
X123760386Y-64962148D01*
X123799245Y-64957970D01*
X123825753Y-64957970D01*
X123864628Y-64962150D01*
X124260373Y-64962149D01*
X124260374Y-64962148D01*
X124260386Y-64962148D01*
X124299245Y-64957970D01*
X124325753Y-64957970D01*
X124364628Y-64962150D01*
X124760373Y-64962149D01*
X124760374Y-64962148D01*
X124760386Y-64962148D01*
X124799245Y-64957970D01*
X124825753Y-64957970D01*
X124864628Y-64962150D01*
X125260373Y-64962149D01*
X125260374Y-64962148D01*
X125260386Y-64962148D01*
X125299245Y-64957970D01*
X125325753Y-64957970D01*
X125364628Y-64962150D01*
X125760373Y-64962149D01*
X125819984Y-64955741D01*
X125819987Y-64955739D01*
X125824245Y-64955282D01*
X125843119Y-64954699D01*
X125853485Y-64955169D01*
X125855018Y-64955741D01*
X125914628Y-64962150D01*
X126007362Y-64962149D01*
X126010148Y-64962276D01*
X126040639Y-64972751D01*
X126071567Y-64981833D01*
X126073473Y-64984032D01*
X126076227Y-64984979D01*
X126096211Y-65010273D01*
X126117323Y-65034636D01*
X126117758Y-65037545D01*
X126119542Y-65039802D01*
X126122254Y-65067540D01*
X126126782Y-65097757D01*
X126127001Y-65097757D01*
X126127001Y-65099215D01*
X126127468Y-65102332D01*
X126127001Y-65105879D01*
X126127001Y-65105884D01*
X126127001Y-65257416D01*
X126138463Y-65300193D01*
X126166220Y-65403786D01*
X126202366Y-65466391D01*
X126241986Y-65535015D01*
X126349136Y-65642165D01*
X126480366Y-65717931D01*
X126626735Y-65757150D01*
X126626737Y-65757150D01*
X126778265Y-65757150D01*
X126778267Y-65757150D01*
X126924636Y-65717931D01*
X127055866Y-65642165D01*
X127055875Y-65642155D01*
X127061989Y-65637465D01*
X127127157Y-65612267D01*
X127195602Y-65626300D01*
X127241526Y-65671138D01*
X127242484Y-65670499D01*
X127245510Y-65675028D01*
X127245595Y-65675111D01*
X127245729Y-65675356D01*
X127355361Y-65839431D01*
X127355364Y-65839435D01*
X127494715Y-65978786D01*
X127494719Y-65978789D01*
X127658580Y-66088278D01*
X127658593Y-66088285D01*
X127840661Y-66163699D01*
X127840666Y-66163701D01*
X127840670Y-66163701D01*
X127840671Y-66163702D01*
X128033957Y-66202150D01*
X128033960Y-66202150D01*
X128231044Y-66202150D01*
X128361083Y-66176282D01*
X128424336Y-66163701D01*
X128606415Y-66088282D01*
X128770283Y-65978789D01*
X128909640Y-65839432D01*
X129019133Y-65675564D01*
X129094552Y-65493485D01*
X129107133Y-65430232D01*
X129133001Y-65300193D01*
X129133001Y-64003106D01*
X129094553Y-63809820D01*
X129094552Y-63809819D01*
X129094552Y-63809815D01*
X129094550Y-63809810D01*
X129019136Y-63627742D01*
X129019129Y-63627729D01*
X128909640Y-63463868D01*
X128909637Y-63463864D01*
X128770286Y-63324513D01*
X128770282Y-63324510D01*
X128606421Y-63215021D01*
X128606408Y-63215014D01*
X128424340Y-63139600D01*
X128424330Y-63139597D01*
X128231044Y-63101150D01*
X128231042Y-63101150D01*
X128033960Y-63101150D01*
X128033959Y-63101150D01*
X128010689Y-63105778D01*
X127941098Y-63099549D01*
X127885921Y-63056684D01*
X127862679Y-62990794D01*
X127862501Y-62984160D01*
X127862501Y-62963822D01*
X127862500Y-62963805D01*
X127856099Y-62904277D01*
X127856097Y-62904270D01*
X127805855Y-62769563D01*
X127805851Y-62769556D01*
X127719691Y-62654462D01*
X127719688Y-62654459D01*
X127604594Y-62568299D01*
X127604587Y-62568295D01*
X127469880Y-62518053D01*
X127469873Y-62518051D01*
X127410345Y-62511650D01*
X127312501Y-62511650D01*
X127312501Y-63425719D01*
X127309327Y-63436527D01*
X127310532Y-63447727D01*
X127299659Y-63469450D01*
X127292816Y-63492758D01*
X127284303Y-63500133D01*
X127279262Y-63510208D01*
X127258368Y-63522606D01*
X127240012Y-63538513D01*
X127228863Y-63540115D01*
X127219176Y-63545865D01*
X127194899Y-63544999D01*
X127170854Y-63548457D01*
X127160606Y-63543777D01*
X127149350Y-63543376D01*
X127129396Y-63529523D01*
X127107298Y-63519432D01*
X127099718Y-63508921D01*
X127091955Y-63503532D01*
X127073943Y-63473180D01*
X127072442Y-63469557D01*
X127063000Y-63422096D01*
X127063000Y-62963779D01*
X127062999Y-62963773D01*
X127062998Y-62963766D01*
X127056592Y-62904167D01*
X127006385Y-62769556D01*
X127006298Y-62769321D01*
X127006294Y-62769314D01*
X126920048Y-62654105D01*
X126862189Y-62610791D01*
X126820319Y-62554857D01*
X126812528Y-62511677D01*
X126812501Y-62511650D01*
X126714666Y-62511650D01*
X126678099Y-62515581D01*
X126651593Y-62515581D01*
X126610374Y-62511150D01*
X125914630Y-62511150D01*
X125914621Y-62511151D01*
X125850749Y-62518017D01*
X125824243Y-62518017D01*
X125819984Y-62517559D01*
X125760374Y-62511150D01*
X125760365Y-62511150D01*
X125364631Y-62511150D01*
X125364620Y-62511151D01*
X125325754Y-62515329D01*
X125299249Y-62515329D01*
X125260375Y-62511150D01*
X124864631Y-62511150D01*
X124864620Y-62511151D01*
X124825754Y-62515329D01*
X124799249Y-62515329D01*
X124760375Y-62511150D01*
X124364631Y-62511150D01*
X124364620Y-62511151D01*
X124325754Y-62515329D01*
X124299249Y-62515329D01*
X124260375Y-62511150D01*
X123864631Y-62511150D01*
X123864620Y-62511151D01*
X123825754Y-62515329D01*
X123799249Y-62515329D01*
X123760375Y-62511150D01*
X123364631Y-62511150D01*
X123364620Y-62511151D01*
X123325754Y-62515329D01*
X123299249Y-62515329D01*
X123260375Y-62511150D01*
X122864631Y-62511150D01*
X122864620Y-62511151D01*
X122825754Y-62515329D01*
X122799249Y-62515329D01*
X122760375Y-62511150D01*
X122364631Y-62511150D01*
X122364620Y-62511151D01*
X122325754Y-62515329D01*
X122299249Y-62515329D01*
X122260375Y-62511150D01*
X121864630Y-62511150D01*
X121864621Y-62511151D01*
X121800749Y-62518017D01*
X121774243Y-62518017D01*
X121769984Y-62517559D01*
X121710374Y-62511150D01*
X121710365Y-62511150D01*
X121014633Y-62511150D01*
X121014618Y-62511151D01*
X120973405Y-62515581D01*
X120946903Y-62515581D01*
X120910335Y-62511650D01*
X120812501Y-62511650D01*
X120812449Y-62511701D01*
X120792816Y-62578564D01*
X120762813Y-62610791D01*
X120704953Y-62654105D01*
X120618707Y-62769314D01*
X120618703Y-62769321D01*
X120568409Y-62904167D01*
X120562002Y-62963766D01*
X120562002Y-62963773D01*
X120562001Y-62963785D01*
X120562001Y-63422099D01*
X120560373Y-63430278D01*
X120561290Y-63435358D01*
X120552562Y-63469550D01*
X120552560Y-63469557D01*
X120551061Y-63473176D01*
X120507218Y-63527578D01*
X120440923Y-63549641D01*
X120373224Y-63532360D01*
X120325615Y-63481221D01*
X120312501Y-63425720D01*
X120312501Y-62511650D01*
X120214656Y-62511650D01*
X120155128Y-62518051D01*
X120155121Y-62518053D01*
X120020414Y-62568295D01*
X120020407Y-62568299D01*
X119905313Y-62654459D01*
X119905310Y-62654462D01*
X119819150Y-62769556D01*
X119819146Y-62769563D01*
X119768904Y-62904270D01*
X119768902Y-62904277D01*
X119762501Y-62963805D01*
X119762501Y-62984160D01*
X119742816Y-63051199D01*
X119690012Y-63096954D01*
X119620854Y-63106898D01*
X119614313Y-63105778D01*
X119591043Y-63101150D01*
X119591042Y-63101150D01*
X119393960Y-63101150D01*
X119393958Y-63101150D01*
X119200671Y-63139597D01*
X119200661Y-63139600D01*
X119018593Y-63215014D01*
X119018580Y-63215021D01*
X118854719Y-63324510D01*
X118854715Y-63324513D01*
X118712181Y-63467048D01*
X118650858Y-63500533D01*
X118581166Y-63495549D01*
X118525233Y-63453677D01*
X118500816Y-63388213D01*
X118500500Y-63379367D01*
X118500500Y-61624500D01*
X118520185Y-61557461D01*
X118572989Y-61511706D01*
X118624500Y-61500500D01*
X129375500Y-61500500D01*
X129442539Y-61520185D01*
G37*
%TD.AperFunction*%
%TD*%
M02*
