%TF.GenerationSoftware,KiCad,Pcbnew,9.0.6*%
%TF.CreationDate,2026-02-27T17:21:49+03:00*%
%TF.ProjectId,blabla,626c6162-6c61-42e6-9b69-6361645f7063,rev?*%
%TF.SameCoordinates,Original*%
%TF.FileFunction,Paste,Top*%
%TF.FilePolarity,Positive*%
%FSLAX46Y46*%
G04 Gerber Fmt 4.6, Leading zero omitted, Abs format (unit mm)*
G04 Created by KiCad (PCBNEW 9.0.6) date 2026-02-27 17:21:49*
%MOMM*%
%LPD*%
G01*
G04 APERTURE LIST*
G04 Aperture macros list*
%AMRoundRect*
0 Rectangle with rounded corners*
0 $1 Rounding radius*
0 $2 $3 $4 $5 $6 $7 $8 $9 X,Y pos of 4 corners*
0 Add a 4 corners polygon primitive as box body*
4,1,4,$2,$3,$4,$5,$6,$7,$8,$9,$2,$3,0*
0 Add four circle primitives for the rounded corners*
1,1,$1+$1,$2,$3*
1,1,$1+$1,$4,$5*
1,1,$1+$1,$6,$7*
1,1,$1+$1,$8,$9*
0 Add four rect primitives between the rounded corners*
20,1,$1+$1,$2,$3,$4,$5,0*
20,1,$1+$1,$4,$5,$6,$7,0*
20,1,$1+$1,$6,$7,$8,$9,0*
20,1,$1+$1,$8,$9,$2,$3,0*%
G04 Aperture macros list end*
%ADD10RoundRect,0.200000X-0.200000X-0.275000X0.200000X-0.275000X0.200000X0.275000X-0.200000X0.275000X0*%
%ADD11RoundRect,0.218750X-0.218750X-0.256250X0.218750X-0.256250X0.218750X0.256250X-0.218750X0.256250X0*%
%ADD12RoundRect,0.250000X-0.250000X-0.475000X0.250000X-0.475000X0.250000X0.475000X-0.250000X0.475000X0*%
%ADD13RoundRect,0.375000X-0.625000X-0.375000X0.625000X-0.375000X0.625000X0.375000X-0.625000X0.375000X0*%
%ADD14RoundRect,0.500000X-0.500000X-1.400000X0.500000X-1.400000X0.500000X1.400000X-0.500000X1.400000X0*%
%ADD15R,0.600000X1.450000*%
%ADD16R,0.300000X1.450000*%
%ADD17R,0.500000X0.350000*%
G04 APERTURE END LIST*
D10*
%TO.C,R1*%
X137177684Y-71047494D03*
X138827684Y-71047494D03*
%TD*%
D11*
%TO.C,D1*%
X120529374Y-76574702D03*
X122104374Y-76574702D03*
%TD*%
D12*
%TO.C,C3*%
X142052684Y-68547494D03*
X143952684Y-68547494D03*
%TD*%
%TO.C,C1*%
X119990000Y-83900000D03*
X121890000Y-83900000D03*
%TD*%
%TO.C,C4*%
X142052684Y-71047494D03*
X143952684Y-71047494D03*
%TD*%
D13*
%TO.C,U1*%
X120850000Y-86700000D03*
X120850000Y-89000000D03*
D14*
X127150000Y-89000000D03*
D13*
X120850000Y-91300000D03*
%TD*%
D15*
%TO.C,J3*%
X120562501Y-63736650D03*
X121362501Y-63736650D03*
D16*
X122562501Y-63736650D03*
X123562501Y-63736650D03*
X124062501Y-63736650D03*
X125062501Y-63736650D03*
D15*
X126262501Y-63736650D03*
X127062501Y-63736650D03*
X127062501Y-63736650D03*
X126262501Y-63736650D03*
D16*
X125562501Y-63736650D03*
X124562501Y-63736650D03*
X123062501Y-63736650D03*
X122062501Y-63736650D03*
D15*
X121362501Y-63736650D03*
X120562501Y-63736650D03*
%TD*%
D12*
%TO.C,C2*%
X123440000Y-83900000D03*
X125340000Y-83900000D03*
%TD*%
D17*
%TO.C,U2*%
X125675000Y-100425000D03*
X125675000Y-101075000D03*
X125675000Y-101725000D03*
X125675000Y-102375000D03*
X123625000Y-102375000D03*
X123625000Y-101725000D03*
X123625000Y-101075000D03*
X123625000Y-100425000D03*
%TD*%
M02*
